<?xml version="1.0" standalone="no"?>
<!DOCTYPE svg PUBLIC "-//W3C//DTD SVG 1.1//EN" "http://www.w3.org/Graphics/SVG/1.1/DTD/svg11.dtd" >
<svg>
<metadata>
Created by FontForge 20120731 at Fri Mar  1 11:21:32 2019
 By Apache
Copyright (c) Mark Simonson, 2005. All rights reserved.
</metadata>
<defs>
<font id="ProximaNova-Regular" horiz-adv-x="572" >
  <font-face 
    font-family="Proxima Nova Rg"
    font-weight="400"
    font-stretch="normal"
    units-per-em="1000"
    panose-1="2 0 5 6 3 0 0 2 0 4"
    ascent="790"
    descent="-210"
    x-height="483"
    cap-height="667"
    bbox="-172 -272 1082 907"
    underline-thickness="20"
    underline-position="-113"
    stemh="74"
    stemv="75"
    unicode-range="U+000D-FB04"
  />
<missing-glyph horiz-adv-x="507" 
d="M429 -90h-351v842h351v-842zM397 -60v782h-288v-782h288z" />
    <glyph glyph-name="f_b" unicode="fb" horiz-adv-x="858" 
d="M171 0h-75v417h-80v66h80v37c0 100 56 157 140 157c28 0 54 -5 73 -17l-19 -57c-11 7 -24 12 -43 12c-49 0 -76 -34 -76 -95v-37h98v-66h-98v-417zM433 131c26 -42 85 -76 144 -76c98 0 156 79 156 186s-58 187 -156 187c-59 0 -118 -36 -144 -78v-219zM433 0h-75v667h75
v-257c39 53 97 85 163 85c126 0 215 -100 215 -254c0 -157 -89 -253 -215 -253c-68 0 -127 35 -163 84v-72z" />
    <glyph glyph-name="f_f" unicode="ff" horiz-adv-x="567" 
d="M171 0h-75v417h-80v66h80v37c0 99 54 157 140 157c38 0 72 -9 102 -37l-31 -49c-16 14 -35 24 -60 24c-49 0 -76 -34 -76 -95v-37h98v-66h-98v-417zM454 0h-75v417h-80v66h80v37c0 99 54 157 140 157c38 0 72 -9 102 -37l-31 -49c-16 14 -35 24 -60 24
c-49 0 -76 -34 -76 -95v-37h98v-66h-98v-417z" />
    <glyph glyph-name="f_h" unicode="fh" horiz-adv-x="835" 
d="M171 0h-75v417h-80v66h80v37c0 100 56 157 140 157c28 0 54 -5 73 -17l-19 -57c-11 7 -24 12 -43 12c-49 0 -76 -34 -76 -95v-37h98v-66h-98v-417zM760 0h-75v318c0 85 -44 110 -109 110c-58 0 -114 -36 -143 -75v-353h-75v667h75v-254c34 40 100 82 173 82
c101 0 154 -49 154 -154v-341z" />
    <glyph glyph-name="fi" unicode="fi" horiz-adv-x="509" 
d="M171 0h-75v417h-80v66h80v37c0 100 56 157 140 157c28 0 54 -5 73 -17l-19 -57c-11 7 -24 12 -43 12c-49 0 -76 -34 -76 -95v-37h98v-66h-98v-417zM395 552c-27 0 -50 22 -50 50s23 51 50 51c28 0 51 -23 51 -51s-23 -50 -51 -50zM433 0h-75v483h75v-483z" />
    <glyph glyph-name="f_j" unicode="fj" horiz-adv-x="509" 
d="M171 0h-75v417h-80v66h80v37c0 100 56 157 140 157c28 0 54 -5 73 -17l-19 -57c-11 7 -24 12 -43 12c-49 0 -76 -34 -76 -95v-37h98v-66h-98v-417zM395 552c-27 0 -50 22 -50 50s23 51 50 51c28 0 51 -23 51 -51s-23 -50 -51 -50zM290 -196c-49 0 -75 12 -106 36l27 57
c17 -17 39 -31 69 -31c45 0 78 26 78 87v530h75v-530c0 -95 -51 -149 -143 -149z" />
    <glyph glyph-name="f_k" unicode="fk" horiz-adv-x="798" 
d="M171 0h-75v417h-80v66h80v37c0 100 56 157 140 157c28 0 54 -5 73 -17l-19 -57c-11 7 -24 12 -43 12c-49 0 -76 -34 -76 -95v-37h98v-66h-98v-417zM783 0h-96l-174 217l-80 -79v-138h-75v667h75v-441l254 257h95l-214 -219z" />
    <glyph glyph-name="fl" unicode="fl" horiz-adv-x="509" 
d="M171 0h-75v417h-80v66h80v37c0 100 56 157 140 157c28 0 54 -5 73 -17l-19 -57c-11 7 -24 12 -43 12c-49 0 -76 -34 -76 -95v-37h98v-66h-98v-417zM433 0h-75v667h75v-667z" />
    <glyph glyph-name="f_f_i" unicode="ffi" horiz-adv-x="792" 
d="M454 0h-75v417h-80v66h80v37c0 100 56 157 140 157c28 0 54 -5 73 -17l-19 -57c-11 7 -24 12 -43 12c-49 0 -76 -34 -76 -95v-37h98v-66h-98v-417zM679 552c-27 0 -50 22 -50 50s23 51 50 51c28 0 51 -23 51 -51s-23 -50 -51 -50zM717 0h-75v483h75v-483zM171 0h-75v417
h-80v66h80v37c0 99 54 157 140 157c38 0 72 -9 102 -37l-31 -49c-16 14 -35 24 -60 24c-49 0 -76 -34 -76 -95v-37h98v-66h-98v-417z" />
    <glyph glyph-name="f_f_j" unicode="ffj" horiz-adv-x="792" 
d="M454 0h-75v417h-80v66h80v37c0 100 56 157 140 157c28 0 54 -5 73 -17l-19 -57c-11 7 -24 12 -43 12c-49 0 -76 -34 -76 -95v-37h98v-66h-98v-417zM679 552c-27 0 -50 22 -50 50s23 51 50 51c28 0 51 -23 51 -51s-23 -50 -51 -50zM574 -196c-49 0 -75 12 -106 36l27 57
c17 -17 39 -31 69 -31c45 0 78 26 78 87v530h75v-530c0 -95 -51 -149 -143 -149zM171 0h-75v417h-80v66h80v37c0 99 54 157 140 157c38 0 72 -9 102 -37l-31 -49c-16 14 -35 24 -60 24c-49 0 -76 -34 -76 -95v-37h98v-66h-98v-417z" />
    <glyph glyph-name="f_f_l" unicode="ffl" horiz-adv-x="792" 
d="M454 0h-75v417h-80v66h80v37c0 100 56 157 140 157c28 0 54 -5 73 -17l-19 -57c-11 7 -24 12 -43 12c-49 0 -76 -34 -76 -95v-37h98v-66h-98v-417zM717 0h-75v667h75v-667zM171 0h-75v417h-80v66h80v37c0 99 54 157 140 157c38 0 72 -9 102 -37l-31 -49
c-16 14 -35 24 -60 24c-49 0 -76 -34 -76 -95v-37h98v-66h-98v-417z" />
    <glyph glyph-name=".notdef" horiz-adv-x="507" 
d="M429 -90h-351v842h351v-842zM397 -60v782h-288v-782h288z" />
    <glyph glyph-name=".null" horiz-adv-x="0" 
 />
    <glyph glyph-name=".null" horiz-adv-x="0" 
 />
    <glyph glyph-name="CR" unicode="&#xd;" horiz-adv-x="0" 
 />
    <glyph glyph-name="space" unicode=" " horiz-adv-x="258" 
 />
    <glyph glyph-name="nbspace" unicode="&#xa0;" horiz-adv-x="258" 
 />
    <glyph glyph-name="thinspace" unicode="&#x2009;" horiz-adv-x="51" 
 />
    <glyph glyph-name="zero" unicode="0" horiz-adv-x="612" 
d="M306 -12c-183 0 -255 183 -255 345c0 163 72 344 255 344c182 0 255 -181 255 -344c0 -162 -73 -345 -255 -345zM306 62c127 0 170 138 170 271s-43 270 -170 270s-170 -137 -170 -270s43 -271 170 -271z" />
    <glyph glyph-name="zero.pzero" horiz-adv-x="612" 
d="M306 -12c-62 0 -111 21 -149 55l-27 -43h-65l54 86c-48 67 -68 160 -68 247c0 163 72 344 255 344c61 0 109 -21 147 -54l28 44h65l-54 -87c48 -67 69 -160 69 -247c0 -162 -73 -345 -255 -345zM306 62c127 0 170 138 170 271c0 61 -9 122 -31 171l-246 -394
c26 -30 61 -48 107 -48zM136 333c0 -61 9 -122 30 -171l246 394c-26 29 -61 47 -106 47c-127 0 -170 -137 -170 -270z" />
    <glyph glyph-name="one" unicode="1" horiz-adv-x="339" 
d="M261 0h-83v557l-107 -113l-50 51l167 172h73v-667z" />
    <glyph glyph-name="two" unicode="2" horiz-adv-x="588" 
d="M512 0h-458v66c240 189 370 300 370 415c0 85 -70 122 -139 122c-80 0 -142 -34 -181 -84l-51 53c51 67 138 105 232 105c111 0 224 -63 224 -196c0 -136 -138 -260 -324 -407h327v-74z" />
    <glyph glyph-name="three" unicode="3" horiz-adv-x="557" 
d="M266 -12c-113 0 -196 50 -237 110l49 52c39 -52 107 -88 186 -88c97 0 156 48 156 125c0 83 -68 118 -166 118c-28 0 -59 0 -69 -1v76c11 -1 42 -1 69 -1c84 0 155 33 155 110c0 74 -68 114 -149 114c-73 0 -127 -28 -176 -81l-46 52c48 58 125 103 228 103
c128 0 226 -65 226 -178c0 -96 -81 -144 -144 -155c61 -5 154 -57 154 -164c0 -111 -89 -192 -236 -192z" />
    <glyph glyph-name="four" unicode="4" horiz-adv-x="558" 
d="M432 0h-83v169h-317v69l286 429h114v-425h94v-73h-94v-169zM349 242v348l-234 -348h234z" />
    <glyph glyph-name="five" unicode="5" horiz-adv-x="590" 
d="M301 -12c-113 0 -185 41 -235 107l51 55c44 -56 102 -88 184 -88c91 0 154 62 154 143c0 88 -63 144 -153 144c-59 0 -109 -19 -154 -63l-61 21v360h408v-74h-325v-232c32 32 89 60 156 60c111 0 212 -76 212 -213c0 -136 -103 -220 -237 -220z" />
    <glyph glyph-name="six" unicode="6" horiz-adv-x="591" 
d="M308 -12c-186 0 -257 163 -257 344s84 345 271 345c86 0 144 -33 185 -80l-42 -62c-34 40 -73 68 -143 68c-129 0 -188 -131 -188 -262c0 -9 0 -17 1 -26c29 46 103 104 189 104c120 0 218 -71 218 -213c0 -116 -88 -218 -234 -218zM305 62c103 0 153 77 153 141
c0 98 -68 144 -154 144c-66 0 -130 -41 -167 -100c8 -83 52 -185 168 -185z" />
    <glyph glyph-name="seven" unicode="7" horiz-adv-x="515" 
d="M213 0h-92l269 593h-359v74h455v-57z" />
    <glyph glyph-name="eight" unicode="8" horiz-adv-x="581" 
d="M291 -12c-132 0 -239 67 -239 181c0 89 76 150 159 175c-77 22 -148 72 -148 160c0 120 117 173 228 173c110 0 229 -53 229 -173c0 -88 -72 -138 -149 -160c83 -25 159 -86 159 -175c0 -113 -108 -181 -239 -181zM291 378c41 7 145 34 145 115c0 69 -65 110 -145 110
c-81 0 -145 -41 -145 -110c0 -81 105 -108 145 -115zM291 62c82 0 155 44 155 116c0 87 -114 124 -155 129c-41 -5 -156 -42 -156 -129c0 -72 73 -116 156 -116z" />
    <glyph glyph-name="nine" unicode="9" horiz-adv-x="591" 
d="M269 -11c-85 0 -143 32 -185 80l42 62c34 -40 74 -68 143 -68c135 0 188 135 188 261c0 9 0 18 -1 27c-29 -46 -103 -104 -188 -104c-120 0 -219 71 -219 213c0 115 88 218 233 218c187 0 258 -163 258 -345c0 -180 -84 -344 -271 -344zM287 319c66 0 131 40 166 99
c-7 83 -51 186 -167 186c-102 0 -153 -78 -153 -141c0 -98 68 -144 154 -144z" />
    <glyph glyph-name="zero.tnum" unicode="&#xf639;" horiz-adv-x="598" 
d="M299 -12c-183 0 -255 183 -255 345c0 163 72 344 255 344c182 0 255 -181 255 -344c0 -162 -73 -345 -255 -345zM299 62c127 0 170 138 170 271s-43 270 -170 270s-170 -137 -170 -270s43 -271 170 -271z" />
    <glyph glyph-name="zero.tzero" unicode="&#xf638;" horiz-adv-x="598" 
d="M299 -12c-62 0 -111 21 -149 55l-27 -43h-65l54 86c-48 67 -68 160 -68 247c0 163 72 344 255 344c61 0 109 -21 147 -54l28 44h65l-54 -87c48 -67 69 -160 69 -247c0 -162 -73 -345 -255 -345zM299 62c127 0 170 138 170 271c0 61 -9 122 -31 171l-246 -394
c26 -30 61 -48 107 -48zM129 333c0 -61 9 -122 30 -171l246 394c-26 29 -61 47 -106 47c-127 0 -170 -137 -170 -270z" />
    <glyph glyph-name="one.tnum" unicode="&#xf6dc;" horiz-adv-x="598" 
d="M395 0h-83v557l-107 -113l-50 51l167 172h73v-667z" />
    <glyph glyph-name="two.tnum" unicode="&#xf63a;" horiz-adv-x="598" 
d="M527 0h-458v66c240 189 370 300 370 415c0 85 -70 122 -139 122c-80 0 -142 -34 -181 -84l-51 53c51 67 138 105 232 105c111 0 224 -63 224 -196c0 -136 -138 -260 -324 -407h327v-74z" />
    <glyph glyph-name="three.tnum" unicode="&#xf63b;" horiz-adv-x="598" 
d="M298 -12c-113 0 -196 50 -237 110l49 52c39 -52 107 -88 186 -88c97 0 156 48 156 125c0 83 -68 118 -166 118c-28 0 -59 0 -69 -1v76c11 -1 42 -1 69 -1c84 0 155 33 155 110c0 74 -68 114 -149 114c-73 0 -127 -28 -176 -81l-46 52c48 58 125 103 228 103
c128 0 226 -65 226 -178c0 -96 -81 -144 -144 -155c61 -5 154 -57 154 -164c0 -111 -89 -192 -236 -192z" />
    <glyph glyph-name="four.tnum" unicode="&#xf63c;" horiz-adv-x="598" 
d="M451 0h-83v169h-317v69l286 429h114v-425h94v-73h-94v-169zM368 242v348l-234 -348h234z" />
    <glyph glyph-name="five.tnum" unicode="&#xf63d;" horiz-adv-x="598" 
d="M304 -12c-113 0 -185 41 -235 107l51 55c44 -56 102 -88 184 -88c91 0 154 62 154 143c0 88 -63 144 -153 144c-59 0 -109 -19 -154 -63l-61 21v360h408v-74h-325v-232c32 32 89 60 156 60c111 0 212 -76 212 -213c0 -136 -103 -220 -237 -220z" />
    <glyph glyph-name="six.tnum" unicode="&#xf63e;" horiz-adv-x="598" 
d="M315 -12c-186 0 -257 163 -257 344s84 345 271 345c86 0 144 -33 185 -80l-42 -62c-34 40 -73 68 -143 68c-129 0 -188 -131 -188 -262c0 -9 0 -17 1 -26c29 46 103 104 189 104c120 0 218 -71 218 -213c0 -116 -88 -218 -234 -218zM312 62c103 0 153 77 153 141
c0 98 -68 144 -154 144c-66 0 -130 -41 -167 -100c8 -83 52 -185 168 -185z" />
    <glyph glyph-name="seven.tnum" unicode="&#xf63f;" horiz-adv-x="598" 
d="M254 0h-92l269 593h-359v74h455v-57z" />
    <glyph glyph-name="eight.tnum" unicode="&#xf640;" horiz-adv-x="598" 
d="M299 -12c-132 0 -239 67 -239 181c0 89 76 150 159 175c-77 22 -148 72 -148 160c0 120 117 173 228 173c110 0 229 -53 229 -173c0 -88 -72 -138 -149 -160c83 -25 159 -86 159 -175c0 -113 -108 -181 -239 -181zM299 378c41 7 145 34 145 115c0 69 -65 110 -145 110
c-81 0 -145 -41 -145 -110c0 -81 105 -108 145 -115zM299 62c82 0 155 44 155 116c0 87 -114 124 -155 129c-41 -5 -156 -42 -156 -129c0 -72 73 -116 156 -116z" />
    <glyph glyph-name="nine.tnum" unicode="&#xf641;" horiz-adv-x="598" 
d="M269 -11c-85 0 -143 32 -185 80l42 62c34 -40 74 -68 143 -68c135 0 188 135 188 261c0 9 0 18 -1 27c-29 -46 -103 -104 -188 -104c-120 0 -219 71 -219 213c0 115 88 218 233 218c187 0 258 -163 258 -345c0 -180 -84 -344 -271 -344zM287 319c66 0 131 40 166 99
c-7 83 -51 186 -167 186c-102 0 -153 -78 -153 -141c0 -98 68 -144 154 -144z" />
    <glyph glyph-name="zero.tonum" unicode="&#xf643;" horiz-adv-x="598" 
d="M554 275c0 -143 -77 -287 -255 -287s-255 144 -255 287c0 144 77 287 255 287s255 -143 255 -287zM469 275c0 107 -50 213 -170 213s-170 -106 -170 -213c0 -108 50 -213 170 -213s170 105 170 213z" />
    <glyph glyph-name="zero.tonumzero" horiz-adv-x="598" 
d="M554 275c0 -143 -77 -287 -255 -287c-62 0 -111 17 -150 45l-24 -33h-67l52 71c-45 54 -66 129 -66 204c0 144 77 287 255 287c58 0 106 -16 143 -41l22 29h66l-48 -65c49 -55 72 -132 72 -210zM469 275c0 51 -12 102 -37 142l-236 -320c26 -22 60 -35 103 -35
c120 0 170 105 170 213zM129 275c0 -49 10 -97 32 -135l234 317c-25 19 -57 31 -96 31c-120 0 -170 -106 -170 -213z" />
    <glyph glyph-name="one.tonum" unicode="&#xf644;" horiz-adv-x="598" 
d="M395 0h-83v440l-107 -113l-50 51l167 172h73v-550z" />
    <glyph glyph-name="two.tonum" unicode="&#xf645;" horiz-adv-x="598" 
d="M509 0h-431v67c247 101 358 208 358 304c0 69 -61 117 -136 117c-78 0 -146 -33 -186 -84l-51 53c51 67 145 105 239 105c124 0 218 -70 218 -180c0 -121 -127 -238 -289 -308h278v-74z" />
    <glyph glyph-name="three.tonum" unicode="&#xf646;" horiz-adv-x="598" 
d="M298 -131c-113 0 -196 50 -237 110l49 52c39 -52 107 -88 186 -88c97 0 156 48 156 125c0 83 -68 118 -166 118c-28 0 -59 0 -69 -1v76c11 -1 42 -1 69 -1c84 0 155 33 155 110c0 74 -68 114 -149 114c-73 0 -127 -28 -176 -81l-46 52c48 58 125 103 228 103
c128 0 226 -65 226 -178c0 -96 -81 -144 -144 -155c61 -5 154 -57 154 -164c0 -111 -89 -192 -236 -192z" />
    <glyph glyph-name="four.tonum" unicode="&#xf647;" horiz-adv-x="598" 
d="M545 55h-94v-172h-83v172h-317v69l286 426h114v-422h94v-73zM368 128v345l-234 -345h234z" />
    <glyph glyph-name="five.tonum" unicode="&#xf648;" horiz-adv-x="598" 
d="M304 -129c-113 0 -185 41 -235 107l51 55c44 -56 102 -88 184 -88c91 0 154 62 154 143c0 88 -63 144 -153 144c-59 0 -109 -19 -154 -63l-61 21v360h408v-74h-325v-232c32 32 89 60 156 60c111 0 212 -76 212 -213c0 -136 -103 -220 -237 -220z" />
    <glyph glyph-name="six.tonum" unicode="&#xf649;" horiz-adv-x="598" 
d="M315 -12c-186 0 -257 163 -257 344s84 345 271 345c86 0 144 -33 185 -80l-42 -62c-34 40 -73 68 -143 68c-129 0 -188 -131 -188 -262c0 -9 0 -17 1 -26c29 46 103 104 189 104c120 0 218 -71 218 -213c0 -116 -88 -218 -234 -218zM312 62c103 0 153 77 153 141
c0 98 -68 144 -154 144c-66 0 -130 -41 -167 -100c8 -83 52 -185 168 -185z" />
    <glyph glyph-name="seven.tonum" unicode="&#xf64a;" horiz-adv-x="598" 
d="M254 -117h-92l269 593h-359v74h455v-57z" />
    <glyph glyph-name="eight.tonum" unicode="&#xf64b;" horiz-adv-x="598" 
d="M299 -12c-132 0 -239 67 -239 181c0 89 76 150 159 175c-77 22 -148 72 -148 160c0 120 117 173 228 173c110 0 229 -53 229 -173c0 -88 -72 -138 -149 -160c83 -25 159 -86 159 -175c0 -113 -108 -181 -239 -181zM299 378c41 7 145 34 145 115c0 69 -65 110 -145 110
c-81 0 -145 -41 -145 -110c0 -81 105 -108 145 -115zM299 62c82 0 155 44 155 116c0 87 -114 124 -155 129c-41 -5 -156 -42 -156 -129c0 -72 73 -116 156 -116z" />
    <glyph glyph-name="nine.tonum" unicode="&#xf64c;" horiz-adv-x="598" 
d="M269 -127c-85 0 -143 32 -185 80l42 62c34 -40 74 -68 143 -68c135 0 188 135 188 261c0 9 0 18 -1 27c-29 -46 -103 -104 -188 -104c-120 0 -219 71 -219 213c0 115 88 218 233 218c187 0 258 -163 258 -345c0 -180 -84 -344 -271 -344zM287 203c66 0 131 40 166 99
c-7 83 -51 186 -167 186c-102 0 -153 -78 -153 -141c0 -98 68 -144 154 -144z" />
    <glyph glyph-name="zero.onum" unicode="&#xf730;" horiz-adv-x="612" 
d="M561 275c0 -143 -77 -287 -255 -287s-255 144 -255 287c0 144 77 287 255 287s255 -143 255 -287zM476 275c0 107 -50 213 -170 213s-170 -106 -170 -213c0 -108 50 -213 170 -213s170 105 170 213z" />
    <glyph glyph-name="zero.onumzero" horiz-adv-x="612" 
d="M561 275c0 -143 -77 -287 -255 -287c-62 0 -111 17 -150 45l-24 -33h-67l52 71c-45 54 -66 129 -66 204c0 144 77 287 255 287c58 0 106 -16 143 -41l22 29h66l-48 -65c49 -55 72 -132 72 -210zM476 275c0 51 -12 102 -37 142l-236 -320c26 -22 60 -35 103 -35
c120 0 170 105 170 213zM136 275c0 -49 10 -97 32 -135l234 317c-25 19 -57 31 -96 31c-120 0 -170 -106 -170 -213z" />
    <glyph glyph-name="one.onum" unicode="&#xf731;" horiz-adv-x="339" 
d="M261 0h-83v440l-107 -113l-50 51l167 172h73v-550z" />
    <glyph glyph-name="two.onum" unicode="&#xf732;" horiz-adv-x="578" 
d="M491 0h-431v67c247 101 358 208 358 304c0 69 -61 117 -136 117c-78 0 -146 -33 -186 -84l-51 53c51 67 145 105 239 105c124 0 218 -70 218 -180c0 -121 -127 -238 -289 -308h278v-74z" />
    <glyph glyph-name="three.onum" unicode="&#xf733;" horiz-adv-x="553" 
d="M262 -128c-113 0 -196 50 -237 110l49 52c39 -52 107 -88 186 -88c97 0 156 48 156 125c0 83 -68 118 -166 118c-28 0 -59 0 -69 -1v76c11 -1 42 -1 69 -1c84 0 155 33 155 110c0 74 -68 114 -149 114c-73 0 -127 -28 -176 -81l-46 52c48 58 125 103 228 103
c128 0 226 -65 226 -178c0 -96 -81 -144 -144 -155c61 -5 154 -57 154 -164c0 -111 -89 -192 -236 -192z" />
    <glyph glyph-name="four.onum" unicode="&#xf734;" horiz-adv-x="558" 
d="M526 55h-94v-172h-83v172h-317v69l286 426h114v-422h94v-73zM349 128v345l-234 -345h234z" />
    <glyph glyph-name="five.onum" unicode="&#xf735;" horiz-adv-x="590" 
d="M301 -129c-113 0 -185 41 -235 107l51 55c44 -56 102 -88 184 -88c91 0 154 62 154 143c0 88 -63 144 -153 144c-59 0 -109 -19 -154 -63l-61 21v360h408v-74h-325v-232c32 32 89 60 156 60c111 0 212 -76 212 -213c0 -136 -103 -220 -237 -220z" />
    <glyph glyph-name="six.onum" unicode="&#xf736;" horiz-adv-x="591" 
d="M308 -12c-186 0 -257 163 -257 344s84 345 271 345c86 0 144 -33 185 -80l-42 -62c-34 40 -73 68 -143 68c-129 0 -188 -131 -188 -262c0 -9 0 -17 1 -26c29 46 103 104 189 104c120 0 218 -71 218 -213c0 -116 -88 -218 -234 -218zM305 62c103 0 153 77 153 141
c0 98 -68 144 -154 144c-66 0 -130 -41 -167 -100c8 -83 52 -185 168 -185z" />
    <glyph glyph-name="seven.onum" unicode="&#xf737;" horiz-adv-x="515" 
d="M213 -117h-92l269 593h-359v74h455v-57z" />
    <glyph glyph-name="eight.onum" unicode="&#xf738;" horiz-adv-x="581" 
d="M291 -12c-132 0 -239 67 -239 181c0 89 76 150 159 175c-77 22 -148 72 -148 160c0 120 117 173 228 173c110 0 229 -53 229 -173c0 -88 -72 -138 -149 -160c83 -25 159 -86 159 -175c0 -113 -108 -181 -239 -181zM291 378c41 7 145 34 145 115c0 69 -65 110 -145 110
c-81 0 -145 -41 -145 -110c0 -81 105 -108 145 -115zM291 62c82 0 155 44 155 116c0 87 -114 124 -155 129c-41 -5 -156 -42 -156 -129c0 -72 73 -116 156 -116z" />
    <glyph glyph-name="nine.onum" unicode="&#xf739;" horiz-adv-x="591" 
d="M269 -127c-85 0 -143 32 -185 80l42 62c34 -40 74 -68 143 -68c135 0 188 135 188 261c0 9 0 18 -1 27c-29 -46 -103 -104 -188 -104c-120 0 -219 71 -219 213c0 115 88 218 233 218c187 0 258 -163 258 -345c0 -180 -84 -344 -271 -344zM287 203c66 0 131 40 166 99
c-7 83 -51 186 -167 186c-102 0 -153 -78 -153 -141c0 -98 68 -144 154 -144z" />
    <glyph glyph-name="A" unicode="A" horiz-adv-x="658" 
d="M649 0h-95l-59 148h-332l-59 -148h-95l268 667h103zM470 222l-141 359l-142 -359h283z" />
    <glyph glyph-name="B" unicode="B" horiz-adv-x="629" 
d="M382 0h-304v667h297c116 0 187 -70 187 -170c0 -84 -56 -140 -117 -153c71 -11 130 -84 130 -164c0 -107 -71 -180 -193 -180zM361 378c75 0 115 46 115 107c0 60 -40 108 -115 108h-200v-215h200zM365 74c78 0 124 44 124 115c0 61 -42 115 -124 115h-204v-230h204z" />
    <glyph glyph-name="C" unicode="C" horiz-adv-x="676" 
d="M394 -12c-192 0 -343 140 -343 345s151 345 343 345c118 0 200 -57 253 -132l-70 -39c-38 56 -107 97 -183 97c-146 0 -257 -112 -257 -271c0 -158 111 -271 257 -271c76 0 145 40 183 97l71 -39c-56 -76 -136 -132 -254 -132z" />
    <glyph glyph-name="D" unicode="D" horiz-adv-x="700" 
d="M306 0h-228v667h228c207 0 342 -145 342 -334c0 -190 -135 -333 -342 -333zM306 74c162 0 256 116 256 259c0 144 -91 260 -256 260h-145v-519h145z" />
    <glyph glyph-name="E" unicode="E" horiz-adv-x="569" 
d="M515 0h-437v667h437v-74h-354v-215h347v-74h-347v-230h354v-74z" />
    <glyph glyph-name="F" unicode="F" horiz-adv-x="550" 
d="M161 0h-83v667h437v-74h-354v-215h347v-74h-347v-304z" />
    <glyph glyph-name="G" unicode="G" horiz-adv-x="713" 
d="M394 -13c-190 0 -343 139 -343 346s153 345 343 345c118 0 200 -52 259 -125l-66 -41c-42 54 -113 92 -193 92c-146 0 -257 -112 -257 -271c0 -158 111 -272 257 -272c80 0 146 39 179 72v136h-229v74h312v-241c-62 -69 -153 -115 -262 -115z" />
    <glyph glyph-name="G.alt1" horiz-adv-x="730" 
d="M388 -13c-184 0 -337 139 -337 346s153 345 343 345c118 0 200 -52 259 -125l-66 -41c-42 54 -113 92 -193 92c-146 0 -257 -112 -257 -271c0 -158 111 -272 257 -272c137 0 208 98 224 208h-274v74h364c0 -209 -115 -356 -320 -356z" />
    <glyph glyph-name="H" unicode="H" horiz-adv-x="712" 
d="M634 0h-83v306h-390v-306h-83v667h83v-287h390v287h83v-667z" />
    <glyph glyph-name="I" unicode="I" horiz-adv-x="239" 
d="M161 0h-83v667h83v-667z" />
    <glyph glyph-name="J" unicode="J" horiz-adv-x="475" 
d="M185 -12c-71 0 -128 23 -174 77l43 63c29 -35 68 -66 126 -66c82 0 134 57 134 140v465h83v-466c0 -145 -93 -213 -212 -213z" />
    <glyph glyph-name="K" unicode="K" horiz-adv-x="601" 
d="M584 0h-103l-253 300l-67 -76v-224h-83v667h83v-345l295 345h104l-278 -317z" />
    <glyph glyph-name="L" unicode="L" horiz-adv-x="510" 
d="M471 0h-393v667h83v-593h310v-74z" />
    <glyph glyph-name="M" unicode="M" horiz-adv-x="809" 
d="M731 0h-83v549l-227 -549h-34l-226 549v-549h-83v667h119l207 -502l208 502h119v-667z" />
    <glyph glyph-name="N" unicode="N" horiz-adv-x="708" 
d="M630 0h-80l-389 532v-532h-83v667h85l384 -521v521h83v-667z" />
    <glyph glyph-name="O" unicode="O" horiz-adv-x="765" 
d="M382 -12c-198 0 -331 148 -331 345s133 345 331 345c197 0 331 -148 331 -345s-134 -345 -331 -345zM382 62c149 0 245 116 245 271c0 156 -96 271 -245 271c-150 0 -245 -115 -245 -271c0 -155 95 -271 245 -271z" />
    <glyph glyph-name="P" unicode="P" horiz-adv-x="587" 
d="M161 0h-83v667h268c134 0 209 -92 209 -201s-77 -201 -209 -201h-185v-265zM336 339c79 0 133 52 133 127s-54 127 -133 127h-175v-254h175z" />
    <glyph glyph-name="Q" unicode="Q" horiz-adv-x="765" 
d="M382 -12c-198 0 -331 148 -331 345s133 345 331 345c197 0 331 -148 331 -345c0 -99 -34 -185 -92 -246l64 -68l-58 -50l-65 69c-50 -32 -111 -50 -180 -50zM382 62c48 0 91 12 127 34l-95 103l58 49l94 -102c39 48 61 113 61 187c0 156 -96 271 -245 271
c-150 0 -245 -115 -245 -271c0 -155 95 -271 245 -271z" />
    <glyph glyph-name="R" unicode="R" horiz-adv-x="608" 
d="M562 0h-98l-170 265h-133v-265h-83v667h268c122 0 209 -78 209 -201c0 -120 -82 -186 -173 -194zM336 338c79 0 133 53 133 128s-54 127 -133 127h-175v-255h175z" />
    <glyph glyph-name="S" unicode="S" horiz-adv-x="586" 
d="M294 -12c-116 0 -201 44 -256 106l49 63c44 -49 116 -95 210 -95c119 0 157 64 157 115c0 172 -395 77 -395 315c0 110 98 185 229 185c102 0 181 -34 237 -93l-50 -61c-50 55 -120 80 -193 80c-80 0 -137 -43 -137 -106c0 -150 395 -64 395 -313
c0 -97 -66 -196 -246 -196z" />
    <glyph glyph-name="T" unicode="T" horiz-adv-x="570" 
d="M326 0h-83v593h-211v74h506v-74h-212v-593z" />
    <glyph glyph-name="U" unicode="U" horiz-adv-x="700" 
d="M350 -12c-181 0 -272 107 -272 271v408h83v-406c0 -122 66 -199 189 -199s189 77 189 199v406h83v-407c0 -166 -91 -272 -272 -272z" />
    <glyph glyph-name="V" unicode="V" horiz-adv-x="658" 
d="M380 0h-103l-268 667h95l225 -576l225 576h95z" />
    <glyph glyph-name="W" unicode="W" horiz-adv-x="883" 
d="M678 0h-90l-147 538l-147 -538h-90l-190 667h92l148 -556l153 556h69l153 -556l147 556h92z" />
    <glyph glyph-name="X" unicode="X" horiz-adv-x="652" 
d="M639 0h-100l-213 284l-213 -284h-101l260 342l-245 325h101l198 -267l197 267h101l-244 -324z" />
    <glyph glyph-name="Y" unicode="Y" horiz-adv-x="626" 
d="M355 0h-83v282l-263 385h97l207 -310l207 310h97l-262 -385v-282z" />
    <glyph glyph-name="Z" unicode="Z" horiz-adv-x="585" 
d="M536 0h-488v69l375 524h-375v74h481v-69l-375 -524h382v-74z" />
    <glyph glyph-name="a" unicode="a" horiz-adv-x="527" 
d="M452 0h-75v55c-40 -44 -95 -67 -160 -67c-82 0 -169 55 -169 160c0 108 87 159 169 159c66 0 121 -21 160 -66v87c0 65 -52 102 -122 102c-58 0 -105 -21 -148 -67l-35 52c52 54 114 80 193 80c102 0 187 -46 187 -163v-332zM244 42c53 0 104 20 133 60v91
c-29 40 -80 60 -133 60c-70 0 -119 -44 -119 -106c0 -61 49 -105 119 -105z" />
    <glyph glyph-name="a.alt1" horiz-adv-x="575" 
d="M500 0h-75v72c-36 -49 -95 -84 -163 -84c-126 0 -215 96 -215 253c0 154 88 254 215 254c65 0 124 -32 162 -85v73h76v-483zM280 55c60 0 118 34 145 76v219c-27 42 -85 78 -145 78c-97 0 -155 -80 -155 -187s58 -186 155 -186z" />
    <glyph glyph-name="b" unicode="b" horiz-adv-x="575" 
d="M150 131c26 -42 85 -76 144 -76c98 0 156 79 156 186s-58 187 -156 187c-59 0 -118 -36 -144 -78v-219zM150 0h-75v667h75v-257c39 53 97 85 163 85c126 0 215 -100 215 -254c0 -157 -89 -253 -215 -253c-68 0 -127 35 -163 84v-72z" />
    <glyph glyph-name="c" unicode="c" horiz-adv-x="495" 
d="M288 -12c-144 0 -241 110 -241 254c0 143 97 253 241 253c88 0 140 -36 177 -84l-50 -46c-32 44 -73 63 -123 63c-103 0 -167 -79 -167 -186s64 -187 167 -187c50 0 91 20 123 63l50 -46c-37 -48 -89 -84 -177 -84z" />
    <glyph glyph-name="d" unicode="d" horiz-adv-x="575" 
d="M500 0h-75v72c-36 -49 -95 -84 -163 -84c-126 0 -215 96 -215 253c0 154 88 254 215 254c65 0 124 -32 163 -85v257h75v-667zM280 55c60 0 118 34 145 76v219c-27 42 -85 78 -145 78c-97 0 -155 -80 -155 -187s58 -186 155 -186z" />
    <glyph glyph-name="e" unicode="e" horiz-adv-x="563" 
d="M293 -12c-143 0 -246 103 -246 254c0 140 100 253 238 253c146 0 232 -114 232 -259v-19h-391c6 -91 70 -167 174 -167c55 0 111 22 149 61l36 -49c-48 -48 -113 -74 -192 -74zM443 272c-1 72 -49 161 -159 161c-103 0 -154 -87 -158 -161h317z" />
    <glyph glyph-name="f" unicode="f" horiz-adv-x="283" 
d="M171 0h-75v417h-80v66h80v37c0 99 54 157 140 157c38 0 72 -9 102 -37l-31 -49c-16 14 -35 24 -60 24c-49 0 -76 -34 -76 -95v-37h98v-66h-98v-417z" />
    <glyph glyph-name="f.alt1" horiz-adv-x="283" 
d="M171 0h-75v417h-80v66h80v37c0 100 56 157 140 157c28 0 54 -5 73 -17l-19 -57c-11 7 -24 12 -43 12c-49 0 -76 -34 -76 -95v-37h98v-66h-98v-417z" />
    <glyph glyph-name="g" unicode="g" horiz-adv-x="574" 
d="M269 -196c-82 0 -138 16 -195 72l38 56c40 -48 88 -66 157 -66c80 0 155 39 155 145v69c-35 -49 -94 -86 -162 -86c-126 0 -215 94 -215 250c0 155 88 251 215 251c65 0 123 -32 162 -85v73h75v-469c0 -160 -112 -210 -230 -210zM280 60c60 0 118 37 144 79v211
c-26 42 -84 78 -144 78c-97 0 -155 -77 -155 -184c0 -106 58 -184 155 -184z" />
    <glyph glyph-name="h" unicode="h" horiz-adv-x="552" 
d="M477 0h-75v318c0 85 -44 110 -109 110c-58 0 -114 -36 -143 -75v-353h-75v667h75v-254c34 40 100 82 173 82c101 0 154 -49 154 -154v-341z" />
    <glyph glyph-name="i" unicode="i" horiz-adv-x="225" 
d="M112 552c-27 0 -50 22 -50 50s23 51 50 51c28 0 51 -23 51 -51s-23 -50 -51 -50zM150 0h-75v483h75v-483z" />
    <glyph glyph-name="j" unicode="j" horiz-adv-x="225" 
d="M112 552c-27 0 -50 22 -50 50s23 51 50 51c28 0 51 -23 51 -51s-23 -50 -51 -50zM7 -196c-49 0 -75 12 -106 36l27 57c17 -17 39 -31 69 -31c45 0 78 26 78 87v530h75v-530c0 -95 -51 -149 -143 -149z" />
    <glyph glyph-name="k" unicode="k" horiz-adv-x="514" 
d="M500 0h-96l-174 217l-80 -79v-138h-75v667h75v-441l254 257h95l-214 -219z" />
    <glyph glyph-name="l" unicode="l" horiz-adv-x="225" 
d="M150 0h-75v667h75v-667z" />
    <glyph glyph-name="l.alt1" horiz-adv-x="268" 
d="M182 -12c-71 0 -107 41 -107 113v566h75v-550c0 -36 16 -62 49 -62c21 0 40 9 50 20l22 -56c-19 -18 -45 -31 -89 -31z" />
    <glyph glyph-name="m" unicode="m" horiz-adv-x="808" 
d="M733 0h-75v328c0 61 -27 100 -89 100c-50 0 -103 -36 -128 -74v-354h-75v328c0 61 -26 100 -89 100c-49 0 -101 -36 -127 -75v-353h-75v483h75v-70c20 31 85 82 156 82c74 0 116 -40 130 -90c27 44 92 90 162 90c88 0 135 -49 135 -146v-349z" />
    <glyph glyph-name="n" unicode="n" horiz-adv-x="551" 
d="M476 0h-75v316c0 85 -43 112 -108 112c-59 0 -115 -36 -143 -75v-353h-75v483h75v-70c34 40 100 82 172 82c101 0 154 -51 154 -156v-339z" />
    <glyph glyph-name="o" unicode="o" 
d="M286 -12c-147 0 -239 114 -239 254s92 253 239 253s239 -113 239 -253s-92 -254 -239 -254zM286 55c103 0 160 88 160 187c0 98 -57 186 -160 186s-161 -88 -161 -186c0 -99 58 -187 161 -187z" />
    <glyph glyph-name="p" unicode="p" 
d="M313 -12c-66 0 -124 31 -163 85v-257h-75v667h75v-72c35 49 95 84 163 84c127 0 215 -96 215 -253c0 -156 -88 -254 -215 -254zM294 55c97 0 155 80 155 187s-58 186 -155 186c-59 0 -118 -35 -144 -77v-218c26 -42 85 -78 144 -78z" />
    <glyph glyph-name="q" unicode="q" 
d="M277 55c60 0 119 36 144 78v218c-25 42 -84 77 -144 77c-97 0 -154 -79 -154 -186s57 -187 154 -187zM259 -12c-127 0 -215 98 -215 254c0 157 88 253 215 253c68 0 128 -35 162 -84v72h75v-667h-75v257c-39 -54 -97 -85 -162 -85z" />
    <glyph glyph-name="r" unicode="r" horiz-adv-x="330" 
d="M150 0h-75v483h75v-78c39 51 95 88 161 88v-77c-9 2 -18 3 -30 3c-46 0 -109 -38 -131 -77v-342z" />
    <glyph glyph-name="s" unicode="s" horiz-adv-x="465" 
d="M228 -12c-79 0 -146 24 -195 76l39 54c32 -37 93 -69 159 -69c74 0 114 35 114 83c0 117 -299 45 -299 224c0 75 65 139 180 139c82 0 140 -31 179 -70l-35 -52c-29 35 -82 61 -144 61c-66 0 -107 -33 -107 -76c0 -106 299 -36 299 -224c0 -81 -65 -146 -190 -146z" />
    <glyph glyph-name="t" unicode="t" horiz-adv-x="294" 
d="M197 -12c-71 0 -107 41 -107 113v316h-80v66h80v132h75v-132h98v-66h-98v-300c0 -36 16 -62 49 -62c21 0 41 9 51 20l22 -56c-19 -18 -46 -31 -90 -31z" />
    <glyph glyph-name="u" unicode="u" horiz-adv-x="551" 
d="M476 0h-75v68c-37 -42 -100 -80 -172 -80c-101 0 -154 49 -154 154v341h75v-318c0 -85 43 -110 108 -110c59 0 115 34 143 73v355h75v-483z" />
    <glyph glyph-name="v" unicode="v" horiz-adv-x="490" 
d="M286 0h-82l-201 483h81l161 -396l160 396h82z" />
    <glyph glyph-name="w" unicode="w" horiz-adv-x="734" 
d="M568 0h-75l-126 388l-126 -388h-75l-154 483h78l118 -385l127 385h64l127 -385l118 385h78z" />
    <glyph glyph-name="x" unicode="x" horiz-adv-x="486" 
d="M475 0h-87l-145 198l-145 -198h-86l185 248l-175 235h87l134 -184l134 184h87l-175 -235z" />
    <glyph glyph-name="y" unicode="y" horiz-adv-x="490" 
d="M48 -189l12 68c11 -5 29 -8 41 -8c33 0 55 11 72 51l32 73l-202 488h81l161 -396l160 396h82l-242 -581c-29 -70 -78 -97 -142 -98c-16 0 -41 3 -55 7z" />
    <glyph glyph-name="y.alt1" horiz-adv-x="551" 
d="M255 -196c-81 0 -136 24 -185 72l38 56c36 -46 89 -66 147 -66c91 0 146 53 146 147v65c-37 -42 -100 -80 -172 -80c-101 0 -154 49 -154 154v331h75v-308c0 -86 43 -111 108 -111c59 0 115 34 143 73v346h75v-470c0 -144 -102 -209 -221 -209z" />
    <glyph glyph-name="z" unicode="z" horiz-adv-x="472" 
d="M420 0h-368v58l266 359h-266v66h364v-57l-268 -361h272v-65z" />
    <glyph glyph-name="A.smcp" unicode="&#xf761;" 
d="M239 550h94l232 -550h-87l-51 120h-282l-50 -120h-88zM403 189l-117 279l-117 -279h234z" />
    <glyph glyph-name="B.smcp" unicode="&#xf762;" horiz-adv-x="554" 
d="M340 0h-265v550h259c102 0 163 -58 163 -141c0 -66 -44 -111 -94 -125c60 -14 106 -72 106 -135c0 -89 -62 -149 -169 -149zM329 69c62 0 99 34 99 88c0 47 -34 90 -99 90h-176v-178h176zM324 316c61 0 93 36 93 82c0 50 -34 83 -93 83h-171v-165h171z" />
    <glyph glyph-name="C.smcp" unicode="&#xf763;" horiz-adv-x="582" 
d="M340 -12c-166 0 -293 118 -293 287c0 170 127 287 293 287c99 0 172 -47 219 -113l-63 -35c-33 48 -91 79 -156 79c-120 0 -213 -90 -213 -218c0 -126 93 -218 213 -218c65 0 125 32 156 79l64 -35c-49 -67 -121 -113 -220 -113z" />
    <glyph glyph-name="D.smcp" unicode="&#xf764;" horiz-adv-x="615" 
d="M275 0h-200v550h199c181 0 294 -120 294 -276s-113 -274 -293 -274zM274 69c138 0 213 91 213 205s-73 207 -212 207h-122v-412h121z" />
    <glyph glyph-name="E.smcp" unicode="&#xf765;" horiz-adv-x="509" 
d="M457 0h-382v550h382v-69h-304v-165h299v-69h-299v-178h304v-69z" />
    <glyph glyph-name="F.smcp" unicode="&#xf766;" horiz-adv-x="491" 
d="M153 0h-78v550h382v-69h-304v-165h299v-69h-299v-247z" />
    <glyph glyph-name="G.smcp" unicode="&#xf767;" horiz-adv-x="626" 
d="M341 -12c-165 0 -294 116 -294 287s129 287 294 287c97 0 170 -42 221 -101l-61 -41c-36 43 -94 72 -160 72c-121 0 -213 -90 -213 -217c0 -126 92 -219 213 -219c67 0 119 31 147 58v107h-170v66h248v-203c-54 -58 -133 -96 -225 -96z" />
    <glyph glyph-name="G.smcp.alt1" horiz-adv-x="642" 
d="M338 -12c-162 0 -291 116 -291 287s129 287 294 287c97 0 170 -42 221 -101l-61 -41c-36 43 -94 73 -160 73c-121 0 -213 -91 -213 -218c0 -126 92 -219 213 -219c93 0 170 61 184 165h-207v66h290c0 -182 -107 -299 -270 -299z" />
    <glyph glyph-name="H.smcp" unicode="&#xf768;" horiz-adv-x="635" 
d="M560 0h-78v248h-329v-248h-78v550h78v-233h329v233h78v-550z" />
    <glyph glyph-name="I.smcp" unicode="&#xf769;" horiz-adv-x="229" 
d="M153 0h-78v550h78v-550z" />
    <glyph glyph-name="J.smcp" unicode="&#xf76a;" horiz-adv-x="422" 
d="M157 -12c-60 0 -111 22 -149 68l38 57c24 -31 59 -56 107 -56c70 0 115 46 115 113v380h78v-386c0 -120 -81 -176 -189 -176z" />
    <glyph glyph-name="K.smcp" unicode="&#xf76b;" horiz-adv-x="534" 
d="M520 0h-97l-216 243l-54 -58v-185h-78v550h78v-275l249 275h97l-242 -261z" />
    <glyph glyph-name="L.smcp" unicode="&#xf76c;" horiz-adv-x="458" 
d="M420 0h-345v550h78v-481h267v-69z" />
    <glyph glyph-name="M.smcp" unicode="&#xf76d;" horiz-adv-x="719" 
d="M644 0h-79v432l-188 -432h-34l-190 432v-432h-78v550h107l177 -407l177 407h108v-550z" />
    <glyph glyph-name="N.smcp" unicode="&#xf76e;" horiz-adv-x="632" 
d="M557 0h-79l-325 428v-428h-78v550h82l321 -420v420h79v-550z" />
    <glyph glyph-name="O.smcp" unicode="&#xf76f;" horiz-adv-x="662" 
d="M331 -12c-172 0 -284 125 -284 287s112 287 284 287c170 0 284 -125 284 -287s-114 -287 -284 -287zM331 57c123 0 204 94 204 218c0 125 -81 218 -204 218c-125 0 -204 -93 -204 -218c0 -124 79 -218 204 -218z" />
    <glyph glyph-name="P.smcp" unicode="&#xf770;" horiz-adv-x="522" 
d="M153 0h-78v550h236c119 0 181 -78 181 -168c0 -91 -60 -169 -181 -169h-158v-213zM304 282c72 0 107 42 107 100c0 57 -37 99 -107 99h-151v-199h151z" />
    <glyph glyph-name="Q.smcp" unicode="&#xf771;" horiz-adv-x="662" 
d="M331 -12c-172 0 -284 125 -284 287s112 287 284 287c170 0 284 -125 284 -287c0 -82 -29 -155 -80 -206l51 -57l-49 -41l-53 58c-43 -26 -95 -41 -153 -41zM331 57c39 0 74 9 104 26l-76 84l49 42l76 -84c32 38 51 91 51 150c0 125 -81 218 -204 218
c-125 0 -204 -93 -204 -218c0 -124 79 -218 204 -218z" />
    <glyph glyph-name="R.smcp" unicode="&#xf772;" horiz-adv-x="545" 
d="M500 0h-92l-144 213h-111v-213h-78v550h236c116 0 181 -74 181 -168c0 -95 -62 -156 -148 -163zM304 282c72 0 108 42 108 100s-39 99 -108 99h-151v-199h151z" />
    <glyph glyph-name="S.smcp" unicode="&#xf773;" horiz-adv-x="504" 
d="M252 -12c-98 0 -175 36 -220 86l42 59c37 -40 102 -78 179 -78c97 0 135 46 135 95c0 139 -338 56 -338 255c0 92 86 157 199 157c89 0 158 -30 206 -79l-41 -55c-42 45 -105 66 -166 66c-68 0 -118 -36 -118 -87c0 -119 338 -46 338 -254c0 -93 -69 -165 -216 -165z" />
    <glyph glyph-name="T.smcp" unicode="&#xf774;" horiz-adv-x="472" 
d="M274 0h-78v481h-170v69h419v-69h-171v-481z" />
    <glyph glyph-name="U.smcp" unicode="&#xf775;" horiz-adv-x="623" 
d="M311 -12c-157 0 -236 89 -236 224v338h79v-333c0 -98 55 -160 157 -160s158 62 158 160v333h79v-338c0 -136 -80 -224 -237 -224z" />
    <glyph glyph-name="V.smcp" unicode="&#xf776;" 
d="M333 0h-94l-232 550h89l190 -463l192 463h87z" />
    <glyph glyph-name="W.smcp" unicode="&#xf777;" horiz-adv-x="764" 
d="M588 0h-82l-125 431l-124 -431h-82l-165 550h87l123 -443l129 443h66l128 -444l124 444h86z" />
    <glyph glyph-name="X.smcp" unicode="&#xf778;" horiz-adv-x="567" 
d="M558 0h-94l-181 229l-181 -229h-93l224 282l-212 268h94l168 -215l168 215h94l-212 -267z" />
    <glyph glyph-name="Y.smcp" unicode="&#xf779;" horiz-adv-x="547" 
d="M314 0h-78v233l-229 317h91l177 -250l174 250h91l-226 -317v-233z" />
    <glyph glyph-name="Z.smcp" unicode="&#xf77a;" horiz-adv-x="516" 
d="M477 0h-438v59l326 422h-326v69h431v-59l-325 -422h332v-69z" />
    <glyph glyph-name="Aacute" unicode="&#xc1;" horiz-adv-x="658" 
d="M649 0h-95l-59 148h-332l-59 -148h-95l268 667h103zM470 222l-141 359l-142 -359h283zM498 867l-169 -144h-57l148 144h78z" />
    <glyph glyph-name="Abreve" unicode="&#x102;" horiz-adv-x="658" 
d="M649 0h-95l-59 148h-332l-59 -148h-95l268 667h103zM470 222l-141 359l-142 -359h283zM504 793c-40 -54 -103 -88 -175 -88c-71 0 -135 34 -176 88l37 32c32 -44 80 -72 139 -72c58 0 107 27 138 72z" />
    <glyph glyph-name="Acircumflex" unicode="&#xc2;" horiz-adv-x="658" 
d="M463 723h-51l-83 106l-80 -106h-51l95 144h72zM649 0h-95l-59 148h-332l-59 -148h-95l268 667h103zM470 222l-141 359l-142 -359h283z" />
    <glyph glyph-name="Adieresis" unicode="&#xc4;" horiz-adv-x="658" 
d="M480 771c0 -26 -22 -47 -47 -47s-47 21 -47 47c0 25 22 46 47 46s47 -21 47 -46zM273 771c0 -26 -21 -47 -46 -47c-26 0 -47 21 -47 47c0 25 21 46 47 46c25 0 46 -21 46 -46zM649 0h-95l-59 148h-332l-59 -148h-95l268 667h103zM470 222l-141 359l-142 -359h283z" />
    <glyph glyph-name="Agrave" unicode="&#xc0;" horiz-adv-x="658" 
d="M649 0h-95l-59 148h-332l-59 -148h-95l268 667h103zM470 222l-141 359l-142 -359h283zM386 723h-57l-169 144h78z" />
    <glyph glyph-name="Amacron" unicode="&#x100;" horiz-adv-x="658" 
d="M649 0h-95l-59 148h-332l-59 -148h-95l268 667h103zM470 222l-141 359l-142 -359h283zM510 739h-363v48h363v-48z" />
    <glyph glyph-name="Aogonek" unicode="&#x104;" horiz-adv-x="658" 
d="M669 -105l37 -21c-14 -32 -41 -60 -89 -60c-47 0 -89 26 -89 87c0 38 20 73 53 99h-27l-59 148h-332l-59 -148h-95l268 667h103l269 -667c-48 -24 -76 -55 -76 -97c0 -34 18 -50 44 -50c28 0 43 15 52 42zM470 222l-141 359l-142 -359h283z" />
    <glyph glyph-name="Aring" unicode="&#xc5;" horiz-adv-x="658" 
d="M649 0h-95l-59 148h-332l-59 -148h-95l268 667h103zM470 222l-141 359l-142 -359h283zM329 690c-54 0 -98 44 -98 98s44 99 98 99s98 -45 98 -99s-44 -98 -98 -98zM329 729c33 0 58 27 58 59c0 33 -25 59 -58 59c-32 0 -58 -26 -58 -59c0 -32 26 -59 58 -59z" />
    <glyph glyph-name="Atilde" unicode="&#xc3;" horiz-adv-x="658" 
d="M649 0h-95l-59 148h-332l-59 -148h-95l268 667h103zM470 222l-141 359l-142 -359h283zM389 721c-73 0 -75 92 -123 92c-27 0 -48 -26 -48 -86h-45c0 78 34 134 97 134c72 0 75 -92 123 -92c27 0 48 26 48 86h45c0 -78 -34 -134 -97 -134z" />
    <glyph glyph-name="uni1EA0" unicode="&#x1ea0;" horiz-adv-x="658" 
d="M649 0h-95l-59 148h-332l-59 -148h-95l268 667h103zM470 222l-141 359l-142 -359h283zM329 -184c-25 0 -47 21 -47 47s22 47 47 47c26 0 46 -21 46 -47s-20 -47 -46 -47z" />
    <glyph glyph-name="uni1EA2" unicode="&#x1ea2;" horiz-adv-x="658" 
d="M649 0h-95l-59 148h-332l-59 -148h-95l268 667h103zM470 222l-141 359l-142 -359h283zM289 756l-33 9c10 31 35 55 73 55s72 -21 72 -69c0 -22 -6 -36 -19 -54h-40c17 17 23 35 23 52c0 26 -14 39 -36 39c-20 0 -33 -12 -40 -32z" />
    <glyph glyph-name="uni1EA4" unicode="&#x1ea4;" horiz-adv-x="658" 
d="M463 682h-51l-83 79l-80 -79h-51l95 108h72zM649 0h-95l-59 148h-332l-59 -148h-95l268 667h103zM470 222l-141 359l-142 -359h283zM657 844l-169 -108h-57l148 108h78z" />
    <glyph glyph-name="uni1EAC" unicode="&#x1eac;" horiz-adv-x="658" 
d="M649 0h-95l-59 148h-332l-59 -148h-95l268 667h103zM470 222l-141 359l-142 -359h283zM462 723h-51l-83 106l-80 -106h-51l95 144h72zM329 -184c-25 0 -47 21 -47 47s22 47 47 47c26 0 46 -21 46 -47s-20 -47 -46 -47z" />
    <glyph glyph-name="uni1EA6" unicode="&#x1ea6;" horiz-adv-x="658" 
d="M463 682h-51l-83 79l-80 -79h-51l95 108h72zM649 0h-95l-59 148h-332l-59 -148h-95l268 667h103zM470 222l-141 359l-142 -359h283zM229 736h-57l-169 108h78z" />
    <glyph glyph-name="uni1EA8" unicode="&#x1ea8;" horiz-adv-x="658" 
d="M463 682h-51l-83 79l-80 -79h-51l95 108h72zM649 0h-95l-59 148h-332l-59 -148h-95l268 667h103zM470 222l-141 359l-142 -359h283zM428 788l-33 7c10 23 35 41 73 41s72 -15 72 -51c0 -17 -6 -27 -19 -41h-40c17 13 23 26 23 39c0 20 -14 29 -36 29
c-20 0 -33 -9 -40 -24z" />
    <glyph glyph-name="uni1EAE" unicode="&#x1eae;" horiz-adv-x="658" 
d="M649 0h-95l-59 148h-332l-59 -148h-95l268 667h103zM470 222l-141 359l-142 -359h283zM497 839l-169 -98h-57l148 98h78zM504 760c-40 -46 -103 -75 -175 -75c-71 0 -135 29 -176 75l37 27c32 -37 80 -61 139 -61c58 0 107 23 138 61z" />
    <glyph glyph-name="uni1EAA" unicode="&#x1eaa;" horiz-adv-x="658" 
d="M463 678h-51l-83 53l-80 -53h-51l95 72h72zM649 0h-95l-59 148h-332l-59 -148h-95l268 667h103zM470 222l-141 359l-142 -359h283zM388 757c-73 0 -75 46 -123 46c-27 0 -48 -13 -48 -43h-45c0 39 34 67 97 67c72 0 75 -46 123 -46c27 0 48 13 48 43h45
c0 -39 -34 -67 -97 -67z" />
    <glyph glyph-name="uni1EB0" unicode="&#x1eb0;" horiz-adv-x="658" 
d="M649 0h-95l-59 148h-332l-59 -148h-95l268 667h103zM470 222l-141 359l-142 -359h283zM388 741h-57l-169 98h78zM504 757c-40 -46 -103 -75 -175 -75c-71 0 -135 29 -176 75l37 27c32 -37 80 -61 139 -61c58 0 107 23 138 61z" />
    <glyph glyph-name="uni1EB2" unicode="&#x1eb2;" horiz-adv-x="658" 
d="M649 0h-95l-59 148h-332l-59 -148h-95l268 667h103zM470 222l-141 359l-142 -359h283zM289 784l-33 6c10 21 35 37 73 37s72 -14 72 -46c0 -15 -6 -25 -19 -37h-40c17 12 23 24 23 35c0 18 -14 27 -36 27c-20 0 -33 -8 -40 -22zM504 759c-40 -46 -103 -75 -175 -75
c-71 0 -135 29 -176 75l37 27c32 -37 80 -61 139 -61c58 0 107 23 138 61z" />
    <glyph glyph-name="uni1EB4" unicode="&#x1eb4;" horiz-adv-x="658" 
d="M649 0h-95l-59 148h-332l-59 -148h-95l268 667h103zM470 222l-141 359l-142 -359h283zM505 733c-40 -33 -103 -54 -175 -54c-71 0 -135 21 -176 54l37 20c32 -27 80 -44 139 -44c58 0 107 16 138 44zM388 757c-73 0 -75 46 -123 46c-27 0 -48 -13 -48 -43h-45
c0 39 34 67 97 67c72 0 75 -46 123 -46c27 0 48 13 48 43h45c0 -39 -34 -67 -97 -67z" />
    <glyph glyph-name="uni1EB6" unicode="&#x1eb6;" horiz-adv-x="658" 
d="M649 0h-95l-59 148h-332l-59 -148h-95l268 667h103zM470 222l-141 359l-142 -359h283zM329 -184c-25 0 -47 21 -47 47s22 47 47 47c26 0 46 -21 46 -47s-20 -47 -46 -47zM504 793c-40 -54 -103 -88 -175 -88c-71 0 -135 34 -176 88l37 32c32 -44 80 -72 139 -72
c58 0 107 27 138 72z" />
    <glyph glyph-name="AE" unicode="&#xc6;" horiz-adv-x="947" 
d="M893 0h-437v148h-263l-91 -148h-95l416 667h470v-74h-354v-215h347v-74h-347v-230h354v-74zM456 222v359l-222 -359h222z" />
    <glyph glyph-name="AEacute" unicode="&#x1fc;" horiz-adv-x="947" 
d="M668 867l-169 -144h-57l148 144h78zM893 0h-437v148h-263l-91 -148h-95l416 667h470v-74h-354v-215h347v-74h-347v-230h354v-74zM456 222v359l-222 -359h222z" />
    <glyph glyph-name="uni1E02" unicode="&#x1e02;" horiz-adv-x="629" 
d="M382 0h-304v667h297c116 0 187 -70 187 -170c0 -84 -56 -140 -117 -153c71 -11 130 -84 130 -164c0 -107 -71 -180 -193 -180zM361 378c75 0 115 46 115 107c0 60 -40 108 -115 108h-200v-215h200zM365 74c78 0 124 44 124 115c0 61 -42 115 -124 115h-204v-230h204z
M314 722c-25 0 -47 21 -47 47s22 47 47 47c26 0 46 -21 46 -47s-20 -47 -46 -47z" />
    <glyph glyph-name="Cacute" unicode="&#x106;" horiz-adv-x="676" 
d="M563 867l-169 -144h-57l148 144h78zM394 -12c-192 0 -343 140 -343 345s151 345 343 345c118 0 200 -57 253 -132l-70 -39c-38 56 -107 97 -183 97c-146 0 -257 -112 -257 -271c0 -158 111 -271 257 -271c76 0 145 40 183 97l71 -39c-56 -76 -136 -132 -254 -132z" />
    <glyph glyph-name="Ccedilla" unicode="&#xc7;" horiz-adv-x="676" 
d="M388 -187c-43 0 -81 14 -101 30l19 38c24 -20 53 -29 80 -29c32 0 61 15 61 42c0 21 -12 35 -37 35c-14 0 -29 -7 -38 -17l-33 19l21 59c-176 15 -309 150 -309 343c0 205 151 345 343 345c118 0 200 -57 253 -132l-70 -39c-38 56 -107 97 -183 97
c-146 0 -257 -112 -257 -271c0 -158 111 -271 257 -271c76 0 145 40 183 97l71 -39c-55 -74 -131 -129 -244 -132l-15 -39c10 7 24 11 37 11c38 0 66 -26 66 -67c0 -49 -47 -80 -104 -80z" />
    <glyph glyph-name="Ccircumflex" unicode="&#x108;" horiz-adv-x="676" 
d="M526 723h-51l-83 106l-80 -106h-51l95 144h72zM394 -12c-192 0 -343 140 -343 345s151 345 343 345c118 0 200 -57 253 -132l-70 -39c-38 56 -107 97 -183 97c-146 0 -257 -112 -257 -271c0 -158 111 -271 257 -271c76 0 145 40 183 97l71 -39
c-56 -76 -136 -132 -254 -132z" />
    <glyph glyph-name="Cdotaccent" unicode="&#x10a;" horiz-adv-x="676" 
d="M394 -12c-192 0 -343 140 -343 345s151 345 343 345c118 0 200 -57 253 -132l-70 -39c-38 56 -107 97 -183 97c-146 0 -257 -112 -257 -271c0 -158 111 -271 257 -271c76 0 145 40 183 97l71 -39c-56 -76 -136 -132 -254 -132zM396 722c-25 0 -47 21 -47 47s22 47 47 47
c26 0 46 -21 46 -47s-20 -47 -46 -47z" />
    <glyph glyph-name="Ccaron" unicode="&#x10c;" horiz-adv-x="676" 
d="M431 723h-72l-98 144h51l83 -106l80 106h51zM394 -12c-192 0 -343 140 -343 345s151 345 343 345c118 0 200 -57 253 -132l-70 -39c-38 56 -107 97 -183 97c-146 0 -257 -112 -257 -271c0 -158 111 -271 257 -271c76 0 145 40 183 97l71 -39c-56 -76 -136 -132 -254 -132
z" />
    <glyph glyph-name="Dcaron" unicode="&#x10e;" horiz-adv-x="700" 
d="M389 723h-72l-98 144h51l83 -106l80 106h51zM306 0h-228v667h228c207 0 342 -145 342 -334c0 -190 -135 -333 -342 -333zM306 74c162 0 256 116 256 259c0 144 -91 260 -256 260h-145v-519h145z" />
    <glyph glyph-name="Dcroat" unicode="&#x110;" horiz-adv-x="728" 
d="M334 0h-228v299h-96v61h96v307h228c207 0 342 -145 342 -334c0 -190 -135 -333 -342 -333zM334 74c162 0 256 116 256 259c0 144 -91 260 -256 260h-145v-233h169v-61h-169v-225h145z" />
    <glyph glyph-name="uni1E0A" unicode="&#x1e0a;" horiz-adv-x="700" 
d="M306 0h-228v667h228c207 0 342 -145 342 -334c0 -190 -135 -333 -342 -333zM306 74c162 0 256 116 256 259c0 144 -91 260 -256 260h-145v-519h145zM350 722c-25 0 -47 21 -47 47s22 47 47 47c26 0 46 -21 46 -47s-20 -47 -46 -47z" />
    <glyph glyph-name="Eacute" unicode="&#xc9;" horiz-adv-x="569" 
d="M465 867l-169 -144h-57l148 144h78zM515 0h-437v667h437v-74h-354v-215h347v-74h-347v-230h354v-74z" />
    <glyph glyph-name="Ebreve" unicode="&#x114;" horiz-adv-x="569" 
d="M515 0h-437v667h437v-74h-354v-215h347v-74h-347v-230h354v-74zM473 793c-40 -54 -103 -88 -175 -88c-71 0 -135 34 -176 88l37 32c32 -44 80 -72 139 -72c58 0 107 27 138 72z" />
    <glyph glyph-name="Ecircumflex" unicode="&#xca;" horiz-adv-x="569" 
d="M428 723h-51l-83 106l-80 -106h-51l95 144h72zM515 0h-437v667h437v-74h-354v-215h347v-74h-347v-230h354v-74z" />
    <glyph glyph-name="Edieresis" unicode="&#xcb;" horiz-adv-x="569" 
d="M446 771c0 -26 -22 -47 -47 -47s-47 21 -47 47c0 25 22 46 47 46s47 -21 47 -46zM239 771c0 -26 -21 -47 -46 -47c-26 0 -47 21 -47 47c0 25 21 46 47 46c25 0 46 -21 46 -46zM515 0h-437v667h437v-74h-354v-215h347v-74h-347v-230h354v-74z" />
    <glyph glyph-name="Edotaccent" unicode="&#x116;" horiz-adv-x="569" 
d="M515 0h-437v667h437v-74h-354v-215h347v-74h-347v-230h354v-74zM300 722c-25 0 -47 21 -47 47s22 47 47 47c26 0 46 -21 46 -47s-20 -47 -46 -47z" />
    <glyph glyph-name="Egrave" unicode="&#xc8;" horiz-adv-x="569" 
d="M515 0h-437v667h437v-74h-354v-215h347v-74h-347v-230h354v-74zM353 723h-57l-169 144h78z" />
    <glyph glyph-name="Emacron" unicode="&#x112;" horiz-adv-x="569" 
d="M515 0h-437v667h437v-74h-354v-215h347v-74h-347v-230h354v-74zM477 739h-363v48h363v-48z" />
    <glyph glyph-name="Eogonek" unicode="&#x118;" horiz-adv-x="569" 
d="M515 0c-48 -24 -76 -55 -76 -97c0 -34 18 -50 44 -50c28 0 43 15 52 42l37 -21c-14 -32 -41 -60 -89 -60c-47 0 -89 26 -89 87c0 38 20 73 53 99h-369v667h437v-74h-354v-215h347v-74h-347v-230h354v-74z" />
    <glyph glyph-name="Ecaron" unicode="&#x11a;" horiz-adv-x="569" 
d="M335 723h-72l-98 144h51l83 -106l80 106h51zM515 0h-437v667h437v-74h-354v-215h347v-74h-347v-230h354v-74z" />
    <glyph glyph-name="uni1EB8" unicode="&#x1eb8;" horiz-adv-x="569" 
d="M515 0h-437v667h437v-74h-354v-215h347v-74h-347v-230h354v-74zM300 -184c-25 0 -47 21 -47 47s22 47 47 47c26 0 46 -21 46 -47s-20 -47 -46 -47z" />
    <glyph glyph-name="uni1EBA" unicode="&#x1eba;" horiz-adv-x="569" 
d="M515 0h-437v667h437v-74h-354v-215h347v-74h-347v-230h354v-74zM252 756l-33 9c10 31 35 55 73 55s72 -21 72 -69c0 -22 -6 -36 -19 -54h-40c17 17 23 35 23 52c0 26 -14 39 -36 39c-20 0 -33 -12 -40 -32z" />
    <glyph glyph-name="uni1EBC" unicode="&#x1ebc;" horiz-adv-x="569" 
d="M515 0h-437v667h437v-74h-354v-215h347v-74h-347v-230h354v-74zM357 721c-73 0 -75 92 -123 92c-27 0 -48 -26 -48 -86h-45c0 78 34 134 97 134c72 0 75 -92 123 -92c27 0 48 26 48 86h45c0 -78 -34 -134 -97 -134z" />
    <glyph glyph-name="uni1EBE" unicode="&#x1ebe;" horiz-adv-x="569" 
d="M434 682h-51l-83 79l-80 -79h-51l95 108h72zM628 844l-169 -108h-57l148 108h78zM515 0h-437v667h437v-74h-354v-215h347v-74h-347v-230h354v-74z" />
    <glyph glyph-name="uni1EC0" unicode="&#x1ec0;" horiz-adv-x="569" 
d="M433 682h-51l-83 79l-80 -79h-51l95 108h72zM515 0h-437v667h437v-74h-354v-215h347v-74h-347v-230h354v-74zM199 736h-57l-169 108h78z" />
    <glyph glyph-name="uni1EC2" unicode="&#x1ec2;" horiz-adv-x="569" 
d="M434 682h-51l-83 79l-80 -79h-51l95 108h72zM515 0h-437v667h437v-74h-354v-215h347v-74h-347v-230h354v-74zM399 788l-33 7c10 23 35 41 73 41s72 -15 72 -51c0 -17 -6 -27 -19 -41h-40c17 13 23 26 23 39c0 20 -14 29 -36 29c-20 0 -33 -9 -40 -24z" />
    <glyph glyph-name="uni1EC4" unicode="&#x1ec4;" horiz-adv-x="569" 
d="M434 678h-51l-83 53l-80 -53h-51l95 72h72zM515 0h-437v667h437v-74h-354v-215h347v-74h-347v-230h354v-74zM359 757c-73 0 -75 46 -123 46c-27 0 -48 -13 -48 -43h-45c0 39 34 67 97 67c72 0 75 -46 123 -46c27 0 48 13 48 43h45c0 -39 -34 -67 -97 -67z" />
    <glyph glyph-name="uni1EC6" unicode="&#x1ec6;" horiz-adv-x="569" 
d="M428 723h-51l-83 106l-80 -106h-51l95 144h72zM515 0h-437v667h437v-74h-354v-215h347v-74h-347v-230h354v-74zM300 -184c-25 0 -47 21 -47 47s22 47 47 47c26 0 46 -21 46 -47s-20 -47 -46 -47z" />
    <glyph glyph-name="uni1E1E" unicode="&#x1e1e;" horiz-adv-x="550" 
d="M297 722c-25 0 -47 21 -47 47s22 47 47 47c26 0 46 -21 46 -47s-20 -47 -46 -47zM161 0h-83v667h437v-74h-354v-215h347v-74h-347v-304z" />
    <glyph glyph-name="Gcircumflex" unicode="&#x11c;" horiz-adv-x="713" 
d="M531 723h-51l-83 106l-80 -106h-51l95 144h72zM394 -13c-190 0 -343 139 -343 346s153 345 343 345c118 0 200 -52 259 -125l-66 -41c-42 54 -113 92 -193 92c-146 0 -257 -112 -257 -271c0 -158 111 -272 257 -272c80 0 146 39 179 72v136h-229v74h312v-241
c-62 -69 -153 -115 -262 -115z" />
    <glyph glyph-name="Gbreve" unicode="&#x11e;" horiz-adv-x="713" 
d="M394 -13c-190 0 -343 139 -343 346s153 345 343 345c118 0 200 -52 259 -125l-66 -41c-42 54 -113 92 -193 92c-146 0 -257 -112 -257 -271c0 -158 111 -272 257 -272c80 0 146 39 179 72v136h-229v74h312v-241c-62 -69 -153 -115 -262 -115zM572 793
c-40 -54 -103 -88 -175 -88c-71 0 -135 34 -176 88l37 32c32 -44 80 -72 139 -72c58 0 107 27 138 72z" />
    <glyph glyph-name="Gdotaccent" unicode="&#x120;" horiz-adv-x="713" 
d="M394 -13c-190 0 -343 139 -343 346s153 345 343 345c118 0 200 -52 259 -125l-66 -41c-42 54 -113 92 -193 92c-146 0 -257 -112 -257 -271c0 -158 111 -272 257 -272c80 0 146 39 179 72v136h-229v74h312v-241c-62 -69 -153 -115 -262 -115zM396 722
c-25 0 -47 21 -47 47s22 47 47 47c26 0 46 -21 46 -47s-20 -47 -46 -47z" />
    <glyph glyph-name="Gcommaaccent" unicode="&#x122;" horiz-adv-x="713" 
d="M448 -138c0 -54 -32 -105 -71 -134l-33 26c30 20 55 57 58 86c-1 -1 -8 -2 -11 -2c-24 0 -42 19 -42 44c0 26 20 47 46 47c28 0 53 -24 53 -67zM394 -13c-190 0 -343 139 -343 346s153 345 343 345c118 0 200 -52 259 -125l-66 -41c-42 54 -113 92 -193 92
c-146 0 -257 -112 -257 -271c0 -158 111 -272 257 -272c80 0 146 39 179 72v136h-229v74h312v-241c-62 -69 -153 -115 -262 -115z" />
    <glyph glyph-name="Gbreve.alt1" horiz-adv-x="742" 
d="M572 793c-40 -54 -103 -88 -175 -88c-71 0 -135 34 -176 88l37 32c32 -44 80 -72 139 -72c58 0 107 27 138 72zM388 -13c-184 0 -337 139 -337 346s153 345 343 345c118 0 200 -52 259 -125l-66 -41c-42 54 -113 92 -193 92c-146 0 -257 -112 -257 -271
c0 -158 111 -272 257 -272c137 0 208 98 224 208h-274v74h364c0 -209 -115 -356 -320 -356z" />
    <glyph glyph-name="Gcommaaccent.alt1" horiz-adv-x="742" 
d="M448 -138c0 -54 -32 -105 -71 -134l-33 26c30 20 55 57 58 86c-1 -1 -8 -2 -11 -2c-24 0 -42 19 -42 44c0 26 20 47 46 47c28 0 53 -24 53 -67zM388 -13c-184 0 -337 139 -337 346s153 345 343 345c118 0 200 -52 259 -125l-66 -41c-42 54 -113 92 -193 92
c-146 0 -257 -112 -257 -271c0 -158 111 -272 257 -272c137 0 208 98 224 208h-274v74h364c0 -209 -115 -356 -320 -356z" />
    <glyph glyph-name="Gcircumflex.alt1" horiz-adv-x="742" 
d="M526 723h-51l-83 106l-80 -106h-51l95 144h72zM388 -13c-184 0 -337 139 -337 346s153 345 343 345c118 0 200 -52 259 -125l-66 -41c-42 54 -113 92 -193 92c-146 0 -257 -112 -257 -271c0 -158 111 -272 257 -272c137 0 208 98 224 208h-274v74h364
c0 -209 -115 -356 -320 -356z" />
    <glyph glyph-name="Gdotaccent.alt1" horiz-adv-x="742" 
d="M392 722c-25 0 -47 21 -47 47s22 47 47 47c26 0 46 -21 46 -47s-20 -47 -46 -47zM388 -13c-184 0 -337 139 -337 346s153 345 343 345c118 0 200 -52 259 -125l-66 -41c-42 54 -113 92 -193 92c-146 0 -257 -112 -257 -271c0 -158 111 -272 257 -272
c137 0 208 98 224 208h-274v74h364c0 -209 -115 -356 -320 -356z" />
    <glyph glyph-name="Hbar" unicode="&#x126;" horiz-adv-x="731" 
d="M644 0h-83v306h-390v-306h-83v498h-78v48h78v121h83v-121h390v121h83v-121h77v-48h-77v-498zM171 380h390v118h-390v-118z" />
    <glyph glyph-name="Hcircumflex" unicode="&#x124;" horiz-adv-x="712" 
d="M486 723h-51l-83 106l-80 -106h-51l95 144h72zM634 0h-83v306h-390v-306h-83v667h83v-287h390v287h83v-667z" />
    <glyph glyph-name="uni1E22" unicode="&#x1e22;" horiz-adv-x="712" 
d="M634 0h-83v306h-390v-306h-83v667h83v-287h390v287h83v-667zM355 722c-25 0 -47 21 -47 47s22 47 47 47c26 0 46 -21 46 -47s-20 -47 -46 -47z" />
    <glyph glyph-name="Iacute" unicode="&#xcd;" horiz-adv-x="239" 
d="M161 0h-83v667h83v-667zM289 867l-169 -144h-57l148 144h78z" />
    <glyph glyph-name="Ibreve" unicode="&#x12c;" horiz-adv-x="239" 
d="M161 0h-83v667h83v-667zM296 793c-40 -54 -103 -88 -175 -88c-71 0 -135 34 -176 88l37 32c32 -44 80 -72 139 -72c58 0 107 27 138 72z" />
    <glyph glyph-name="Icircumflex" unicode="&#xce;" horiz-adv-x="239" 
d="M253 723h-51l-83 106l-80 -106h-51l95 144h72zM161 0h-83v667h83v-667z" />
    <glyph glyph-name="Idieresis" unicode="&#xcf;" horiz-adv-x="239" 
d="M270 771c0 -26 -22 -47 -47 -47s-47 21 -47 47c0 25 22 46 47 46s47 -21 47 -46zM63 771c0 -26 -21 -47 -46 -47c-26 0 -47 21 -47 47c0 25 21 46 47 46c25 0 46 -21 46 -46zM161 0h-83v667h83v-667z" />
    <glyph glyph-name="Idotaccent" unicode="&#x130;" horiz-adv-x="239" 
d="M161 0h-83v667h83v-667zM120 722c-25 0 -47 21 -47 47s22 47 47 47c26 0 46 -21 46 -47s-20 -47 -46 -47z" />
    <glyph glyph-name="Igrave" unicode="&#xcc;" horiz-adv-x="239" 
d="M161 0h-83v667h83v-667zM176 723h-57l-169 144h78z" />
    <glyph glyph-name="Imacron" unicode="&#x12a;" horiz-adv-x="239" 
d="M161 0h-83v667h83v-667zM302 739h-363v48h363v-48z" />
    <glyph glyph-name="Iogonek" unicode="&#x12e;" horiz-adv-x="239" 
d="M181 -105l37 -21c-14 -32 -41 -60 -89 -60c-47 0 -89 26 -89 87c0 38 20 73 53 99h-15v667h83v-667c-48 -24 -76 -55 -76 -97c0 -34 18 -50 44 -50c28 0 43 15 52 42z" />
    <glyph glyph-name="Itilde" unicode="&#x128;" horiz-adv-x="239" 
d="M161 0h-83v667h83v-667zM179 721c-73 0 -75 92 -123 92c-27 0 -48 -26 -48 -86h-45c0 78 34 134 97 134c72 0 75 -92 123 -92c27 0 48 26 48 86h45c0 -78 -34 -134 -97 -134z" />
    <glyph glyph-name="uni1EC8" unicode="&#x1ec8;" horiz-adv-x="239" 
d="M161 0h-83v667h83v-667zM80 756l-33 9c10 31 35 55 73 55s72 -21 72 -69c0 -22 -6 -36 -19 -54h-40c17 17 23 35 23 52c0 26 -14 39 -36 39c-20 0 -33 -12 -40 -32z" />
    <glyph glyph-name="uni1ECA" unicode="&#x1eca;" horiz-adv-x="239" 
d="M161 0h-83v667h83v-667zM120 -184c-25 0 -47 21 -47 47s22 47 47 47c26 0 46 -21 46 -47s-20 -47 -46 -47z" />
    <glyph glyph-name="IJ" unicode="&#x132;" horiz-adv-x="713" 
d="M161 0h-83v667h83v-667zM424 -12c-71 0 -128 23 -174 77l43 63c29 -35 68 -66 126 -66c82 0 134 57 134 140v465h83v-466c0 -145 -93 -213 -212 -213z" />
    <glyph glyph-name="Jcircumflex" unicode="&#x134;" horiz-adv-x="475" 
d="M488 723h-51l-83 106l-80 -106h-51l95 144h72zM185 -12c-71 0 -128 23 -174 77l43 63c29 -35 68 -66 126 -66c82 0 134 57 134 140v465h83v-466c0 -145 -93 -213 -212 -213z" />
    <glyph glyph-name="Kcommaaccent" unicode="&#x136;" horiz-adv-x="606" 
d="M360 -138c0 -54 -32 -105 -71 -134l-33 26c30 20 55 57 58 86c-1 -1 -8 -2 -11 -2c-24 0 -42 19 -42 44c0 26 20 47 46 47c28 0 53 -24 53 -67zM584 0h-103l-253 300l-67 -76v-224h-83v667h83v-345l295 345h104l-278 -317z" />
    <glyph glyph-name="Lacute" unicode="&#x139;" horiz-adv-x="510" 
d="M443 867l-169 -144h-57l148 144h78zM471 0h-393v667h83v-593h310v-74z" />
    <glyph glyph-name="Lcaron" unicode="&#x13d;" horiz-adv-x="510" 
d="M354 613c0 -54 -32 -105 -71 -134l-33 26c30 20 55 57 58 86c-1 -1 -8 -2 -11 -2c-24 0 -42 19 -42 44c0 26 20 47 46 47c28 0 53 -24 53 -67zM471 0h-393v667h83v-593h310v-74z" />
    <glyph glyph-name="Lcommaaccent" unicode="&#x13b;" horiz-adv-x="510" 
d="M319 -138c0 -54 -32 -105 -71 -134l-33 26c30 20 55 57 58 86c-1 -1 -8 -2 -11 -2c-24 0 -42 19 -42 44c0 26 20 47 46 47c28 0 53 -24 53 -67zM471 0h-393v667h83v-593h310v-74z" />
    <glyph glyph-name="Ldot" unicode="&#x13f;" horiz-adv-x="510" 
d="M471 0h-393v667h83v-593h310v-74zM424 341c0 -29 -25 -54 -55 -54s-55 25 -55 54c0 30 25 55 55 55s55 -25 55 -55z" />
    <glyph glyph-name="Lslash" unicode="&#x141;" horiz-adv-x="529" 
d="M10 221v72l87 50v324h83v-276l97 56v-72l-97 -56v-245h310v-74h-393v271z" />
    <glyph glyph-name="Nacute" unicode="&#x143;" horiz-adv-x="708" 
d="M531 867l-169 -144h-57l148 144h78zM630 0h-80l-389 532v-532h-83v667h85l384 -521v521h83v-667z" />
    <glyph glyph-name="Ncaron" unicode="&#x147;" horiz-adv-x="708" 
d="M390 723h-72l-98 144h51l83 -106l80 106h51zM630 0h-80l-389 532v-532h-83v667h85l384 -521v521h83v-667z" />
    <glyph glyph-name="Ncommaaccent" unicode="&#x145;" horiz-adv-x="708" 
d="M411 -138c0 -54 -32 -105 -71 -134l-33 26c30 20 55 57 58 86c-1 -1 -8 -2 -11 -2c-24 0 -42 19 -42 44c0 26 20 47 46 47c28 0 53 -24 53 -67zM630 0h-80l-389 532v-532h-83v667h85l384 -521v521h83v-667z" />
    <glyph glyph-name="Ntilde" unicode="&#xd1;" horiz-adv-x="708" 
d="M412 721c-73 0 -75 92 -123 92c-27 0 -48 -26 -48 -86h-45c0 78 34 134 97 134c72 0 75 -92 123 -92c27 0 48 26 48 86h45c0 -78 -34 -134 -97 -134zM630 0h-80l-389 532v-532h-83v667h85l384 -521v521h83v-667z" />
    <glyph glyph-name="Eng" unicode="&#x14a;" horiz-adv-x="708" 
d="M418 -196c-70 0 -128 23 -174 77l44 63c28 -35 67 -66 125 -66c78 0 129 51 133 126l-385 528v-532h-83v667h85l384 -521v521h83v-652c0 -145 -93 -211 -212 -211z" />
    <glyph glyph-name="Oacute" unicode="&#xd3;" horiz-adv-x="765" 
d="M552 867l-169 -144h-57l148 144h78zM382 -12c-198 0 -331 148 -331 345s133 345 331 345c197 0 331 -148 331 -345s-134 -345 -331 -345zM382 62c149 0 245 116 245 271c0 156 -96 271 -245 271c-150 0 -245 -115 -245 -271c0 -155 95 -271 245 -271z" />
    <glyph glyph-name="Obreve" unicode="&#x14e;" horiz-adv-x="765" 
d="M382 -12c-198 0 -331 148 -331 345s133 345 331 345c197 0 331 -148 331 -345s-134 -345 -331 -345zM382 62c149 0 245 116 245 271c0 156 -96 271 -245 271c-150 0 -245 -115 -245 -271c0 -155 95 -271 245 -271zM557 793c-40 -54 -103 -88 -175 -88
c-71 0 -135 34 -176 88l37 32c32 -44 80 -72 139 -72c58 0 107 27 138 72z" />
    <glyph glyph-name="Ocircumflex" unicode="&#xd4;" horiz-adv-x="765" 
d="M517 723h-51l-83 106l-80 -106h-51l95 144h72zM382 -12c-198 0 -331 148 -331 345s133 345 331 345c197 0 331 -148 331 -345s-134 -345 -331 -345zM382 62c149 0 245 116 245 271c0 156 -96 271 -245 271c-150 0 -245 -115 -245 -271c0 -155 95 -271 245 -271z" />
    <glyph glyph-name="Odieresis" unicode="&#xd6;" horiz-adv-x="765" 
d="M532 771c0 -26 -22 -47 -47 -47s-47 21 -47 47c0 25 22 46 47 46s47 -21 47 -46zM325 771c0 -26 -21 -47 -46 -47c-26 0 -47 21 -47 47c0 25 21 46 47 46c25 0 46 -21 46 -46zM382 -12c-198 0 -331 148 -331 345s133 345 331 345c197 0 331 -148 331 -345
s-134 -345 -331 -345zM382 62c149 0 245 116 245 271c0 156 -96 271 -245 271c-150 0 -245 -115 -245 -271c0 -155 95 -271 245 -271z" />
    <glyph glyph-name="Ograve" unicode="&#xd2;" horiz-adv-x="765" 
d="M440 723h-57l-169 144h78zM382 -12c-198 0 -331 148 -331 345s133 345 331 345c197 0 331 -148 331 -345s-134 -345 -331 -345zM382 62c149 0 245 116 245 271c0 156 -96 271 -245 271c-150 0 -245 -115 -245 -271c0 -155 95 -271 245 -271z" />
    <glyph glyph-name="Ohungarumlaut" unicode="&#x150;" horiz-adv-x="765" 
d="M435 867l-115 -144h-48l94 144h69zM577 867l-115 -144h-48l94 144h69zM382 -12c-198 0 -331 148 -331 345s133 345 331 345c197 0 331 -148 331 -345s-134 -345 -331 -345zM382 62c149 0 245 116 245 271c0 156 -96 271 -245 271c-150 0 -245 -115 -245 -271
c0 -155 95 -271 245 -271z" />
    <glyph glyph-name="Omacron" unicode="&#x14c;" horiz-adv-x="765" 
d="M563 739h-363v48h363v-48zM382 -12c-198 0 -331 148 -331 345s133 345 331 345c197 0 331 -148 331 -345s-134 -345 -331 -345zM382 62c149 0 245 116 245 271c0 156 -96 271 -245 271c-150 0 -245 -115 -245 -271c0 -155 95 -271 245 -271z" />
    <glyph glyph-name="Oslash" unicode="&#xd8;" horiz-adv-x="765" 
d="M382 -12c-66 0 -124 16 -173 45l-22 -33h-66l44 65c-72 62 -114 157 -114 268c0 197 133 345 331 345c63 0 119 -15 167 -42l21 31h66l-42 -62c75 -62 119 -159 119 -272c0 -197 -134 -345 -331 -345zM382 62c149 0 245 116 245 271c0 84 -28 157 -78 205l-297 -441
c36 -23 80 -35 130 -35zM137 333c0 -82 26 -153 73 -201l296 440c-35 20 -77 32 -124 32c-150 0 -245 -115 -245 -271z" />
    <glyph glyph-name="Oslashacute" unicode="&#x1fe;" horiz-adv-x="765" 
d="M552 867l-169 -144h-57l148 144h78zM382 -12c-66 0 -124 16 -173 45l-22 -33h-66l44 65c-72 62 -114 157 -114 268c0 197 133 345 331 345c63 0 119 -15 167 -42l21 31h66l-42 -62c75 -62 119 -159 119 -272c0 -197 -134 -345 -331 -345zM382 62c149 0 245 116 245 271
c0 84 -28 157 -78 205l-297 -441c36 -23 80 -35 130 -35zM137 333c0 -82 26 -153 73 -201l296 440c-35 20 -77 32 -124 32c-150 0 -245 -115 -245 -271z" />
    <glyph glyph-name="Otilde" unicode="&#xd5;" horiz-adv-x="765" 
d="M382 -12c-198 0 -331 148 -331 345s133 345 331 345c197 0 331 -148 331 -345s-134 -345 -331 -345zM382 62c149 0 245 116 245 271c0 156 -96 271 -245 271c-150 0 -245 -115 -245 -271c0 -155 95 -271 245 -271zM442 721c-73 0 -75 92 -123 92c-27 0 -48 -26 -48 -86
h-45c0 78 34 134 97 134c72 0 75 -92 123 -92c27 0 48 26 48 86h45c0 -78 -34 -134 -97 -134z" />
    <glyph glyph-name="uni1ECC" unicode="&#x1ecc;" horiz-adv-x="765" 
d="M382 -12c-198 0 -331 148 -331 345s133 345 331 345c197 0 331 -148 331 -345s-134 -345 -331 -345zM382 62c149 0 245 116 245 271c0 156 -96 271 -245 271c-150 0 -245 -115 -245 -271c0 -155 95 -271 245 -271zM384 -184c-25 0 -47 21 -47 47s22 47 47 47
c26 0 46 -21 46 -47s-20 -47 -46 -47z" />
    <glyph glyph-name="uni1ECE" unicode="&#x1ece;" horiz-adv-x="765" 
d="M382 -12c-198 0 -331 148 -331 345s133 345 331 345c197 0 331 -148 331 -345s-134 -345 -331 -345zM382 62c149 0 245 116 245 271c0 156 -96 271 -245 271c-150 0 -245 -115 -245 -271c0 -155 95 -271 245 -271zM341 756l-33 9c10 31 35 55 73 55s72 -21 72 -69
c0 -22 -6 -36 -19 -54h-40c17 17 23 35 23 52c0 26 -14 39 -36 39c-20 0 -33 -12 -40 -32z" />
    <glyph glyph-name="uni1ED0" unicode="&#x1ed0;" horiz-adv-x="765" 
d="M513 682h-51l-83 79l-80 -79h-51l95 108h72zM707 844l-169 -108h-57l148 108h78zM382 -12c-198 0 -331 148 -331 345s133 345 331 345c197 0 331 -148 331 -345s-134 -345 -331 -345zM382 62c149 0 245 116 245 271c0 156 -96 271 -245 271c-150 0 -245 -115 -245 -271
c0 -155 95 -271 245 -271z" />
    <glyph glyph-name="uni1ED2" unicode="&#x1ed2;" horiz-adv-x="765" 
d="M512 682h-51l-83 79l-80 -79h-51l95 108h72zM382 -12c-198 0 -331 148 -331 345s133 345 331 345c197 0 331 -148 331 -345s-134 -345 -331 -345zM382 62c149 0 245 116 245 271c0 156 -96 271 -245 271c-150 0 -245 -115 -245 -271c0 -155 95 -271 245 -271zM278 736
h-57l-169 108h78z" />
    <glyph glyph-name="uni1ED4" unicode="&#x1ed4;" horiz-adv-x="765" 
d="M512 682h-51l-83 79l-80 -79h-51l95 108h72zM382 -12c-198 0 -331 148 -331 345s133 345 331 345c197 0 331 -148 331 -345s-134 -345 -331 -345zM382 62c149 0 245 116 245 271c0 156 -96 271 -245 271c-150 0 -245 -115 -245 -271c0 -155 95 -271 245 -271zM477 788
l-33 7c10 23 35 41 73 41s72 -15 72 -51c0 -17 -6 -27 -19 -41h-40c17 13 23 26 23 39c0 20 -14 29 -36 29c-20 0 -33 -9 -40 -24z" />
    <glyph glyph-name="uni1ED6" unicode="&#x1ed6;" horiz-adv-x="765" 
d="M514 678h-51l-83 53l-80 -53h-51l95 72h72zM382 -12c-198 0 -331 148 -331 345s133 345 331 345c197 0 331 -148 331 -345s-134 -345 -331 -345zM382 62c149 0 245 116 245 271c0 156 -96 271 -245 271c-150 0 -245 -115 -245 -271c0 -155 95 -271 245 -271zM439 757
c-73 0 -75 46 -123 46c-27 0 -48 -13 -48 -43h-45c0 39 34 67 97 67c72 0 75 -46 123 -46c27 0 48 13 48 43h45c0 -39 -34 -67 -97 -67z" />
    <glyph glyph-name="uni1ED8" unicode="&#x1ed8;" horiz-adv-x="765" 
d="M517 723h-51l-83 106l-80 -106h-51l95 144h72zM382 -12c-198 0 -331 148 -331 345s133 345 331 345c197 0 331 -148 331 -345s-134 -345 -331 -345zM382 62c149 0 245 116 245 271c0 156 -96 271 -245 271c-150 0 -245 -115 -245 -271c0 -155 95 -271 245 -271zM385 -184
c-25 0 -47 21 -47 47s22 47 47 47c26 0 46 -21 46 -47s-20 -47 -46 -47z" />
    <glyph glyph-name="Ohorn" unicode="&#x1a0;" horiz-adv-x="765" 
d="M382 -12c-198 0 -331 148 -331 345s133 345 331 345c104 0 190 -42 249 -110c24 20 43 50 46 76c-1 -1 -7 -2 -11 -2c-23 0 -39 18 -39 41c0 24 18 44 42 44c27 0 50 -23 50 -63c0 -51 -29 -99 -65 -126c37 -57 59 -127 59 -205c0 -197 -134 -345 -331 -345zM382 62
c149 0 245 116 245 271c0 156 -96 271 -245 271c-150 0 -245 -115 -245 -271c0 -155 95 -271 245 -271z" />
    <glyph glyph-name="uni1EDA" unicode="&#x1eda;" horiz-adv-x="765" 
d="M552 867l-169 -144h-57l148 144h78zM382 -12c-198 0 -331 148 -331 345s133 345 331 345c104 0 190 -42 249 -110c24 20 43 50 46 76c-1 -1 -7 -2 -11 -2c-23 0 -39 18 -39 41c0 24 18 44 42 44c27 0 50 -23 50 -63c0 -51 -29 -99 -65 -126c37 -57 59 -127 59 -205
c0 -197 -134 -345 -331 -345zM382 62c149 0 245 116 245 271c0 156 -96 271 -245 271c-150 0 -245 -115 -245 -271c0 -155 95 -271 245 -271z" />
    <glyph glyph-name="uni1EDC" unicode="&#x1edc;" horiz-adv-x="765" 
d="M382 -12c-198 0 -331 148 -331 345s133 345 331 345c104 0 190 -42 249 -110c24 20 43 50 46 76c-1 -1 -7 -2 -11 -2c-23 0 -39 18 -39 41c0 24 18 44 42 44c27 0 50 -23 50 -63c0 -51 -29 -99 -65 -126c37 -57 59 -127 59 -205c0 -197 -134 -345 -331 -345zM382 62
c149 0 245 116 245 271c0 156 -96 271 -245 271c-150 0 -245 -115 -245 -271c0 -155 95 -271 245 -271zM440 723h-57l-169 144h78z" />
    <glyph glyph-name="uni1EDE" unicode="&#x1ede;" horiz-adv-x="765" 
d="M382 -12c-198 0 -331 148 -331 345s133 345 331 345c104 0 190 -42 249 -110c24 20 43 50 46 76c-1 -1 -7 -2 -11 -2c-23 0 -39 18 -39 41c0 24 18 44 42 44c27 0 50 -23 50 -63c0 -51 -29 -99 -65 -126c37 -57 59 -127 59 -205c0 -197 -134 -345 -331 -345zM382 62
c149 0 245 116 245 271c0 156 -96 271 -245 271c-150 0 -245 -115 -245 -271c0 -155 95 -271 245 -271zM342 756l-33 9c10 31 35 55 73 55s72 -21 72 -69c0 -22 -6 -36 -19 -54h-40c17 17 23 35 23 52c0 26 -14 39 -36 39c-20 0 -33 -12 -40 -32z" />
    <glyph glyph-name="uni1EE0" unicode="&#x1ee0;" horiz-adv-x="765" 
d="M382 -12c-198 0 -331 148 -331 345s133 345 331 345c104 0 190 -42 249 -110c24 20 43 50 46 76c-1 -1 -7 -2 -11 -2c-23 0 -39 18 -39 41c0 24 18 44 42 44c27 0 50 -23 50 -63c0 -51 -29 -99 -65 -126c37 -57 59 -127 59 -205c0 -197 -134 -345 -331 -345zM382 62
c149 0 245 116 245 271c0 156 -96 271 -245 271c-150 0 -245 -115 -245 -271c0 -155 95 -271 245 -271zM442 721c-73 0 -75 92 -123 92c-27 0 -48 -26 -48 -86h-45c0 78 34 134 97 134c72 0 75 -92 123 -92c27 0 48 26 48 86h45c0 -78 -34 -134 -97 -134z" />
    <glyph glyph-name="uni1EE2" unicode="&#x1ee2;" horiz-adv-x="765" 
d="M382 -12c-198 0 -331 148 -331 345s133 345 331 345c104 0 190 -42 249 -110c24 20 43 50 46 76c-1 -1 -7 -2 -11 -2c-23 0 -39 18 -39 41c0 24 18 44 42 44c27 0 50 -23 50 -63c0 -51 -29 -99 -65 -126c37 -57 59 -127 59 -205c0 -197 -134 -345 -331 -345zM382 62
c149 0 245 116 245 271c0 156 -96 271 -245 271c-150 0 -245 -115 -245 -271c0 -155 95 -271 245 -271zM384 -184c-25 0 -47 21 -47 47s22 47 47 47c26 0 46 -21 46 -47s-20 -47 -46 -47z" />
    <glyph glyph-name="OE" unicode="&#x152;" horiz-adv-x="1105" 
d="M1051 0h-438v120c-49 -87 -144 -132 -238 -132c-194 0 -324 148 -324 345s130 344 324 344c94 0 189 -44 238 -131v121h438v-74h-355v-215h348v-74h-348v-230h355v-74zM613 223v220c-39 107 -126 160 -229 160c-152 0 -247 -114 -247 -270s95 -271 247 -271
c103 0 190 55 229 161z" />
    <glyph glyph-name="uni1E56" unicode="&#x1e56;" horiz-adv-x="587" 
d="M161 0h-83v667h268c134 0 209 -92 209 -201s-77 -201 -209 -201h-185v-265zM336 339c79 0 133 52 133 127s-54 127 -133 127h-175v-254h175zM293 722c-25 0 -47 21 -47 47s22 47 47 47c26 0 46 -21 46 -47s-20 -47 -46 -47z" />
    <glyph glyph-name="Racute" unicode="&#x154;" horiz-adv-x="608" 
d="M480 867l-169 -144h-57l148 144h78zM562 0h-98l-170 265h-133v-265h-83v667h268c122 0 209 -78 209 -201c0 -120 -82 -186 -173 -194zM336 338c79 0 133 53 133 128s-54 127 -133 127h-175v-255h175z" />
    <glyph glyph-name="Rcaron" unicode="&#x158;" horiz-adv-x="608" 
d="M343 723h-72l-98 144h51l83 -106l80 106h51zM562 0h-98l-170 265h-133v-265h-83v667h268c122 0 209 -78 209 -201c0 -120 -82 -186 -173 -194zM336 338c79 0 133 53 133 128s-54 127 -133 127h-175v-255h175z" />
    <glyph glyph-name="Rcommaaccent" unicode="&#x156;" horiz-adv-x="608" 
d="M362 -138c0 -54 -32 -105 -71 -134l-33 26c30 20 55 57 58 86c-1 -1 -8 -2 -11 -2c-24 0 -42 19 -42 44c0 26 20 47 46 47c28 0 53 -24 53 -67zM562 0h-98l-170 265h-133v-265h-83v667h268c122 0 209 -78 209 -201c0 -120 -82 -186 -173 -194zM336 338
c79 0 133 53 133 128s-54 127 -133 127h-175v-255h175z" />
    <glyph glyph-name="Sacute" unicode="&#x15a;" horiz-adv-x="586" 
d="M460 867l-169 -144h-57l148 144h78zM294 -12c-116 0 -201 44 -256 106l49 63c44 -49 116 -95 210 -95c119 0 157 64 157 115c0 172 -395 77 -395 315c0 110 98 185 229 185c102 0 181 -34 237 -93l-50 -61c-50 55 -120 80 -193 80c-80 0 -137 -43 -137 -106
c0 -150 395 -64 395 -313c0 -97 -66 -196 -246 -196z" />
    <glyph glyph-name="Scaron" unicode="&#x160;" horiz-adv-x="586" 
d="M323 723h-72l-98 144h51l83 -106l80 106h51zM294 -12c-116 0 -201 44 -256 106l49 63c44 -49 116 -95 210 -95c119 0 157 64 157 115c0 172 -395 77 -395 315c0 110 98 185 229 185c102 0 181 -34 237 -93l-50 -61c-50 55 -120 80 -193 80c-80 0 -137 -43 -137 -106
c0 -150 395 -64 395 -313c0 -97 -66 -196 -246 -196z" />
    <glyph glyph-name="Scircumflex" unicode="&#x15c;" horiz-adv-x="586" 
d="M418 723h-51l-83 106l-80 -106h-51l95 144h72zM294 -12c-116 0 -201 44 -256 106l49 63c44 -49 116 -95 210 -95c119 0 157 64 157 115c0 172 -395 77 -395 315c0 110 98 185 229 185c102 0 181 -34 237 -93l-50 -61c-50 55 -120 80 -193 80c-80 0 -137 -43 -137 -106
c0 -150 395 -64 395 -313c0 -97 -66 -196 -246 -196z" />
    <glyph glyph-name="Scedilla" unicode="&#x15e;" horiz-adv-x="586" 
d="M288 -191c-43 0 -81 14 -101 30l19 38c24 -20 53 -29 80 -29c32 0 61 15 61 42c0 21 -12 35 -37 35c-14 0 -29 -7 -38 -17l-33 19l23 62c-100 8 -174 49 -224 105l49 63c44 -49 116 -95 210 -95c119 0 157 64 157 115c0 172 -395 77 -395 315c0 110 98 185 229 185
c102 0 181 -34 237 -93l-50 -61c-50 55 -120 80 -193 80c-80 0 -137 -43 -137 -106c0 -150 395 -64 395 -313c0 -95 -63 -191 -234 -196l-17 -43c10 7 24 11 37 11c38 0 66 -26 66 -67c0 -49 -47 -80 -104 -80z" />
    <glyph glyph-name="Scommaaccent" unicode="&#x218;" horiz-adv-x="586" 
d="M345 -138c0 -54 -32 -105 -71 -134l-33 26c30 20 55 57 58 86c-1 -1 -8 -2 -11 -2c-24 0 -42 19 -42 44c0 26 20 47 46 47c28 0 53 -24 53 -67zM294 -12c-116 0 -201 44 -256 106l49 63c44 -49 116 -95 210 -95c119 0 157 64 157 115c0 172 -395 77 -395 315
c0 110 98 185 229 185c102 0 181 -34 237 -93l-50 -61c-50 55 -120 80 -193 80c-80 0 -137 -43 -137 -106c0 -150 395 -64 395 -313c0 -97 -66 -196 -246 -196z" />
    <glyph glyph-name="uni1E60" unicode="&#x1e60;" horiz-adv-x="586" 
d="M294 -12c-116 0 -201 44 -256 106l49 63c44 -49 116 -95 210 -95c119 0 157 64 157 115c0 172 -395 77 -395 315c0 110 98 185 229 185c102 0 181 -34 237 -93l-50 -61c-50 55 -120 80 -193 80c-80 0 -137 -43 -137 -106c0 -150 395 -64 395 -313
c0 -97 -66 -196 -246 -196zM293 722c-25 0 -47 21 -47 47s22 47 47 47c26 0 46 -21 46 -47s-20 -47 -46 -47z" />
    <glyph glyph-name="Tbar" unicode="&#x166;" horiz-adv-x="570" 
d="M326 0h-83v294h-150v48h150v251h-211v74h506v-74h-212v-251h152v-48h-152v-294z" />
    <glyph glyph-name="Tcaron" unicode="&#x164;" horiz-adv-x="570" 
d="M322 723h-72l-98 144h51l83 -106l80 106h51zM326 0h-83v593h-211v74h506v-74h-212v-593z" />
    <glyph glyph-name="Tcommaaccent" unicode="&#x162;" horiz-adv-x="570" 
d="M341 -138c0 -54 -32 -105 -71 -134l-33 26c30 20 55 57 58 86c-1 -1 -8 -2 -11 -2c-24 0 -42 19 -42 44c0 26 20 47 46 47c28 0 53 -24 53 -67zM326 0h-83v593h-211v74h506v-74h-212v-593z" />
    <glyph glyph-name="uni021A" unicode="&#x21a;" horiz-adv-x="570" 
d="M341 -138c0 -54 -32 -105 -71 -134l-33 26c30 20 55 57 58 86c-1 -1 -8 -2 -11 -2c-24 0 -42 19 -42 44c0 26 20 47 46 47c28 0 53 -24 53 -67zM326 0h-83v593h-211v74h506v-74h-212v-593z" />
    <glyph glyph-name="uni1E6A" unicode="&#x1e6a;" horiz-adv-x="570" 
d="M326 0h-83v593h-211v74h506v-74h-212v-593zM284 722c-25 0 -47 21 -47 47s22 47 47 47c26 0 46 -21 46 -47s-20 -47 -46 -47z" />
    <glyph glyph-name="Uacute" unicode="&#xda;" horiz-adv-x="700" 
d="M519 867l-169 -144h-57l148 144h78zM350 -12c-181 0 -272 107 -272 271v408h83v-406c0 -122 66 -199 189 -199s189 77 189 199v406h83v-407c0 -166 -91 -272 -272 -272z" />
    <glyph glyph-name="Ubreve" unicode="&#x16c;" horiz-adv-x="700" 
d="M350 -12c-181 0 -272 107 -272 271v408h83v-406c0 -122 66 -199 189 -199s189 77 189 199v406h83v-407c0 -166 -91 -272 -272 -272zM528 793c-40 -54 -103 -88 -175 -88c-71 0 -135 34 -176 88l37 32c32 -44 80 -72 139 -72c58 0 107 27 138 72z" />
    <glyph glyph-name="Ucircumflex" unicode="&#xdb;" horiz-adv-x="700" 
d="M485 723h-51l-83 106l-80 -106h-51l95 144h72zM350 -12c-181 0 -272 107 -272 271v408h83v-406c0 -122 66 -199 189 -199s189 77 189 199v406h83v-407c0 -166 -91 -272 -272 -272z" />
    <glyph glyph-name="Udieresis" unicode="&#xdc;" horiz-adv-x="700" 
d="M501 771c0 -26 -22 -47 -47 -47s-47 21 -47 47c0 25 22 46 47 46s47 -21 47 -46zM294 771c0 -26 -21 -47 -46 -47c-26 0 -47 21 -47 47c0 25 21 46 47 46c25 0 46 -21 46 -46zM350 -12c-181 0 -272 107 -272 271v408h83v-406c0 -122 66 -199 189 -199s189 77 189 199v406
h83v-407c0 -166 -91 -272 -272 -272z" />
    <glyph glyph-name="Ugrave" unicode="&#xd9;" horiz-adv-x="700" 
d="M350 -12c-181 0 -272 107 -272 271v408h83v-406c0 -122 66 -199 189 -199s189 77 189 199v406h83v-407c0 -166 -91 -272 -272 -272zM407 723h-57l-169 144h78z" />
    <glyph glyph-name="Uhungarumlaut" unicode="&#x170;" horiz-adv-x="700" 
d="M350 -12c-181 0 -272 107 -272 271v408h83v-406c0 -122 66 -199 189 -199s189 77 189 199v406h83v-407c0 -166 -91 -272 -272 -272zM404 867l-115 -144h-48l94 144h69zM546 867l-115 -144h-48l94 144h69z" />
    <glyph glyph-name="Umacron" unicode="&#x16a;" horiz-adv-x="700" 
d="M350 -12c-181 0 -272 107 -272 271v408h83v-406c0 -122 66 -199 189 -199s189 77 189 199v406h83v-407c0 -166 -91 -272 -272 -272zM532 739h-363v48h363v-48z" />
    <glyph glyph-name="Uogonek" unicode="&#x172;" horiz-adv-x="700" 
d="M350 -12c-181 0 -272 107 -272 271v408h83v-406c0 -122 66 -199 189 -199s189 77 189 199v406h83v-407c0 -133 -59 -228 -175 -260c-48 -24 -76 -55 -76 -97c0 -34 18 -50 44 -50c28 0 43 15 52 42l37 -21c-14 -32 -41 -60 -89 -60c-47 0 -89 26 -89 87c0 33 15 63 39 87
h-15z" />
    <glyph glyph-name="Uring" unicode="&#x16e;" horiz-adv-x="700" 
d="M351 710c-54 0 -98 44 -98 98s44 99 98 99s98 -45 98 -99s-44 -98 -98 -98zM351 749c33 0 58 27 58 59c0 33 -25 59 -58 59c-32 0 -58 -26 -58 -59c0 -32 26 -59 58 -59zM350 -12c-181 0 -272 107 -272 271v408h83v-406c0 -122 66 -199 189 -199s189 77 189 199v406h83
v-407c0 -166 -91 -272 -272 -272z" />
    <glyph glyph-name="Utilde" unicode="&#x168;" horiz-adv-x="700" 
d="M350 -12c-181 0 -272 107 -272 271v408h83v-406c0 -122 66 -199 189 -199s189 77 189 199v406h83v-407c0 -166 -91 -272 -272 -272zM412 721c-73 0 -75 92 -123 92c-27 0 -48 -26 -48 -86h-45c0 78 34 134 97 134c72 0 75 -92 123 -92c27 0 48 26 48 86h45
c0 -78 -34 -134 -97 -134z" />
    <glyph glyph-name="uni1EE4" unicode="&#x1ee4;" horiz-adv-x="700" 
d="M350 -12c-181 0 -272 107 -272 271v408h83v-406c0 -122 66 -199 189 -199s189 77 189 199v406h83v-407c0 -166 -91 -272 -272 -272zM354 -184c-25 0 -47 21 -47 47s22 47 47 47c26 0 46 -21 46 -47s-20 -47 -46 -47z" />
    <glyph glyph-name="Uhorn" unicode="&#x1af;" horiz-adv-x="700" 
d="M738 728c0 -64 -44 -125 -116 -154v-314c0 -166 -91 -272 -272 -272s-272 107 -272 271v408h83v-406c0 -122 66 -199 189 -199s189 77 189 199v406h83v-54c38 19 70 58 73 95c-1 0 -7 -1 -11 -1c-22 0 -39 17 -39 41c0 23 18 43 43 43c26 0 50 -23 50 -63z" />
    <glyph glyph-name="uni1EE6" unicode="&#x1ee6;" horiz-adv-x="700" 
d="M350 -12c-181 0 -272 107 -272 271v408h83v-406c0 -122 66 -199 189 -199s189 77 189 199v406h83v-407c0 -166 -91 -272 -272 -272zM311 756l-33 9c10 31 35 55 73 55s72 -21 72 -69c0 -22 -6 -36 -19 -54h-40c17 17 23 35 23 52c0 26 -14 39 -36 39
c-20 0 -33 -12 -40 -32z" />
    <glyph glyph-name="uni1EE8" unicode="&#x1ee8;" horiz-adv-x="700" 
d="M519 867l-169 -144h-57l148 144h78zM738 728c0 -64 -44 -125 -116 -154v-314c0 -166 -91 -272 -272 -272s-272 107 -272 271v408h83v-406c0 -122 66 -199 189 -199s189 77 189 199v406h83v-54c38 19 70 58 73 95c-1 0 -7 -1 -11 -1c-22 0 -39 17 -39 41c0 23 18 43 43 43
c26 0 50 -23 50 -63z" />
    <glyph glyph-name="uni1EEA" unicode="&#x1eea;" horiz-adv-x="700" 
d="M407 723h-57l-169 144h78zM738 728c0 -64 -44 -125 -116 -154v-314c0 -166 -91 -272 -272 -272s-272 107 -272 271v408h83v-406c0 -122 66 -199 189 -199s189 77 189 199v406h83v-54c38 19 70 58 73 95c-1 0 -7 -1 -11 -1c-22 0 -39 17 -39 41c0 23 18 43 43 43
c26 0 50 -23 50 -63z" />
    <glyph glyph-name="uni1EEC" unicode="&#x1eec;" horiz-adv-x="700" 
d="M311 756l-33 9c10 31 35 55 73 55s72 -21 72 -69c0 -22 -6 -36 -19 -54h-40c17 17 23 35 23 52c0 26 -14 39 -36 39c-20 0 -33 -12 -40 -32zM738 728c0 -64 -44 -125 -116 -154v-314c0 -166 -91 -272 -272 -272s-272 107 -272 271v408h83v-406c0 -122 66 -199 189 -199
s189 77 189 199v406h83v-54c38 19 70 58 73 95c-1 0 -7 -1 -11 -1c-22 0 -39 17 -39 41c0 23 18 43 43 43c26 0 50 -23 50 -63z" />
    <glyph glyph-name="uni1EEE" unicode="&#x1eee;" horiz-adv-x="700" 
d="M738 728c0 -64 -44 -125 -116 -154v-314c0 -166 -91 -272 -272 -272s-272 107 -272 271v408h83v-406c0 -122 66 -199 189 -199s189 77 189 199v406h83v-54c38 19 70 58 73 95c-1 0 -7 -1 -11 -1c-22 0 -39 17 -39 41c0 23 18 43 43 43c26 0 50 -23 50 -63zM410 721
c-73 0 -75 92 -123 92c-27 0 -48 -26 -48 -86h-45c0 78 34 134 97 134c72 0 75 -92 123 -92c27 0 48 26 48 86h45c0 -78 -34 -134 -97 -134z" />
    <glyph glyph-name="uni1EF0" unicode="&#x1ef0;" horiz-adv-x="700" 
d="M354 -184c-25 0 -47 21 -47 47s22 47 47 47c26 0 46 -21 46 -47s-20 -47 -46 -47zM738 728c0 -64 -44 -125 -116 -154v-314c0 -166 -91 -272 -272 -272s-272 107 -272 271v408h83v-406c0 -122 66 -199 189 -199s189 77 189 199v406h83v-54c38 19 70 58 73 95
c-1 0 -7 -1 -11 -1c-22 0 -39 17 -39 41c0 23 18 43 43 43c26 0 50 -23 50 -63z" />
    <glyph glyph-name="Wacute" unicode="&#x1e82;" horiz-adv-x="883" 
d="M610 867l-169 -144h-57l148 144h78zM678 0h-90l-147 538l-147 -538h-90l-190 667h92l148 -556l153 556h69l153 -556l147 556h92z" />
    <glyph glyph-name="Wcircumflex" unicode="&#x174;" horiz-adv-x="883" 
d="M574 723h-51l-83 106l-80 -106h-51l95 144h72zM678 0h-90l-147 538l-147 -538h-90l-190 667h92l148 -556l153 556h69l153 -556l147 556h92z" />
    <glyph glyph-name="Wdieresis" unicode="&#x1e84;" horiz-adv-x="883" 
d="M591 771c0 -26 -22 -47 -47 -47s-47 21 -47 47c0 25 22 46 47 46s47 -21 47 -46zM384 771c0 -26 -21 -47 -46 -47c-26 0 -47 21 -47 47c0 25 21 46 47 46c25 0 46 -21 46 -46zM678 0h-90l-147 538l-147 -538h-90l-190 667h92l148 -556l153 556h69l153 -556l147 556h92z
" />
    <glyph glyph-name="Wgrave" unicode="&#x1e80;" horiz-adv-x="883" 
d="M678 0h-90l-147 538l-147 -538h-90l-190 667h92l148 -556l153 556h69l153 -556l147 556h92zM498 723h-57l-169 144h78z" />
    <glyph glyph-name="Yacute" unicode="&#xdd;" horiz-adv-x="626" 
d="M355 0h-83v282l-263 385h97l207 -310l207 310h97l-262 -385v-282zM482 867l-169 -144h-57l148 144h78z" />
    <glyph glyph-name="Ycircumflex" unicode="&#x176;" horiz-adv-x="626" 
d="M447 723h-51l-83 106l-80 -106h-51l95 144h72zM355 0h-83v282l-263 385h97l207 -310l207 310h97l-262 -385v-282z" />
    <glyph glyph-name="Ydieresis" unicode="&#x178;" horiz-adv-x="626" 
d="M465 771c0 -26 -22 -47 -47 -47s-47 21 -47 47c0 25 22 46 47 46s47 -21 47 -46zM258 771c0 -26 -21 -47 -46 -47c-26 0 -47 21 -47 47c0 25 21 46 47 46c25 0 46 -21 46 -46zM355 0h-83v282l-263 385h97l207 -310l207 310h97l-262 -385v-282z" />
    <glyph glyph-name="Ygrave" unicode="&#x1ef2;" horiz-adv-x="626" 
d="M355 0h-83v282l-263 385h97l207 -310l207 310h97l-262 -385v-282zM370 723h-57l-169 144h78z" />
    <glyph glyph-name="Zacute" unicode="&#x179;" horiz-adv-x="585" 
d="M461 867l-169 -144h-57l148 144h78zM536 0h-488v69l375 524h-375v74h481v-69l-375 -524h382v-74z" />
    <glyph glyph-name="Zcaron" unicode="&#x17d;" horiz-adv-x="585" 
d="M327 723h-72l-98 144h51l83 -106l80 106h51zM536 0h-488v69l375 524h-375v74h481v-69l-375 -524h382v-74z" />
    <glyph glyph-name="Zdotaccent" unicode="&#x17b;" horiz-adv-x="585" 
d="M536 0h-488v69l375 524h-375v74h481v-69l-375 -524h382v-74zM290 722c-25 0 -47 21 -47 47s22 47 47 47c26 0 46 -21 46 -47s-20 -47 -46 -47z" />
    <glyph glyph-name="Eth" unicode="&#xd0;" horiz-adv-x="728" 
d="M334 0h-228v299h-96v61h96v307h228c207 0 342 -145 342 -334c0 -190 -135 -333 -342 -333zM334 74c162 0 256 116 256 259c0 144 -91 260 -256 260h-145v-233h169v-61h-169v-225h145z" />
    <glyph glyph-name="Thorn" unicode="&#xde;" horiz-adv-x="587" 
d="M161 0h-83v667h83v-119h185c134 0 209 -93 209 -202s-77 -200 -209 -200h-185v-146zM336 220c79 0 133 51 133 126s-54 128 -133 128h-175v-254h175z" />
    <glyph glyph-name="aacute" unicode="&#xe1;" horiz-adv-x="527" 
d="M452 0h-75v55c-40 -44 -95 -67 -160 -67c-82 0 -169 55 -169 160c0 108 87 159 169 159c66 0 121 -21 160 -66v87c0 65 -52 102 -122 102c-58 0 -105 -21 -148 -67l-35 52c52 54 114 80 193 80c102 0 187 -46 187 -163v-332zM244 42c53 0 104 20 133 60v91
c-29 40 -80 60 -133 60c-70 0 -119 -44 -119 -106c0 -61 49 -105 119 -105zM434 700l-169 -144h-57l148 144h78z" />
    <glyph glyph-name="abreve" unicode="&#x103;" horiz-adv-x="527" 
d="M452 0h-75v55c-40 -44 -95 -67 -160 -67c-82 0 -169 55 -169 160c0 108 87 159 169 159c66 0 121 -21 160 -66v87c0 65 -52 102 -122 102c-58 0 -105 -21 -148 -67l-35 52c52 54 114 80 193 80c102 0 187 -46 187 -163v-332zM244 42c53 0 104 20 133 60v91
c-29 40 -80 60 -133 60c-70 0 -119 -44 -119 -106c0 -61 49 -105 119 -105zM439 626c-40 -54 -103 -88 -175 -88c-71 0 -135 34 -176 88l37 32c32 -44 80 -72 139 -72c58 0 107 27 138 72z" />
    <glyph glyph-name="acircumflex" unicode="&#xe2;" horiz-adv-x="527" 
d="M452 0h-75v55c-40 -44 -95 -67 -160 -67c-82 0 -169 55 -169 160c0 108 87 159 169 159c66 0 121 -21 160 -66v87c0 65 -52 102 -122 102c-58 0 -105 -21 -148 -67l-35 52c52 54 114 80 193 80c102 0 187 -46 187 -163v-332zM244 42c53 0 104 20 133 60v91
c-29 40 -80 60 -133 60c-70 0 -119 -44 -119 -106c0 -61 49 -105 119 -105zM398 556h-51l-83 106l-80 -106h-51l95 144h72z" />
    <glyph glyph-name="adieresis" unicode="&#xe4;" horiz-adv-x="527" 
d="M452 0h-75v55c-40 -44 -95 -67 -160 -67c-82 0 -169 55 -169 160c0 108 87 159 169 159c66 0 121 -21 160 -66v87c0 65 -52 102 -122 102c-58 0 -105 -21 -148 -67l-35 52c52 54 114 80 193 80c102 0 187 -46 187 -163v-332zM244 42c53 0 104 20 133 60v91
c-29 40 -80 60 -133 60c-70 0 -119 -44 -119 -106c0 -61 49 -105 119 -105zM415 604c0 -26 -22 -47 -47 -47s-47 21 -47 47c0 25 22 46 47 46s47 -21 47 -46zM208 604c0 -26 -21 -47 -46 -47c-26 0 -47 21 -47 47c0 25 21 46 47 46c25 0 46 -21 46 -46z" />
    <glyph glyph-name="agrave" unicode="&#xe0;" horiz-adv-x="527" 
d="M452 0h-75v55c-40 -44 -95 -67 -160 -67c-82 0 -169 55 -169 160c0 108 87 159 169 159c66 0 121 -21 160 -66v87c0 65 -52 102 -122 102c-58 0 -105 -21 -148 -67l-35 52c52 54 114 80 193 80c102 0 187 -46 187 -163v-332zM244 42c53 0 104 20 133 60v91
c-29 40 -80 60 -133 60c-70 0 -119 -44 -119 -106c0 -61 49 -105 119 -105zM322 556h-57l-169 144h78z" />
    <glyph glyph-name="amacron" unicode="&#x101;" horiz-adv-x="527" 
d="M452 0h-75v55c-40 -44 -95 -67 -160 -67c-82 0 -169 55 -169 160c0 108 87 159 169 159c66 0 121 -21 160 -66v87c0 65 -52 102 -122 102c-58 0 -105 -21 -148 -67l-35 52c52 54 114 80 193 80c102 0 187 -46 187 -163v-332zM244 42c53 0 104 20 133 60v91
c-29 40 -80 60 -133 60c-70 0 -119 -44 -119 -106c0 -61 49 -105 119 -105zM445 572h-363v48h363v-48z" />
    <glyph glyph-name="aogonek" unicode="&#x105;" horiz-adv-x="527" 
d="M472 -105l37 -21c-14 -32 -41 -60 -89 -60c-47 0 -89 26 -89 87c0 38 20 73 53 99h-7v55c-40 -44 -95 -67 -160 -67c-82 0 -169 55 -169 160c0 108 87 159 169 159c66 0 121 -21 160 -66v87c0 65 -52 102 -122 102c-58 0 -105 -21 -148 -67l-35 52c52 54 114 80 193 80
c102 0 187 -46 187 -163v-332c-48 -24 -76 -55 -76 -97c0 -34 18 -50 44 -50c28 0 43 15 52 42zM244 42c53 0 104 20 133 60v91c-29 40 -80 60 -133 60c-70 0 -119 -44 -119 -106c0 -61 49 -105 119 -105z" />
    <glyph glyph-name="aring" unicode="&#xe5;" horiz-adv-x="527" 
d="M452 0h-75v55c-40 -44 -95 -67 -160 -67c-82 0 -169 55 -169 160c0 108 87 159 169 159c66 0 121 -21 160 -66v87c0 65 -52 102 -122 102c-58 0 -105 -21 -148 -67l-35 52c52 54 114 80 193 80c102 0 187 -46 187 -163v-332zM244 42c53 0 104 20 133 60v91
c-29 40 -80 60 -133 60c-70 0 -119 -44 -119 -106c0 -61 49 -105 119 -105zM265 543c-54 0 -98 44 -98 98s44 99 98 99s98 -45 98 -99s-44 -98 -98 -98zM265 582c33 0 58 27 58 59c0 33 -25 59 -58 59c-32 0 -58 -26 -58 -59c0 -32 26 -59 58 -59z" />
    <glyph glyph-name="atilde" unicode="&#xe3;" horiz-adv-x="527" 
d="M452 0h-75v55c-40 -44 -95 -67 -160 -67c-82 0 -169 55 -169 160c0 108 87 159 169 159c66 0 121 -21 160 -66v87c0 65 -52 102 -122 102c-58 0 -105 -21 -148 -67l-35 52c52 54 114 80 193 80c102 0 187 -46 187 -163v-332zM244 42c53 0 104 20 133 60v91
c-29 40 -80 60 -133 60c-70 0 -119 -44 -119 -106c0 -61 49 -105 119 -105zM325 554c-73 0 -75 92 -123 92c-27 0 -48 -26 -48 -86h-45c0 78 34 134 97 134c72 0 75 -92 123 -92c27 0 48 26 48 86h45c0 -78 -34 -134 -97 -134z" />
    <glyph glyph-name="uni1EA1" unicode="&#x1ea1;" horiz-adv-x="527" 
d="M452 0h-75v55c-40 -44 -95 -67 -160 -67c-82 0 -169 55 -169 160c0 108 87 159 169 159c66 0 121 -21 160 -66v87c0 65 -52 102 -122 102c-58 0 -105 -21 -148 -67l-35 52c52 54 114 80 193 80c102 0 187 -46 187 -163v-332zM244 42c53 0 104 20 133 60v91
c-29 40 -80 60 -133 60c-70 0 -119 -44 -119 -106c0 -61 49 -105 119 -105zM264 -184c-25 0 -47 21 -47 47s22 47 47 47c26 0 46 -21 46 -47s-20 -47 -46 -47z" />
    <glyph glyph-name="uni1EA3" unicode="&#x1ea3;" horiz-adv-x="527" 
d="M452 0h-75v55c-40 -44 -95 -67 -160 -67c-82 0 -169 55 -169 160c0 108 87 159 169 159c66 0 121 -21 160 -66v87c0 65 -52 102 -122 102c-58 0 -105 -21 -148 -67l-35 52c52 54 114 80 193 80c102 0 187 -46 187 -163v-332zM244 42c53 0 104 20 133 60v91
c-29 40 -80 60 -133 60c-70 0 -119 -44 -119 -106c0 -61 49 -105 119 -105zM224 586l-33 9c10 31 35 55 73 55s72 -21 72 -69c0 -22 -6 -36 -19 -54h-40c17 17 23 35 23 52c0 26 -14 39 -36 39c-20 0 -33 -12 -40 -32z" />
    <glyph glyph-name="uni1EA5" unicode="&#x1ea5;" horiz-adv-x="527" 
d="M452 0h-75v55c-40 -44 -95 -67 -160 -67c-82 0 -169 55 -169 160c0 108 87 159 169 159c66 0 121 -21 160 -66v87c0 65 -52 102 -122 102c-58 0 -105 -21 -148 -67l-35 52c52 54 114 80 193 80c102 0 187 -46 187 -163v-332zM244 42c53 0 104 20 133 60v91
c-29 40 -80 60 -133 60c-70 0 -119 -44 -119 -106c0 -61 49 -105 119 -105zM398 556h-51l-83 106l-80 -106h-51l95 144h72zM587 770l-169 -144h-57l148 144h78z" />
    <glyph glyph-name="uni1EAD" unicode="&#x1ead;" horiz-adv-x="527" 
d="M452 0h-75v55c-40 -44 -95 -67 -160 -67c-82 0 -169 55 -169 160c0 108 87 159 169 159c66 0 121 -21 160 -66v87c0 65 -52 102 -122 102c-58 0 -105 -21 -148 -67l-35 52c52 54 114 80 193 80c102 0 187 -46 187 -163v-332zM244 42c53 0 104 20 133 60v91
c-29 40 -80 60 -133 60c-70 0 -119 -44 -119 -106c0 -61 49 -105 119 -105zM396 556h-51l-83 106l-80 -106h-51l95 144h72zM264 -184c-25 0 -47 21 -47 47s22 47 47 47c26 0 46 -21 46 -47s-20 -47 -46 -47z" />
    <glyph glyph-name="uni1EA7" unicode="&#x1ea7;" horiz-adv-x="527" 
d="M452 0h-75v55c-40 -44 -95 -67 -160 -67c-82 0 -169 55 -169 160c0 108 87 159 169 159c66 0 121 -21 160 -66v87c0 65 -52 102 -122 102c-58 0 -105 -21 -148 -67l-35 52c52 54 114 80 193 80c102 0 187 -46 187 -163v-332zM244 42c53 0 104 20 133 60v91
c-29 40 -80 60 -133 60c-70 0 -119 -44 -119 -106c0 -61 49 -105 119 -105zM398 556h-51l-83 106l-80 -106h-51l95 144h72zM169 626h-57l-169 144h78z" />
    <glyph glyph-name="uni1EA9" unicode="&#x1ea9;" horiz-adv-x="527" 
d="M452 0h-75v55c-40 -44 -95 -67 -160 -67c-82 0 -169 55 -169 160c0 108 87 159 169 159c66 0 121 -21 160 -66v87c0 65 -52 102 -122 102c-58 0 -105 -21 -148 -67l-35 52c52 54 114 80 193 80c102 0 187 -46 187 -163v-332zM244 42c53 0 104 20 133 60v91
c-29 40 -80 60 -133 60c-70 0 -119 -44 -119 -106c0 -61 49 -105 119 -105zM398 556h-51l-83 106l-80 -106h-51l95 144h72zM315 726l-33 9c10 31 35 55 73 55s72 -21 72 -69c0 -22 -6 -36 -19 -54h-40c17 17 23 35 23 52c0 26 -14 39 -36 39c-20 0 -33 -12 -40 -32z" />
    <glyph glyph-name="uni1EAF" unicode="&#x1eaf;" horiz-adv-x="527" 
d="M452 0h-75v55c-40 -44 -95 -67 -160 -67c-82 0 -169 55 -169 160c0 108 87 159 169 159c66 0 121 -21 160 -66v87c0 65 -52 102 -122 102c-58 0 -105 -21 -148 -67l-35 52c52 54 114 80 193 80c102 0 187 -46 187 -163v-332zM244 42c53 0 104 20 133 60v91
c-29 40 -80 60 -133 60c-70 0 -119 -44 -119 -106c0 -61 49 -105 119 -105zM435 766l-169 -144h-57l148 144h78zM440 609c-40 -54 -103 -88 -175 -88c-71 0 -135 34 -176 88l37 32c32 -44 80 -72 139 -72c58 0 107 27 138 72z" />
    <glyph glyph-name="uni1EAB" unicode="&#x1eab;" horiz-adv-x="527" 
d="M452 0h-75v55c-40 -44 -95 -67 -160 -67c-82 0 -169 55 -169 160c0 108 87 159 169 159c66 0 121 -21 160 -66v87c0 65 -52 102 -122 102c-58 0 -105 -21 -148 -67l-35 52c52 54 114 80 193 80c102 0 187 -46 187 -163v-332zM244 42c53 0 104 20 133 60v91
c-29 40 -80 60 -133 60c-70 0 -119 -44 -119 -106c0 -61 49 -105 119 -105zM398 523h-51l-83 106l-80 -106h-51l95 144h72zM323 682c-73 0 -75 92 -123 92c-27 0 -48 -26 -48 -86h-45c0 78 34 134 97 134c72 0 75 -92 123 -92c27 0 48 26 48 86h45c0 -78 -34 -134 -97 -134z
" />
    <glyph glyph-name="uni1EB1" unicode="&#x1eb1;" horiz-adv-x="527" 
d="M452 0h-75v55c-40 -44 -95 -67 -160 -67c-82 0 -169 55 -169 160c0 108 87 159 169 159c66 0 121 -21 160 -66v87c0 65 -52 102 -122 102c-58 0 -105 -21 -148 -67l-35 52c52 54 114 80 193 80c102 0 187 -46 187 -163v-332zM244 42c53 0 104 20 133 60v91
c-29 40 -80 60 -133 60c-70 0 -119 -44 -119 -106c0 -61 49 -105 119 -105zM319 622h-57l-169 144h78zM440 613c-40 -54 -103 -88 -175 -88c-71 0 -135 34 -176 88l37 32c32 -44 80 -72 139 -72c58 0 107 27 138 72z" />
    <glyph glyph-name="uni1EB3" unicode="&#x1eb3;" horiz-adv-x="527" 
d="M452 0h-75v55c-40 -44 -95 -67 -160 -67c-82 0 -169 55 -169 160c0 108 87 159 169 159c66 0 121 -21 160 -66v87c0 65 -52 102 -122 102c-58 0 -105 -21 -148 -67l-35 52c52 54 114 80 193 80c102 0 187 -46 187 -163v-332zM244 42c53 0 104 20 133 60v91
c-29 40 -80 60 -133 60c-70 0 -119 -44 -119 -106c0 -61 49 -105 119 -105zM224 681l-33 9c10 31 35 55 73 55s72 -21 72 -69c0 -22 -6 -36 -19 -54h-40c17 17 23 35 23 52c0 26 -14 39 -36 39c-20 0 -33 -12 -40 -32zM440 613c-40 -54 -103 -88 -175 -88
c-71 0 -135 34 -176 88l37 32c32 -44 80 -72 139 -72c58 0 107 27 138 72z" />
    <glyph glyph-name="uni1EB5" unicode="&#x1eb5;" horiz-adv-x="527" 
d="M452 0h-75v55c-40 -44 -95 -67 -160 -67c-82 0 -169 55 -169 160c0 108 87 159 169 159c66 0 121 -21 160 -66v87c0 65 -52 102 -122 102c-58 0 -105 -21 -148 -67l-35 52c52 54 114 80 193 80c102 0 187 -46 187 -163v-332zM244 42c53 0 104 20 133 60v91
c-29 40 -80 60 -133 60c-70 0 -119 -44 -119 -106c0 -61 49 -105 119 -105zM440 613c-40 -54 -103 -88 -175 -88c-71 0 -135 34 -176 88l37 32c32 -44 80 -72 139 -72c58 0 107 27 138 72zM323 657c-73 0 -75 92 -123 92c-27 0 -48 -26 -48 -86h-45c0 78 34 134 97 134
c72 0 75 -92 123 -92c27 0 48 26 48 86h45c0 -78 -34 -134 -97 -134z" />
    <glyph glyph-name="uni1EB7" unicode="&#x1eb7;" horiz-adv-x="527" 
d="M452 0h-75v55c-40 -44 -95 -67 -160 -67c-82 0 -169 55 -169 160c0 108 87 159 169 159c66 0 121 -21 160 -66v87c0 65 -52 102 -122 102c-58 0 -105 -21 -148 -67l-35 52c52 54 114 80 193 80c102 0 187 -46 187 -163v-332zM244 42c53 0 104 20 133 60v91
c-29 40 -80 60 -133 60c-70 0 -119 -44 -119 -106c0 -61 49 -105 119 -105zM264 -184c-25 0 -47 21 -47 47s22 47 47 47c26 0 46 -21 46 -47s-20 -47 -46 -47zM437 626c-40 -54 -103 -88 -175 -88c-71 0 -135 34 -176 88l37 32c32 -44 80 -72 139 -72c58 0 107 27 138 72z
" />
    <glyph glyph-name="ae" unicode="&#xe6;" horiz-adv-x="889" 
d="M843 217h-367c7 -91 65 -165 161 -165c52 0 103 21 139 61l36 -51c-47 -48 -110 -74 -178 -74c-85 0 -154 36 -193 116c-34 -69 -110 -116 -199 -116c-104 0 -194 55 -194 160c0 104 84 159 178 159c71 0 132 -20 175 -64v86c0 64 -54 101 -133 101
c-63 0 -114 -20 -161 -67l-35 52c53 54 122 80 205 80c79 0 153 -31 171 -105c33 58 91 105 179 105c138 0 216 -114 216 -259v-19zM476 272h293c-1 72 -43 161 -147 161c-95 0 -143 -87 -146 -161zM401 180v12c-33 39 -88 61 -145 61c-78 0 -131 -40 -131 -101
s53 -100 131 -100c85 0 145 64 145 128z" />
    <glyph glyph-name="aeacute" unicode="&#x1fd;" horiz-adv-x="889" 
d="M586 700l-169 -144h-57l148 144h78zM843 217h-367c7 -91 65 -165 161 -165c52 0 103 21 139 61l36 -51c-47 -48 -110 -74 -178 -74c-85 0 -154 36 -193 116c-34 -69 -110 -116 -199 -116c-104 0 -194 55 -194 160c0 104 84 159 178 159c71 0 132 -20 175 -64v86
c0 64 -54 101 -133 101c-63 0 -114 -20 -161 -67l-35 52c53 54 122 80 205 80c79 0 153 -31 171 -105c33 58 91 105 179 105c138 0 216 -114 216 -259v-19zM476 272h293c-1 72 -43 161 -147 161c-95 0 -143 -87 -146 -161zM401 180v12c-33 39 -88 61 -145 61
c-78 0 -131 -40 -131 -101s53 -100 131 -100c85 0 145 64 145 128z" />
    <glyph glyph-name="aacute.alt1" horiz-adv-x="575" 
d="M450 700l-169 -144h-57l148 144h78zM500 0h-75v72c-36 -49 -95 -84 -163 -84c-126 0 -215 96 -215 253c0 154 88 254 215 254c65 0 124 -32 162 -85v73h76v-483zM280 55c60 0 118 34 145 76v219c-27 42 -85 78 -145 78c-97 0 -155 -80 -155 -187s58 -186 155 -186z" />
    <glyph glyph-name="abreve.alt1" horiz-adv-x="575" 
d="M500 0h-75v72c-36 -49 -95 -84 -163 -84c-126 0 -215 96 -215 253c0 154 88 254 215 254c65 0 124 -32 162 -85v73h76v-483zM280 55c60 0 118 34 145 76v219c-27 42 -85 78 -145 78c-97 0 -155 -80 -155 -187s58 -186 155 -186zM469 626c-40 -54 -103 -88 -175 -88
c-71 0 -135 34 -176 88l37 32c32 -44 80 -72 139 -72c58 0 107 27 138 72z" />
    <glyph glyph-name="acircumflex.alt1" horiz-adv-x="575" 
d="M427 556h-51l-83 106l-80 -106h-51l95 144h72zM500 0h-75v72c-36 -49 -95 -84 -163 -84c-126 0 -215 96 -215 253c0 154 88 254 215 254c65 0 124 -32 162 -85v73h76v-483zM280 55c60 0 118 34 145 76v219c-27 42 -85 78 -145 78c-97 0 -155 -80 -155 -187
s58 -186 155 -186z" />
    <glyph glyph-name="adieresis.alt1" horiz-adv-x="575" 
d="M444 604c0 -26 -22 -47 -47 -47s-47 21 -47 47c0 25 22 46 47 46s47 -21 47 -46zM237 604c0 -26 -21 -47 -46 -47c-26 0 -47 21 -47 47c0 25 21 46 47 46c25 0 46 -21 46 -46zM500 0h-75v72c-36 -49 -95 -84 -163 -84c-126 0 -215 96 -215 253c0 154 88 254 215 254
c65 0 124 -32 162 -85v73h76v-483zM280 55c60 0 118 34 145 76v219c-27 42 -85 78 -145 78c-97 0 -155 -80 -155 -187s58 -186 155 -186z" />
    <glyph glyph-name="agrave.alt1" horiz-adv-x="575" 
d="M500 0h-75v72c-36 -49 -95 -84 -163 -84c-126 0 -215 96 -215 253c0 154 88 254 215 254c65 0 124 -32 162 -85v73h76v-483zM280 55c60 0 118 34 145 76v219c-27 42 -85 78 -145 78c-97 0 -155 -80 -155 -187s58 -186 155 -186zM338 556h-57l-169 144h78z" />
    <glyph glyph-name="amacron.alt1" horiz-adv-x="575" 
d="M476 572h-363v48h363v-48zM500 0h-75v72c-36 -49 -95 -84 -163 -84c-126 0 -215 96 -215 253c0 154 88 254 215 254c65 0 124 -32 162 -85v73h76v-483zM280 55c60 0 118 34 145 76v219c-27 42 -85 78 -145 78c-97 0 -155 -80 -155 -187s58 -186 155 -186z" />
    <glyph glyph-name="aogonek.alt1" horiz-adv-x="575" 
d="M500 0c-48 -24 -76 -55 -76 -97c0 -34 18 -50 44 -50c28 0 43 15 52 42l37 -21c-14 -32 -41 -60 -89 -60c-47 0 -89 26 -89 87c0 38 20 73 53 99h-7v72c-36 -49 -95 -84 -163 -84c-126 0 -215 96 -215 253c0 154 88 254 215 254c65 0 124 -32 162 -85v73h76v-483zM280 55
c60 0 118 34 145 76v219c-27 42 -85 78 -145 78c-97 0 -155 -80 -155 -187s58 -186 155 -186z" />
    <glyph glyph-name="aring.alt1" horiz-adv-x="575" 
d="M292 543c-54 0 -98 44 -98 98s44 99 98 99s98 -45 98 -99s-44 -98 -98 -98zM292 582c33 0 58 27 58 59c0 33 -25 59 -58 59c-32 0 -58 -26 -58 -59c0 -32 26 -59 58 -59zM500 0h-75v72c-36 -49 -95 -84 -163 -84c-126 0 -215 96 -215 253c0 154 88 254 215 254
c65 0 124 -32 162 -85v73h76v-483zM280 55c60 0 118 34 145 76v219c-27 42 -85 78 -145 78c-97 0 -155 -80 -155 -187s58 -186 155 -186z" />
    <glyph glyph-name="atilde.alt1" horiz-adv-x="575" 
d="M500 0h-75v72c-36 -49 -95 -84 -163 -84c-126 0 -215 96 -215 253c0 154 88 254 215 254c65 0 124 -32 162 -85v73h76v-483zM280 55c60 0 118 34 145 76v219c-27 42 -85 78 -145 78c-97 0 -155 -80 -155 -187s58 -186 155 -186zM353 554c-73 0 -75 92 -123 92
c-27 0 -48 -26 -48 -86h-45c0 78 34 134 97 134c72 0 75 -92 123 -92c27 0 48 26 48 86h45c0 -78 -34 -134 -97 -134z" />
    <glyph glyph-name="uni1EA1.alt1" horiz-adv-x="575" 
d="M500 0h-75v72c-36 -49 -95 -84 -163 -84c-126 0 -215 96 -215 253c0 154 88 254 215 254c65 0 124 -32 162 -85v73h76v-483zM280 55c60 0 118 34 145 76v219c-27 42 -85 78 -145 78c-97 0 -155 -80 -155 -187s58 -186 155 -186zM292 -184c-25 0 -47 21 -47 47
s22 47 47 47c26 0 46 -21 46 -47s-20 -47 -46 -47z" />
    <glyph glyph-name="uni1EA3.alt1" horiz-adv-x="575" 
d="M500 0h-75v72c-36 -49 -95 -84 -163 -84c-126 0 -215 96 -215 253c0 154 88 254 215 254c65 0 124 -32 162 -85v73h76v-483zM280 55c60 0 118 34 145 76v219c-27 42 -85 78 -145 78c-97 0 -155 -80 -155 -187s58 -186 155 -186zM255 586l-33 9c10 31 35 55 73 55
s72 -21 72 -69c0 -22 -6 -36 -19 -54h-40c17 17 23 35 23 52c0 26 -14 39 -36 39c-20 0 -33 -12 -40 -32z" />
    <glyph glyph-name="uni1EA5.alt1" horiz-adv-x="575" 
d="M427 556h-51l-83 106l-80 -106h-51l95 144h72zM613 770l-169 -144h-57l148 144h78zM500 0h-75v72c-36 -49 -95 -84 -163 -84c-126 0 -215 96 -215 253c0 154 88 254 215 254c65 0 124 -32 162 -85v73h76v-483zM280 55c60 0 118 34 145 76v219c-27 42 -85 78 -145 78
c-97 0 -155 -80 -155 -187s58 -186 155 -186z" />
    <glyph glyph-name="uni1EAD.alt1" horiz-adv-x="575" 
d="M428 556h-51l-83 106l-80 -106h-51l95 144h72zM500 0h-75v72c-36 -49 -95 -84 -163 -84c-126 0 -215 96 -215 253c0 154 88 254 215 254c65 0 124 -32 162 -85v73h76v-483zM280 55c60 0 118 34 145 76v219c-27 42 -85 78 -145 78c-97 0 -155 -80 -155 -187
s58 -186 155 -186zM295 -184c-25 0 -47 21 -47 47s22 47 47 47c26 0 46 -21 46 -47s-20 -47 -46 -47z" />
    <glyph glyph-name="uni1EA7.alt1" horiz-adv-x="575" 
d="M427 556h-51l-83 106l-80 -106h-51l95 144h72zM500 0h-75v72c-36 -49 -95 -84 -163 -84c-126 0 -215 96 -215 253c0 154 88 254 215 254c65 0 124 -32 162 -85v73h76v-483zM280 55c60 0 118 34 145 76v219c-27 42 -85 78 -145 78c-97 0 -155 -80 -155 -187
s58 -186 155 -186zM198 626h-57l-169 144h78z" />
    <glyph glyph-name="uni1EA9.alt1" horiz-adv-x="575" 
d="M427 556h-51l-83 106l-80 -106h-51l95 144h72zM500 0h-75v72c-36 -49 -95 -84 -163 -84c-126 0 -215 96 -215 253c0 154 88 254 215 254c65 0 124 -32 162 -85v73h76v-483zM280 55c60 0 118 34 145 76v219c-27 42 -85 78 -145 78c-97 0 -155 -80 -155 -187
s58 -186 155 -186zM343 726l-33 9c10 31 35 55 73 55s72 -21 72 -69c0 -22 -6 -36 -19 -54h-40c17 17 23 35 23 52c0 26 -14 39 -36 39c-20 0 -33 -12 -40 -32z" />
    <glyph glyph-name="uni1EAF.alt1" horiz-adv-x="575" 
d="M460 766l-169 -144h-57l148 144h78zM500 0h-75v72c-36 -49 -95 -84 -163 -84c-126 0 -215 96 -215 253c0 154 88 254 215 254c65 0 124 -32 162 -85v73h76v-483zM280 55c60 0 118 34 145 76v219c-27 42 -85 78 -145 78c-97 0 -155 -80 -155 -187s58 -186 155 -186z
M467 609c-40 -54 -103 -88 -175 -88c-71 0 -135 34 -176 88l37 32c32 -44 80 -72 139 -72c58 0 107 27 138 72z" />
    <glyph glyph-name="uni1EAB.alt1" horiz-adv-x="575" 
d="M427 523h-51l-83 106l-80 -106h-51l95 144h72zM500 0h-75v72c-36 -49 -95 -84 -163 -84c-126 0 -215 96 -215 253c0 154 88 254 215 254c65 0 124 -32 162 -85v73h76v-483zM280 55c60 0 118 34 145 76v219c-27 42 -85 78 -145 78c-97 0 -155 -80 -155 -187
s58 -186 155 -186zM349 682c-73 0 -75 92 -123 92c-27 0 -48 -26 -48 -86h-45c0 78 34 134 97 134c72 0 75 -92 123 -92c27 0 48 26 48 86h45c0 -78 -34 -134 -97 -134z" />
    <glyph glyph-name="uni1EB1.alt1" horiz-adv-x="575" 
d="M500 0h-75v72c-36 -49 -95 -84 -163 -84c-126 0 -215 96 -215 253c0 154 88 254 215 254c65 0 124 -32 162 -85v73h76v-483zM280 55c60 0 118 34 145 76v219c-27 42 -85 78 -145 78c-97 0 -155 -80 -155 -187s58 -186 155 -186zM344 622h-57l-169 144h78zM467 613
c-40 -54 -103 -88 -175 -88c-71 0 -135 34 -176 88l37 32c32 -44 80 -72 139 -72c58 0 107 27 138 72z" />
    <glyph glyph-name="uni1EB3.alt1" horiz-adv-x="575" 
d="M500 0h-75v72c-36 -49 -95 -84 -163 -84c-126 0 -215 96 -215 253c0 154 88 254 215 254c65 0 124 -32 162 -85v73h76v-483zM280 55c60 0 118 34 145 76v219c-27 42 -85 78 -145 78c-97 0 -155 -80 -155 -187s58 -186 155 -186zM251 681l-33 9c10 31 35 55 73 55
s72 -21 72 -69c0 -22 -6 -36 -19 -54h-40c17 17 23 35 23 52c0 26 -14 39 -36 39c-20 0 -33 -12 -40 -32zM467 613c-40 -54 -103 -88 -175 -88c-71 0 -135 34 -176 88l37 32c32 -44 80 -72 139 -72c58 0 107 27 138 72z" />
    <glyph glyph-name="uni1EB5.alt1" horiz-adv-x="575" 
d="M467 613c-40 -54 -103 -88 -175 -88c-71 0 -135 34 -176 88l37 32c32 -44 80 -72 139 -72c58 0 107 27 138 72zM500 0h-75v72c-36 -49 -95 -84 -163 -84c-126 0 -215 96 -215 253c0 154 88 254 215 254c65 0 124 -32 162 -85v73h76v-483zM280 55c60 0 118 34 145 76v219
c-27 42 -85 78 -145 78c-97 0 -155 -80 -155 -187s58 -186 155 -186zM349 658c-73 0 -75 92 -123 92c-27 0 -48 -26 -48 -86h-45c0 78 34 134 97 134c72 0 75 -92 123 -92c27 0 48 26 48 86h45c0 -78 -34 -134 -97 -134z" />
    <glyph glyph-name="uni1EB7.alt1" horiz-adv-x="575" 
d="M500 0h-75v72c-36 -49 -95 -84 -163 -84c-126 0 -215 96 -215 253c0 154 88 254 215 254c65 0 124 -32 162 -85v73h76v-483zM280 55c60 0 118 34 145 76v219c-27 42 -85 78 -145 78c-97 0 -155 -80 -155 -187s58 -186 155 -186zM295 -184c-25 0 -47 21 -47 47
s22 47 47 47c26 0 46 -21 46 -47s-20 -47 -46 -47zM467 626c-40 -54 -103 -88 -175 -88c-71 0 -135 34 -176 88l37 32c32 -44 80 -72 139 -72c58 0 107 27 138 72z" />
    <glyph glyph-name="ae.alt1" horiz-adv-x="936" 
d="M280 55c60 0 118 34 145 76v219c-27 42 -85 78 -145 78c-97 0 -155 -80 -155 -187s58 -186 155 -186zM500 97v-97h-75v72c-36 -49 -95 -84 -163 -84c-126 0 -215 96 -215 253c0 154 88 254 215 254c65 0 124 -32 162 -85v73h76v-98c33 64 92 110 175 110
c136 0 215 -114 215 -259v-19h-390c6 -91 69 -165 173 -165c56 0 111 21 150 61l35 -51c-42 -44 -101 -74 -174 -74c-95 0 -153 49 -184 109zM817 272c-2 72 -50 161 -159 161c-103 0 -155 -87 -158 -161h317z" />
    <glyph glyph-name="aeacute.alt1" horiz-adv-x="936" 
d="M280 55c60 0 118 34 145 76v219c-27 42 -85 78 -145 78c-97 0 -155 -80 -155 -187s58 -186 155 -186zM500 97v-97h-75v72c-36 -49 -95 -84 -163 -84c-126 0 -215 96 -215 253c0 154 88 254 215 254c65 0 124 -32 162 -85v73h76v-98c33 64 92 110 175 110
c136 0 215 -114 215 -259v-19h-390c6 -91 69 -165 173 -165c56 0 111 21 150 61l35 -51c-42 -44 -101 -74 -174 -74c-95 0 -153 49 -184 109zM817 272c-2 72 -50 161 -159 161c-103 0 -155 -87 -158 -161h317zM633 700l-169 -144h-57l148 144h78z" />
    <glyph glyph-name="uni1E03" unicode="&#x1e03;" horiz-adv-x="575" 
d="M150 131c26 -42 85 -76 144 -76c98 0 156 79 156 186s-58 187 -156 187c-59 0 -118 -36 -144 -78v-219zM150 0h-75v667h75v-257c39 53 97 85 163 85c126 0 215 -100 215 -254c0 -157 -89 -253 -215 -253c-68 0 -127 35 -163 84v-72zM294 722c-25 0 -47 21 -47 47
s22 47 47 47c26 0 46 -21 46 -47s-20 -47 -46 -47z" />
    <glyph glyph-name="cacute" unicode="&#x107;" horiz-adv-x="495" 
d="M456 700l-169 -144h-57l148 144h78zM288 -12c-144 0 -241 110 -241 254c0 143 97 253 241 253c88 0 140 -36 177 -84l-50 -46c-32 44 -73 63 -123 63c-103 0 -167 -79 -167 -186s64 -187 167 -187c50 0 91 20 123 63l50 -46c-37 -48 -89 -84 -177 -84z" />
    <glyph glyph-name="ccedilla" unicode="&#xe7;" horiz-adv-x="495" 
d="M289 -189c-43 0 -81 14 -101 30l19 38c24 -20 53 -29 80 -29c32 0 61 15 61 42c0 21 -12 35 -37 35c-14 0 -29 -7 -38 -17l-33 19l22 61c-129 12 -215 116 -215 252c0 143 97 253 241 253c88 0 140 -36 177 -84l-50 -46c-32 44 -73 63 -123 63c-103 0 -167 -79 -167 -186
s64 -187 167 -187c50 0 91 20 123 63l50 -46c-35 -45 -82 -78 -159 -83l-16 -42c10 7 24 11 37 11c38 0 66 -26 66 -67c0 -49 -47 -80 -104 -80z" />
    <glyph glyph-name="ccircumflex" unicode="&#x109;" horiz-adv-x="495" 
d="M421 556h-51l-83 106l-80 -106h-51l95 144h72zM288 -12c-144 0 -241 110 -241 254c0 143 97 253 241 253c88 0 140 -36 177 -84l-50 -46c-32 44 -73 63 -123 63c-103 0 -167 -79 -167 -186s64 -187 167 -187c50 0 91 20 123 63l50 -46c-37 -48 -89 -84 -177 -84z" />
    <glyph glyph-name="cdotaccent" unicode="&#x10b;" horiz-adv-x="495" 
d="M288 -12c-144 0 -241 110 -241 254c0 143 97 253 241 253c88 0 140 -36 177 -84l-50 -46c-32 44 -73 63 -123 63c-103 0 -167 -79 -167 -186s64 -187 167 -187c50 0 91 20 123 63l50 -46c-37 -48 -89 -84 -177 -84zM290 555c-25 0 -47 21 -47 47s22 47 47 47
c26 0 46 -21 46 -47s-20 -47 -46 -47z" />
    <glyph glyph-name="ccaron" unicode="&#x10d;" horiz-adv-x="495" 
d="M326 556h-72l-98 144h51l83 -106l80 106h51zM288 -12c-144 0 -241 110 -241 254c0 143 97 253 241 253c88 0 140 -36 177 -84l-50 -46c-32 44 -73 63 -123 63c-103 0 -167 -79 -167 -186s64 -187 167 -187c50 0 91 20 123 63l50 -46c-37 -48 -89 -84 -177 -84z" />
    <glyph glyph-name="dcaron" unicode="&#x10f;" horiz-adv-x="644" 
d="M648 613c0 -54 -32 -105 -71 -134l-33 26c30 20 55 57 58 86c-1 -1 -8 -2 -11 -2c-24 0 -42 19 -42 44c0 26 20 47 46 47c28 0 53 -24 53 -67zM500 0h-75v72c-36 -49 -95 -84 -163 -84c-126 0 -215 96 -215 253c0 154 88 254 215 254c65 0 124 -32 163 -85v257h75v-667z
M280 55c60 0 118 34 145 76v219c-27 42 -85 78 -145 78c-97 0 -155 -80 -155 -187s58 -186 155 -186z" />
    <glyph glyph-name="dcroat" unicode="&#x111;" horiz-adv-x="577" 
d="M500 0h-75v72c-36 -49 -95 -84 -163 -84c-126 0 -215 96 -215 253c0 154 88 254 215 254c65 0 124 -32 163 -85v125h-157v48h157v84h75v-84h68v-48h-68v-535zM280 55c60 0 118 34 145 76v219c-27 42 -85 78 -145 78c-97 0 -155 -80 -155 -187s58 -186 155 -186z" />
    <glyph glyph-name="uni1E0B" unicode="&#x1e0b;" horiz-adv-x="575" 
d="M500 0h-75v72c-36 -49 -95 -84 -163 -84c-126 0 -215 96 -215 253c0 154 88 254 215 254c65 0 124 -32 163 -85v257h75v-667zM280 55c60 0 118 34 145 76v219c-27 42 -85 78 -145 78c-97 0 -155 -80 -155 -187s58 -186 155 -186zM282 722c-25 0 -47 21 -47 47
s22 47 47 47c26 0 46 -21 46 -47s-20 -47 -46 -47z" />
    <glyph glyph-name="eacute" unicode="&#xe9;" horiz-adv-x="563" 
d="M454 700l-169 -144h-57l148 144h78zM293 -12c-143 0 -246 103 -246 254c0 140 100 253 238 253c146 0 232 -114 232 -259v-19h-391c6 -91 70 -167 174 -167c55 0 111 22 149 61l36 -49c-48 -48 -113 -74 -192 -74zM443 272c-1 72 -49 161 -159 161
c-103 0 -154 -87 -158 -161h317z" />
    <glyph glyph-name="ebreve" unicode="&#x115;" horiz-adv-x="563" 
d="M293 -12c-143 0 -246 103 -246 254c0 140 100 253 238 253c146 0 232 -114 232 -259v-19h-391c6 -91 70 -167 174 -167c55 0 111 22 149 61l36 -49c-48 -48 -113 -74 -192 -74zM443 272c-1 72 -49 161 -159 161c-103 0 -154 -87 -158 -161h317zM462 626
c-40 -54 -103 -88 -175 -88c-71 0 -135 34 -176 88l37 32c32 -44 80 -72 139 -72c58 0 107 27 138 72z" />
    <glyph glyph-name="ecircumflex" unicode="&#xea;" horiz-adv-x="563" 
d="M419 556h-51l-83 106l-80 -106h-51l95 144h72zM293 -12c-143 0 -246 103 -246 254c0 140 100 253 238 253c146 0 232 -114 232 -259v-19h-391c6 -91 70 -167 174 -167c55 0 111 22 149 61l36 -49c-48 -48 -113 -74 -192 -74zM443 272c-1 72 -49 161 -159 161
c-103 0 -154 -87 -158 -161h317z" />
    <glyph glyph-name="edieresis" unicode="&#xeb;" horiz-adv-x="563" 
d="M436 604c0 -26 -22 -47 -47 -47s-47 21 -47 47c0 25 22 46 47 46s47 -21 47 -46zM229 604c0 -26 -21 -47 -46 -47c-26 0 -47 21 -47 47c0 25 21 46 47 46c25 0 46 -21 46 -46zM293 -12c-143 0 -246 103 -246 254c0 140 100 253 238 253c146 0 232 -114 232 -259v-19h-391
c6 -91 70 -167 174 -167c55 0 111 22 149 61l36 -49c-48 -48 -113 -74 -192 -74zM443 272c-1 72 -49 161 -159 161c-103 0 -154 -87 -158 -161h317z" />
    <glyph glyph-name="edotaccent" unicode="&#x117;" horiz-adv-x="563" 
d="M293 -12c-143 0 -246 103 -246 254c0 140 100 253 238 253c146 0 232 -114 232 -259v-19h-391c6 -91 70 -167 174 -167c55 0 111 22 149 61l36 -49c-48 -48 -113 -74 -192 -74zM443 272c-1 72 -49 161 -159 161c-103 0 -154 -87 -158 -161h317zM286 555
c-25 0 -47 21 -47 47s22 47 47 47c26 0 46 -21 46 -47s-20 -47 -46 -47z" />
    <glyph glyph-name="egrave" unicode="&#xe8;" horiz-adv-x="563" 
d="M293 -12c-143 0 -246 103 -246 254c0 140 100 253 238 253c146 0 232 -114 232 -259v-19h-391c6 -91 70 -167 174 -167c55 0 111 22 149 61l36 -49c-48 -48 -113 -74 -192 -74zM443 272c-1 72 -49 161 -159 161c-103 0 -154 -87 -158 -161h317zM342 556h-57l-169 144h78z
" />
    <glyph glyph-name="emacron" unicode="&#x113;" horiz-adv-x="563" 
d="M293 -12c-143 0 -246 103 -246 254c0 140 100 253 238 253c146 0 232 -114 232 -259v-19h-391c6 -91 70 -167 174 -167c55 0 111 22 149 61l36 -49c-48 -48 -113 -74 -192 -74zM443 272c-1 72 -49 161 -159 161c-103 0 -154 -87 -158 -161h317zM466 572h-363v48h363v-48z
" />
    <glyph glyph-name="eogonek" unicode="&#x119;" horiz-adv-x="563" 
d="M293 -12c-143 0 -246 103 -246 254c0 140 100 253 238 253c146 0 232 -114 232 -259v-19h-391c6 -91 70 -167 174 -167c55 0 111 22 149 61l36 -49c-30 -30 -65 -51 -106 -62c-48 -24 -75 -55 -75 -97c0 -34 18 -50 44 -50c28 0 43 15 52 42l37 -21
c-14 -32 -41 -60 -89 -60c-47 0 -89 26 -89 87c0 33 15 63 39 87h-5zM443 272c-1 72 -49 161 -159 161c-103 0 -154 -87 -158 -161h317z" />
    <glyph glyph-name="ecaron" unicode="&#x11b;" horiz-adv-x="563" 
d="M323 556h-72l-98 144h51l83 -106l80 106h51zM293 -12c-143 0 -246 103 -246 254c0 140 100 253 238 253c146 0 232 -114 232 -259v-19h-391c6 -91 70 -167 174 -167c55 0 111 22 149 61l36 -49c-48 -48 -113 -74 -192 -74zM443 272c-1 72 -49 161 -159 161
c-103 0 -154 -87 -158 -161h317z" />
    <glyph glyph-name="uni1EB9" unicode="&#x1eb9;" horiz-adv-x="563" 
d="M293 -12c-143 0 -246 103 -246 254c0 140 100 253 238 253c146 0 232 -114 232 -259v-19h-391c6 -91 70 -167 174 -167c55 0 111 22 149 61l36 -49c-48 -48 -113 -74 -192 -74zM443 272c-1 72 -49 161 -159 161c-103 0 -154 -87 -158 -161h317zM286 -184
c-25 0 -47 21 -47 47s22 47 47 47c26 0 46 -21 46 -47s-20 -47 -46 -47z" />
    <glyph glyph-name="uni1EBB" unicode="&#x1ebb;" horiz-adv-x="563" 
d="M293 -12c-143 0 -246 103 -246 254c0 140 100 253 238 253c146 0 232 -114 232 -259v-19h-391c6 -91 70 -167 174 -167c55 0 111 22 149 61l36 -49c-48 -48 -113 -74 -192 -74zM443 272c-1 72 -49 161 -159 161c-103 0 -154 -87 -158 -161h317zM244 586l-33 9
c10 31 35 55 73 55s72 -21 72 -69c0 -22 -6 -36 -19 -54h-40c17 17 23 35 23 52c0 26 -14 39 -36 39c-20 0 -33 -12 -40 -32z" />
    <glyph glyph-name="uni1EBD" unicode="&#x1ebd;" horiz-adv-x="563" 
d="M293 -12c-143 0 -246 103 -246 254c0 140 100 253 238 253c146 0 232 -114 232 -259v-19h-391c6 -91 70 -167 174 -167c55 0 111 22 149 61l36 -49c-48 -48 -113 -74 -192 -74zM443 272c-1 72 -49 161 -159 161c-103 0 -154 -87 -158 -161h317zM344 554
c-73 0 -75 92 -123 92c-27 0 -48 -26 -48 -86h-45c0 78 34 134 97 134c72 0 75 -92 123 -92c27 0 48 26 48 86h45c0 -78 -34 -134 -97 -134z" />
    <glyph glyph-name="uni1EBF" unicode="&#x1ebf;" horiz-adv-x="563" 
d="M418 556h-51l-83 106l-80 -106h-51l95 144h72zM604 770l-169 -144h-57l148 144h78zM293 -12c-143 0 -246 103 -246 254c0 140 100 253 238 253c146 0 232 -114 232 -259v-19h-391c6 -91 70 -167 174 -167c55 0 111 22 149 61l36 -49c-48 -48 -113 -74 -192 -74zM443 272
c-1 72 -49 161 -159 161c-103 0 -154 -87 -158 -161h317z" />
    <glyph glyph-name="uni1EC1" unicode="&#x1ec1;" horiz-adv-x="563" 
d="M417 556h-51l-83 106l-80 -106h-51l95 144h72zM293 -12c-143 0 -246 103 -246 254c0 140 100 253 238 253c146 0 232 -114 232 -259v-19h-391c6 -91 70 -167 174 -167c55 0 111 22 149 61l36 -49c-48 -48 -113 -74 -192 -74zM443 272c-1 72 -49 161 -159 161
c-103 0 -154 -87 -158 -161h317zM188 626h-57l-169 144h78z" />
    <glyph glyph-name="uni1EC3" unicode="&#x1ec3;" horiz-adv-x="563" 
d="M416 556h-51l-83 106l-80 -106h-51l95 144h72zM293 -12c-143 0 -246 103 -246 254c0 140 100 253 238 253c146 0 232 -114 232 -259v-19h-391c6 -91 70 -167 174 -167c55 0 111 22 149 61l36 -49c-48 -48 -113 -74 -192 -74zM443 272c-1 72 -49 161 -159 161
c-103 0 -154 -87 -158 -161h317zM333 726l-33 9c10 31 35 55 73 55s72 -21 72 -69c0 -22 -6 -36 -19 -54h-40c17 17 23 35 23 52c0 26 -14 39 -36 39c-20 0 -33 -12 -40 -32z" />
    <glyph glyph-name="uni1EC5" unicode="&#x1ec5;" horiz-adv-x="563" 
d="M416 523h-51l-83 106l-80 -106h-51l95 144h72zM293 -12c-143 0 -246 103 -246 254c0 140 100 253 238 253c146 0 232 -114 232 -259v-19h-391c6 -91 70 -167 174 -167c55 0 111 22 149 61l36 -49c-48 -48 -113 -74 -192 -74zM443 272c-1 72 -49 161 -159 161
c-103 0 -154 -87 -158 -161h317zM340 682c-73 0 -75 92 -123 92c-27 0 -48 -26 -48 -86h-45c0 78 34 134 97 134c72 0 75 -92 123 -92c27 0 48 26 48 86h45c0 -78 -34 -134 -97 -134z" />
    <glyph glyph-name="uni1EC7" unicode="&#x1ec7;" horiz-adv-x="563" 
d="M419 556h-51l-83 106l-80 -106h-51l95 144h72zM293 -12c-143 0 -246 103 -246 254c0 140 100 253 238 253c146 0 232 -114 232 -259v-19h-391c6 -91 70 -167 174 -167c55 0 111 22 149 61l36 -49c-48 -48 -113 -74 -192 -74zM443 272c-1 72 -49 161 -159 161
c-103 0 -154 -87 -158 -161h317zM286 -184c-25 0 -47 21 -47 47s22 47 47 47c26 0 46 -21 46 -47s-20 -47 -46 -47z" />
    <glyph glyph-name="fl.alt1" horiz-adv-x="552" 
d="M171 0h-75v417h-80v66h80v37c0 100 56 157 140 157c28 0 54 -5 73 -17l-19 -57c-11 7 -24 12 -43 12c-49 0 -76 -34 -76 -95v-37h98v-66h-98v-417zM465 -12c-71 0 -107 41 -107 113v566h75v-550c0 -36 16 -62 49 -62c21 0 40 9 50 20l22 -56c-19 -18 -45 -31 -89 -31z
" />
    <glyph glyph-name="f_f_l.alt1" horiz-adv-x="835" 
d="M454 0h-75v417h-80v66h80v37c0 100 56 157 140 157c28 0 54 -5 73 -17l-19 -57c-11 7 -24 12 -43 12c-49 0 -76 -34 -76 -95v-37h98v-66h-98v-417zM749 -12c-71 0 -107 41 -107 113v566h75v-550c0 -36 16 -62 49 -62c21 0 40 9 50 20l22 -56c-19 -18 -45 -31 -89 -31z
M171 0h-75v417h-80v66h80v37c0 99 54 157 140 157c38 0 72 -9 102 -37l-31 -49c-16 14 -35 24 -60 24c-49 0 -76 -34 -76 -95v-37h98v-66h-98v-417z" />
    <glyph glyph-name="uni1E1F" unicode="&#x1e1f;" horiz-adv-x="283" 
d="M237 722c-25 0 -47 21 -47 47s22 47 47 47c26 0 46 -21 46 -47s-20 -47 -46 -47zM171 0h-75v417h-80v66h80v37c0 99 54 157 140 157c38 0 72 -9 102 -37l-31 -49c-16 14 -35 24 -60 24c-49 0 -76 -34 -76 -95v-37h98v-66h-98v-417z" />
    <glyph glyph-name="gcircumflex" unicode="&#x11d;" horiz-adv-x="574" 
d="M423 556h-51l-83 106l-80 -106h-51l95 144h72zM269 -196c-82 0 -138 16 -195 72l38 56c40 -48 88 -66 157 -66c80 0 155 39 155 145v69c-35 -49 -94 -86 -162 -86c-126 0 -215 94 -215 250c0 155 88 251 215 251c65 0 123 -32 162 -85v73h75v-469
c0 -160 -112 -210 -230 -210zM280 60c60 0 118 37 144 79v211c-26 42 -84 78 -144 78c-97 0 -155 -77 -155 -184c0 -106 58 -184 155 -184z" />
    <glyph glyph-name="gbreve" unicode="&#x11f;" horiz-adv-x="574" 
d="M269 -196c-82 0 -138 16 -195 72l38 56c40 -48 88 -66 157 -66c80 0 155 39 155 145v69c-35 -49 -94 -86 -162 -86c-126 0 -215 94 -215 250c0 155 88 251 215 251c65 0 123 -32 162 -85v73h75v-469c0 -160 -112 -210 -230 -210zM280 60c60 0 118 37 144 79v211
c-26 42 -84 78 -144 78c-97 0 -155 -77 -155 -184c0 -106 58 -184 155 -184zM465 626c-40 -54 -103 -88 -175 -88c-71 0 -135 34 -176 88l37 32c32 -44 80 -72 139 -72c58 0 107 27 138 72z" />
    <glyph glyph-name="gdotaccent" unicode="&#x121;" horiz-adv-x="574" 
d="M269 -196c-82 0 -138 16 -195 72l38 56c40 -48 88 -66 157 -66c80 0 155 39 155 145v69c-35 -49 -94 -86 -162 -86c-126 0 -215 94 -215 250c0 155 88 251 215 251c65 0 123 -32 162 -85v73h75v-469c0 -160 -112 -210 -230 -210zM280 60c60 0 118 37 144 79v211
c-26 42 -84 78 -144 78c-97 0 -155 -77 -155 -184c0 -106 58 -184 155 -184zM289 555c-25 0 -47 21 -47 47s22 47 47 47c26 0 46 -21 46 -47s-20 -47 -46 -47z" />
    <glyph glyph-name="gcommaaccent" unicode="&#x123;" horiz-adv-x="574" 
d="M238 611c0 60 31 114 69 141l33 -27c-28 -19 -55 -54 -57 -84c0 0 2 1 5 1c22 0 46 -20 46 -45c0 -24 -21 -46 -48 -46c-23 0 -48 19 -48 60zM269 -196c-82 0 -138 16 -195 72l38 56c40 -48 88 -66 157 -66c80 0 155 39 155 145v69c-35 -49 -94 -86 -162 -86
c-126 0 -215 94 -215 250c0 155 88 251 215 251c65 0 123 -32 162 -85v73h75v-469c0 -160 -112 -210 -230 -210zM280 60c60 0 118 37 144 79v211c-26 42 -84 78 -144 78c-97 0 -155 -77 -155 -184c0 -106 58 -184 155 -184z" />
    <glyph glyph-name="hbar" unicode="&#x127;" horiz-adv-x="554" 
d="M308 535h-156v-122c34 40 100 82 173 82c101 0 154 -49 154 -154v-341h-75v318c0 85 -44 110 -109 110c-58 0 -114 -36 -143 -75v-353h-75v535h-68v48h68v84h75v-84h156v-48z" />
    <glyph glyph-name="hcircumflex" unicode="&#x125;" horiz-adv-x="552" 
d="M410 723h-51l-83 106l-80 -106h-51l95 144h72zM477 0h-75v318c0 85 -44 110 -109 110c-58 0 -114 -36 -143 -75v-353h-75v667h75v-254c34 40 100 82 173 82c101 0 154 -49 154 -154v-341z" />
    <glyph glyph-name="uni1E23" unicode="&#x1e23;" horiz-adv-x="552" 
d="M477 0h-75v318c0 85 -44 110 -109 110c-58 0 -114 -36 -143 -75v-353h-75v667h75v-254c34 40 100 82 173 82c101 0 154 -49 154 -154v-341zM276 722c-25 0 -47 21 -47 47s22 47 47 47c26 0 46 -21 46 -47s-20 -47 -46 -47z" />
    <glyph glyph-name="dotlessi" unicode="&#x131;" horiz-adv-x="225" 
d="M150 0h-75v483h75v-483z" />
    <glyph glyph-name="iacute" unicode="&#xed;" horiz-adv-x="225" 
d="M282 700l-169 -144h-57l148 144h78zM150 0h-75v483h75v-483z" />
    <glyph glyph-name="ibreve" unicode="&#x12d;" horiz-adv-x="225" 
d="M150 0h-75v483h75v-483zM288 626c-40 -54 -103 -88 -175 -88c-71 0 -135 34 -176 88l37 32c32 -44 80 -72 139 -72c58 0 107 27 138 72z" />
    <glyph glyph-name="icircumflex" unicode="&#xee;" horiz-adv-x="225" 
d="M245 556h-51l-83 106l-80 -106h-51l95 144h72zM150 0h-75v483h75v-483z" />
    <glyph glyph-name="idieresis" unicode="&#xef;" horiz-adv-x="225" 
d="M263 604c0 -26 -22 -47 -47 -47s-47 21 -47 47c0 25 22 46 47 46s47 -21 47 -46zM56 604c0 -26 -21 -47 -46 -47c-26 0 -47 21 -47 47c0 25 21 46 47 46c25 0 46 -21 46 -46zM150 0h-75v483h75v-483z" />
    <glyph glyph-name="igrave" unicode="&#xec;" horiz-adv-x="225" 
d="M150 0h-75v483h75v-483zM169 556h-57l-169 144h78z" />
    <glyph glyph-name="imacron" unicode="&#x12b;" horiz-adv-x="225" 
d="M150 0h-75v483h75v-483zM294 572h-363v48h363v-48z" />
    <glyph glyph-name="iogonek" unicode="&#x12f;" horiz-adv-x="225" 
d="M170 -105l37 -21c-14 -32 -41 -60 -89 -60c-47 0 -89 26 -89 87c0 38 20 73 53 99h-7v483h75v-483c-48 -24 -76 -55 -76 -97c0 -34 18 -50 44 -50c28 0 43 15 52 42zM112 552c-27 0 -50 22 -50 50s23 51 50 51c28 0 51 -23 51 -51s-23 -50 -51 -50z" />
    <glyph glyph-name="itilde" unicode="&#x129;" horiz-adv-x="225" 
d="M150 0h-75v483h75v-483zM172 554c-73 0 -75 92 -123 92c-27 0 -48 -26 -48 -86h-45c0 78 34 134 97 134c72 0 75 -92 123 -92c27 0 48 26 48 86h45c0 -78 -34 -134 -97 -134z" />
    <glyph glyph-name="uni1EC9" unicode="&#x1ec9;" horiz-adv-x="225" 
d="M150 0h-75v483h75v-483zM73 586l-33 9c10 31 35 55 73 55s72 -21 72 -69c0 -22 -6 -36 -19 -54h-40c17 17 23 35 23 52c0 26 -14 39 -36 39c-20 0 -33 -12 -40 -32z" />
    <glyph glyph-name="uni1ECB" unicode="&#x1ecb;" horiz-adv-x="225" 
d="M112 552c-27 0 -50 22 -50 50s23 51 50 51c28 0 51 -23 51 -51s-23 -50 -51 -50zM150 0h-75v483h75v-483zM113 -184c-25 0 -47 21 -47 47s22 47 47 47c26 0 46 -21 46 -47s-20 -47 -46 -47z" />
    <glyph glyph-name="ij" unicode="&#x133;" horiz-adv-x="451" 
d="M112 552c-27 0 -50 22 -50 50s23 51 50 51c28 0 51 -23 51 -51s-23 -50 -51 -50zM150 0h-75v483h75v-483zM337 552c-27 0 -50 22 -50 50s23 51 50 51c28 0 51 -23 51 -51s-23 -50 -51 -50zM232 -196c-49 0 -75 12 -106 36l27 57c17 -17 39 -31 69 -31c45 0 78 26 78 87
v530h75v-530c0 -95 -51 -149 -143 -149z" />
    <glyph glyph-name="uni0237" unicode="&#x237;" horiz-adv-x="225" 
d="M7 -196c-49 0 -75 12 -106 36l27 57c17 -17 39 -31 69 -31c45 0 78 26 78 87v530h75v-530c0 -95 -51 -149 -143 -149z" />
    <glyph glyph-name="jcircumflex" unicode="&#x135;" horiz-adv-x="225" 
d="M247 556h-51l-83 106l-80 -106h-51l95 144h72zM7 -196c-49 0 -75 12 -106 36l27 57c17 -17 39 -31 69 -31c45 0 78 26 78 87v530h75v-530c0 -95 -51 -149 -143 -149z" />
    <glyph glyph-name="kcommaaccent" unicode="&#x137;" horiz-adv-x="514" 
d="M314 -138c0 -54 -32 -105 -71 -134l-33 26c30 20 55 57 58 86c-1 -1 -8 -2 -11 -2c-24 0 -42 19 -42 44c0 26 20 47 46 47c28 0 53 -24 53 -67zM500 0h-96l-174 217l-80 -79v-138h-75v667h75v-441l254 257h95l-214 -219z" />
    <glyph glyph-name="kgreenlandic" unicode="&#x138;" horiz-adv-x="514" 
d="M500 0h-96l-174 217l-80 -79v-138h-75v483h75v-257l254 257h95l-214 -219z" />
    <glyph glyph-name="lacute" unicode="&#x13a;" horiz-adv-x="225" 
d="M282 867l-169 -144h-57l148 144h78zM150 0h-75v667h75v-667z" />
    <glyph glyph-name="lcommaaccent" unicode="&#x13c;" horiz-adv-x="225" 
d="M170 -138c0 -54 -32 -105 -71 -134l-33 26c30 20 55 57 58 86c-1 -1 -8 -2 -11 -2c-24 0 -42 19 -42 44c0 26 20 47 46 47c28 0 53 -24 53 -67zM150 0h-75v667h75v-667z" />
    <glyph glyph-name="lcaron" unicode="&#x13e;" horiz-adv-x="291" 
d="M311 613c0 -54 -32 -105 -71 -134l-33 26c30 20 55 57 58 86c-1 -1 -8 -2 -11 -2c-24 0 -42 19 -42 44c0 26 20 47 46 47c28 0 53 -24 53 -67zM150 0h-75v667h75v-667z" />
    <glyph glyph-name="ldot" unicode="&#x140;" horiz-adv-x="307" 
d="M150 0h-75v667h75v-667zM321 244c0 -29 -25 -54 -55 -54s-55 25 -55 54c0 30 25 55 55 55s55 -25 55 -55z" />
    <glyph glyph-name="lslash" unicode="&#x142;" horiz-adv-x="287" 
d="M10 228v60l96 55v324h75v-281l95 54v-60l-95 -54v-326h-75v283z" />
    <glyph glyph-name="lacute.alt1" horiz-adv-x="268" 
d="M282 867l-169 -144h-57l148 144h78zM182 -12c-71 0 -107 41 -107 113v566h75v-550c0 -36 16 -62 49 -62c21 0 40 9 50 20l22 -56c-19 -18 -45 -31 -89 -31z" />
    <glyph glyph-name="lcommaaccent.alt1" horiz-adv-x="268" 
d="M184 -138c0 -54 -32 -105 -71 -134l-33 26c30 20 55 57 58 86c-1 -1 -8 -2 -11 -2c-24 0 -42 19 -42 44c0 26 20 47 46 47c28 0 53 -24 53 -67zM182 -12c-71 0 -107 41 -107 113v566h75v-550c0 -36 16 -62 49 -62c21 0 40 9 50 20l22 -56c-19 -18 -45 -31 -89 -31z" />
    <glyph glyph-name="lcaron.alt1" horiz-adv-x="293" 
d="M311 613c0 -54 -32 -105 -71 -134l-33 26c30 20 55 57 58 86c-1 -1 -8 -2 -11 -2c-24 0 -42 19 -42 44c0 26 20 47 46 47c28 0 53 -24 53 -67zM182 -12c-71 0 -107 41 -107 113v566h75v-550c0 -36 16 -62 49 -62c21 0 40 9 50 20l22 -56c-19 -18 -45 -31 -89 -31z" />
    <glyph glyph-name="ldot.alt1" horiz-adv-x="307" 
d="M182 -12c-71 0 -107 41 -107 113v566h75v-550c0 -36 16 -62 49 -62c21 0 40 9 50 20l22 -56c-19 -18 -45 -31 -89 -31zM321 244c0 -29 -25 -54 -55 -54s-55 25 -55 54c0 30 25 55 55 55s55 -25 55 -55z" />
    <glyph glyph-name="lslash.alt1" horiz-adv-x="299" 
d="M10 228v60l95 54v325h75v-282l96 55v-60l-96 -55v-208c0 -36 16 -62 49 -62c21 0 40 9 50 20l22 -56c-19 -18 -45 -31 -89 -31c-71 0 -107 41 -107 113v181z" />
    <glyph glyph-name="nacute" unicode="&#x144;" horiz-adv-x="551" 
d="M444 700l-169 -144h-57l148 144h78zM476 0h-75v316c0 85 -43 112 -108 112c-59 0 -115 -36 -143 -75v-353h-75v483h75v-70c34 40 100 82 172 82c101 0 154 -51 154 -156v-339z" />
    <glyph glyph-name="napostrophe" unicode="&#x149;" horiz-adv-x="551" 
d="M161 676c0 -54 -32 -105 -71 -134l-33 26c30 20 55 57 58 86c-1 -1 -8 -2 -11 -2c-24 0 -42 19 -42 44c0 26 20 47 46 47c28 0 53 -24 53 -67zM476 0h-75v316c0 85 -43 112 -108 112c-59 0 -115 -36 -143 -75v-353h-75v483h75v-70c34 40 100 82 172 82
c101 0 154 -51 154 -156v-339z" />
    <glyph glyph-name="ncaron" unicode="&#x148;" horiz-adv-x="551" 
d="M314 556h-72l-98 144h51l83 -106l80 106h51zM476 0h-75v316c0 85 -43 112 -108 112c-59 0 -115 -36 -143 -75v-353h-75v483h75v-70c34 40 100 82 172 82c101 0 154 -51 154 -156v-339z" />
    <glyph glyph-name="ncommaaccent" unicode="&#x146;" horiz-adv-x="551" 
d="M330 -138c0 -54 -32 -105 -71 -134l-33 26c30 20 55 57 58 86c-1 -1 -8 -2 -11 -2c-24 0 -42 19 -42 44c0 26 20 47 46 47c28 0 53 -24 53 -67zM476 0h-75v316c0 85 -43 112 -108 112c-59 0 -115 -36 -143 -75v-353h-75v483h75v-70c34 40 100 82 172 82
c101 0 154 -51 154 -156v-339z" />
    <glyph glyph-name="ntilde" unicode="&#xf1;" horiz-adv-x="551" 
d="M476 0h-75v316c0 85 -43 112 -108 112c-59 0 -115 -36 -143 -75v-353h-75v483h75v-70c34 40 100 82 172 82c101 0 154 -51 154 -156v-339zM336 554c-73 0 -75 92 -123 92c-27 0 -48 -26 -48 -86h-45c0 78 34 134 97 134c72 0 75 -92 123 -92c27 0 48 26 48 86h45
c0 -78 -34 -134 -97 -134z" />
    <glyph glyph-name="eng" unicode="&#x14b;" horiz-adv-x="551" 
d="M476 339v-386c0 -95 -50 -149 -143 -149c-49 0 -74 12 -105 36l26 61c17 -17 39 -30 69 -30c45 0 78 25 78 82v363c0 85 -43 112 -108 112c-59 0 -115 -36 -143 -75v-353h-75v483h75v-70c34 40 100 82 172 82c101 0 154 -51 154 -156z" />
    <glyph glyph-name="oacute" unicode="&#xf3;" 
d="M455 700l-169 -144h-57l148 144h78zM286 -12c-147 0 -239 114 -239 254s92 253 239 253s239 -113 239 -253s-92 -254 -239 -254zM286 55c103 0 160 88 160 187c0 98 -57 186 -160 186s-161 -88 -161 -186c0 -99 58 -187 161 -187z" />
    <glyph glyph-name="obreve" unicode="&#x14f;" 
d="M286 -12c-147 0 -239 114 -239 254s92 253 239 253s239 -113 239 -253s-92 -254 -239 -254zM286 55c103 0 160 88 160 187c0 98 -57 186 -160 186s-161 -88 -161 -186c0 -99 58 -187 161 -187zM462 626c-40 -54 -103 -88 -175 -88c-71 0 -135 34 -176 88l37 32
c32 -44 80 -72 139 -72c58 0 107 27 138 72z" />
    <glyph glyph-name="ocircumflex" unicode="&#xf4;" 
d="M419 556h-51l-83 106l-80 -106h-51l95 144h72zM286 -12c-147 0 -239 114 -239 254s92 253 239 253s239 -113 239 -253s-92 -254 -239 -254zM286 55c103 0 160 88 160 187c0 98 -57 186 -160 186s-161 -88 -161 -186c0 -99 58 -187 161 -187z" />
    <glyph glyph-name="odieresis" unicode="&#xf6;" 
d="M436 604c0 -26 -22 -47 -47 -47s-47 21 -47 47c0 25 22 46 47 46s47 -21 47 -46zM229 604c0 -26 -21 -47 -46 -47c-26 0 -47 21 -47 47c0 25 21 46 47 46c25 0 46 -21 46 -46zM286 -12c-147 0 -239 114 -239 254s92 253 239 253s239 -113 239 -253s-92 -254 -239 -254z
M286 55c103 0 160 88 160 187c0 98 -57 186 -160 186s-161 -88 -161 -186c0 -99 58 -187 161 -187z" />
    <glyph glyph-name="ograve" unicode="&#xf2;" 
d="M286 -12c-147 0 -239 114 -239 254s92 253 239 253s239 -113 239 -253s-92 -254 -239 -254zM286 55c103 0 160 88 160 187c0 98 -57 186 -160 186s-161 -88 -161 -186c0 -99 58 -187 161 -187zM343 556h-57l-169 144h78z" />
    <glyph glyph-name="ohungarumlaut" unicode="&#x151;" 
d="M339 700l-115 -144h-48l94 144h69zM481 700l-115 -144h-48l94 144h69zM286 -12c-147 0 -239 114 -239 254s92 253 239 253s239 -113 239 -253s-92 -254 -239 -254zM286 55c103 0 160 88 160 187c0 98 -57 186 -160 186s-161 -88 -161 -186c0 -99 58 -187 161 -187z" />
    <glyph glyph-name="omacron" unicode="&#x14d;" 
d="M467 572h-363v48h363v-48zM286 -12c-147 0 -239 114 -239 254s92 253 239 253s239 -113 239 -253s-92 -254 -239 -254zM286 55c103 0 160 88 160 187c0 98 -57 186 -160 186s-161 -88 -161 -186c0 -99 58 -187 161 -187z" />
    <glyph glyph-name="oslash" unicode="&#xf8;" 
d="M118 0h-54l48 61c-42 46 -65 110 -65 181c0 140 92 253 239 253c53 0 100 -15 137 -41l23 29h54l-45 -57c45 -46 70 -111 70 -184c0 -140 -92 -254 -239 -254c-56 0 -104 16 -142 45zM286 55c103 0 160 88 160 187c0 47 -13 91 -38 125l-220 -278c26 -21 58 -34 98 -34z
M125 242c0 -45 12 -88 34 -121l219 277c-24 19 -55 30 -92 30c-103 0 -161 -88 -161 -186z" />
    <glyph glyph-name="oslashacute" unicode="&#x1ff;" 
d="M455 700l-169 -144h-57l148 144h78zM118 0h-54l48 61c-42 46 -65 110 -65 181c0 140 92 253 239 253c53 0 100 -15 137 -41l23 29h54l-45 -57c45 -46 70 -111 70 -184c0 -140 -92 -254 -239 -254c-56 0 -104 16 -142 45zM286 55c103 0 160 88 160 187
c0 47 -13 91 -38 125l-220 -278c26 -21 58 -34 98 -34zM125 242c0 -45 12 -88 34 -121l219 277c-24 19 -55 30 -92 30c-103 0 -161 -88 -161 -186z" />
    <glyph glyph-name="otilde" unicode="&#xf5;" 
d="M286 -12c-147 0 -239 114 -239 254s92 253 239 253s239 -113 239 -253s-92 -254 -239 -254zM286 55c103 0 160 88 160 187c0 98 -57 186 -160 186s-161 -88 -161 -186c0 -99 58 -187 161 -187zM346 554c-73 0 -75 92 -123 92c-27 0 -48 -26 -48 -86h-45
c0 78 34 134 97 134c72 0 75 -92 123 -92c27 0 48 26 48 86h45c0 -78 -34 -134 -97 -134z" />
    <glyph glyph-name="uni1ECD" unicode="&#x1ecd;" 
d="M286 -12c-147 0 -239 114 -239 254s92 253 239 253s239 -113 239 -253s-92 -254 -239 -254zM286 55c103 0 160 88 160 187c0 98 -57 186 -160 186s-161 -88 -161 -186c0 -99 58 -187 161 -187zM286 -184c-25 0 -47 21 -47 47s22 47 47 47c26 0 46 -21 46 -47
s-20 -47 -46 -47z" />
    <glyph glyph-name="uni1ECF" unicode="&#x1ecf;" 
d="M286 -12c-147 0 -239 114 -239 254s92 253 239 253s239 -113 239 -253s-92 -254 -239 -254zM286 55c103 0 160 88 160 187c0 98 -57 186 -160 186s-161 -88 -161 -186c0 -99 58 -187 161 -187zM246 586l-33 9c10 31 35 55 73 55s72 -21 72 -69c0 -22 -6 -36 -19 -54h-40
c17 17 23 35 23 52c0 26 -14 39 -36 39c-20 0 -33 -12 -40 -32z" />
    <glyph glyph-name="uni1ED1" unicode="&#x1ed1;" 
d="M419 556h-51l-83 106l-80 -106h-51l95 144h72zM606 770l-169 -144h-57l148 144h78zM286 -12c-147 0 -239 114 -239 254s92 253 239 253s239 -113 239 -253s-92 -254 -239 -254zM286 55c103 0 160 88 160 187c0 98 -57 186 -160 186s-161 -88 -161 -186
c0 -99 58 -187 161 -187z" />
    <glyph glyph-name="uni1ED3" unicode="&#x1ed3;" 
d="M419 556h-51l-83 106l-80 -106h-51l95 144h72zM286 -12c-147 0 -239 114 -239 254s92 253 239 253s239 -113 239 -253s-92 -254 -239 -254zM286 55c103 0 160 88 160 187c0 98 -57 186 -160 186s-161 -88 -161 -186c0 -99 58 -187 161 -187zM190 626h-57l-169 144h78z
" />
    <glyph glyph-name="uni1ED5" unicode="&#x1ed5;" 
d="M419 556h-51l-83 106l-80 -106h-51l95 144h72zM286 -12c-147 0 -239 114 -239 254s92 253 239 253s239 -113 239 -253s-92 -254 -239 -254zM286 55c103 0 160 88 160 187c0 98 -57 186 -160 186s-161 -88 -161 -186c0 -99 58 -187 161 -187zM335 726l-33 9
c10 31 35 55 73 55s72 -21 72 -69c0 -22 -6 -36 -19 -54h-40c17 17 23 35 23 52c0 26 -14 39 -36 39c-20 0 -33 -12 -40 -32z" />
    <glyph glyph-name="uni1ED7" unicode="&#x1ed7;" 
d="M417 523h-51l-83 106l-80 -106h-51l95 144h72zM286 -12c-147 0 -239 114 -239 254s92 253 239 253s239 -113 239 -253s-92 -254 -239 -254zM286 55c103 0 160 88 160 187c0 98 -57 186 -160 186s-161 -88 -161 -186c0 -99 58 -187 161 -187zM342 682
c-73 0 -75 92 -123 92c-27 0 -48 -26 -48 -86h-45c0 78 34 134 97 134c72 0 75 -92 123 -92c27 0 48 26 48 86h45c0 -78 -34 -134 -97 -134z" />
    <glyph glyph-name="uni1ED9" unicode="&#x1ed9;" 
d="M418 556h-51l-83 106l-80 -106h-51l95 144h72zM286 -12c-147 0 -239 114 -239 254s92 253 239 253s239 -113 239 -253s-92 -254 -239 -254zM286 55c103 0 160 88 160 187c0 98 -57 186 -160 186s-161 -88 -161 -186c0 -99 58 -187 161 -187zM286 -184
c-25 0 -47 21 -47 47s22 47 47 47c26 0 46 -21 46 -47s-20 -47 -46 -47z" />
    <glyph glyph-name="ohorn" unicode="&#x1a1;" 
d="M527 530c0 -47 -25 -92 -58 -120c36 -44 56 -104 56 -168c0 -140 -92 -254 -239 -254s-239 114 -239 254s92 253 239 253c64 0 117 -22 157 -57c22 19 39 48 42 72c-2 0 -8 -1 -11 -1c-23 0 -40 17 -40 41c0 23 19 43 43 43c27 0 50 -23 50 -63zM286 55
c103 0 160 88 160 187c0 98 -57 186 -160 186s-161 -88 -161 -186c0 -99 58 -187 161 -187z" />
    <glyph glyph-name="uni1EDB" unicode="&#x1edb;" 
d="M455 700l-169 -144h-57l148 144h78zM527 530c0 -47 -25 -92 -58 -120c36 -44 56 -104 56 -168c0 -140 -92 -254 -239 -254s-239 114 -239 254s92 253 239 253c64 0 117 -22 157 -57c22 19 39 48 42 72c-2 0 -8 -1 -11 -1c-23 0 -40 17 -40 41c0 23 19 43 43 43
c27 0 50 -23 50 -63zM286 55c103 0 160 88 160 187c0 98 -57 186 -160 186s-161 -88 -161 -186c0 -99 58 -187 161 -187z" />
    <glyph glyph-name="uni1EDD" unicode="&#x1edd;" 
d="M527 530c0 -47 -25 -92 -58 -120c36 -44 56 -104 56 -168c0 -140 -92 -254 -239 -254s-239 114 -239 254s92 253 239 253c64 0 117 -22 157 -57c22 19 39 48 42 72c-2 0 -8 -1 -11 -1c-23 0 -40 17 -40 41c0 23 19 43 43 43c27 0 50 -23 50 -63zM286 55
c103 0 160 88 160 187c0 98 -57 186 -160 186s-161 -88 -161 -186c0 -99 58 -187 161 -187zM343 556h-57l-169 144h78z" />
    <glyph glyph-name="uni1EDF" unicode="&#x1edf;" 
d="M527 530c0 -47 -25 -92 -58 -120c36 -44 56 -104 56 -168c0 -140 -92 -254 -239 -254s-239 114 -239 254s92 253 239 253c64 0 117 -22 157 -57c22 19 39 48 42 72c-2 0 -8 -1 -11 -1c-23 0 -40 17 -40 41c0 23 19 43 43 43c27 0 50 -23 50 -63zM286 55
c103 0 160 88 160 187c0 98 -57 186 -160 186s-161 -88 -161 -186c0 -99 58 -187 161 -187zM246 586l-33 9c10 31 35 55 73 55s72 -21 72 -69c0 -22 -6 -36 -19 -54h-40c17 17 23 35 23 52c0 26 -14 39 -36 39c-20 0 -33 -12 -40 -32z" />
    <glyph glyph-name="uni1EE1" unicode="&#x1ee1;" 
d="M527 530c0 -47 -25 -92 -58 -120c36 -44 56 -104 56 -168c0 -140 -92 -254 -239 -254s-239 114 -239 254s92 253 239 253c64 0 117 -22 157 -57c22 19 39 48 42 72c-2 0 -8 -1 -11 -1c-23 0 -40 17 -40 41c0 23 19 43 43 43c27 0 50 -23 50 -63zM286 55
c103 0 160 88 160 187c0 98 -57 186 -160 186s-161 -88 -161 -186c0 -99 58 -187 161 -187zM345 554c-73 0 -75 92 -123 92c-27 0 -48 -26 -48 -86h-45c0 78 34 134 97 134c72 0 75 -92 123 -92c27 0 48 26 48 86h45c0 -78 -34 -134 -97 -134z" />
    <glyph glyph-name="uni1EE3" unicode="&#x1ee3;" 
d="M527 530c0 -47 -25 -92 -58 -120c36 -44 56 -104 56 -168c0 -140 -92 -254 -239 -254s-239 114 -239 254s92 253 239 253c64 0 117 -22 157 -57c22 19 39 48 42 72c-2 0 -8 -1 -11 -1c-23 0 -40 17 -40 41c0 23 19 43 43 43c27 0 50 -23 50 -63zM286 55
c103 0 160 88 160 187c0 98 -57 186 -160 186s-161 -88 -161 -186c0 -99 58 -187 161 -187zM286 -184c-25 0 -47 21 -47 47s22 47 47 47c26 0 46 -21 46 -47s-20 -47 -46 -47z" />
    <glyph glyph-name="oe" unicode="&#x153;" horiz-adv-x="962" 
d="M916 217h-390c6 -91 69 -167 173 -167c56 0 111 22 150 61l36 -49c-49 -48 -114 -74 -192 -74c-124 0 -183 82 -208 138c-24 -53 -79 -138 -199 -138c-147 0 -239 114 -239 254s92 253 239 253c120 0 178 -87 200 -138c22 52 83 138 198 138c146 0 232 -114 232 -259v-19
zM525 272h318c-2 72 -50 161 -160 161c-103 0 -154 -87 -158 -161zM446 242c0 101 -59 186 -160 186s-161 -85 -161 -186c0 -102 60 -188 161 -188s160 86 160 188z" />
    <glyph glyph-name="uni1E57" unicode="&#x1e57;" 
d="M313 -12c-66 0 -124 31 -163 85v-257h-75v667h75v-72c35 49 95 84 163 84c127 0 215 -96 215 -253c0 -156 -88 -254 -215 -254zM294 55c97 0 155 80 155 187s-58 186 -155 186c-59 0 -118 -35 -144 -77v-218c26 -42 85 -78 144 -78zM293 555c-25 0 -47 21 -47 47
s22 47 47 47c26 0 46 -21 46 -47s-20 -47 -46 -47z" />
    <glyph glyph-name="racute" unicode="&#x155;" horiz-adv-x="330" 
d="M362 700l-169 -144h-57l148 144h78zM150 0h-75v483h75v-78c39 51 95 88 161 88v-77c-9 2 -18 3 -30 3c-46 0 -109 -38 -131 -77v-342z" />
    <glyph glyph-name="rcaron" unicode="&#x159;" horiz-adv-x="330" 
d="M229 556h-72l-98 144h51l83 -106l80 106h51zM150 0h-75v483h75v-78c39 51 95 88 161 88v-77c-9 2 -18 3 -30 3c-46 0 -109 -38 -131 -77v-342z" />
    <glyph glyph-name="rcommaaccent" unicode="&#x157;" horiz-adv-x="330" 
d="M221 -138c0 -54 -32 -105 -71 -134l-33 26c30 20 55 57 58 86c-1 -1 -8 -2 -11 -2c-24 0 -42 19 -42 44c0 26 20 47 46 47c28 0 53 -24 53 -67zM150 0h-75v483h75v-78c39 51 95 88 161 88v-77c-9 2 -18 3 -30 3c-46 0 -109 -38 -131 -77v-342z" />
    <glyph glyph-name="sacute" unicode="&#x15b;" horiz-adv-x="465" 
d="M397 700l-169 -144h-57l148 144h78zM228 -12c-79 0 -146 24 -195 76l39 54c32 -37 93 -69 159 -69c74 0 114 35 114 83c0 117 -299 45 -299 224c0 75 65 139 180 139c82 0 140 -31 179 -70l-35 -52c-29 35 -82 61 -144 61c-66 0 -107 -33 -107 -76
c0 -106 299 -36 299 -224c0 -81 -65 -146 -190 -146z" />
    <glyph glyph-name="scaron" unicode="&#x161;" horiz-adv-x="465" 
d="M266 556h-72l-98 144h51l83 -106l80 106h51zM228 -12c-79 0 -146 24 -195 76l39 54c32 -37 93 -69 159 -69c74 0 114 35 114 83c0 117 -299 45 -299 224c0 75 65 139 180 139c82 0 140 -31 179 -70l-35 -52c-29 35 -82 61 -144 61c-66 0 -107 -33 -107 -76
c0 -106 299 -36 299 -224c0 -81 -65 -146 -190 -146z" />
    <glyph glyph-name="scircumflex" unicode="&#x15d;" horiz-adv-x="465" 
d="M361 556h-51l-83 106l-80 -106h-51l95 144h72zM228 -12c-79 0 -146 24 -195 76l39 54c32 -37 93 -69 159 -69c74 0 114 35 114 83c0 117 -299 45 -299 224c0 75 65 139 180 139c82 0 140 -31 179 -70l-35 -52c-29 35 -82 61 -144 61c-66 0 -107 -33 -107 -76
c0 -106 299 -36 299 -224c0 -81 -65 -146 -190 -146z" />
    <glyph glyph-name="scedilla" unicode="&#x15f;" horiz-adv-x="465" 
d="M227 -191c-43 0 -81 14 -101 30l19 38c24 -20 53 -29 80 -29c32 0 61 15 61 42c0 21 -12 35 -37 35c-14 0 -29 -7 -38 -17l-33 19l23 62c-68 5 -125 29 -168 75l39 54c32 -37 93 -69 159 -69c74 0 114 35 114 83c0 117 -299 45 -299 224c0 75 65 139 180 139
c82 0 140 -31 179 -70l-35 -52c-29 35 -82 61 -144 61c-66 0 -107 -33 -107 -76c0 -106 299 -36 299 -224c0 -78 -59 -140 -173 -145l-17 -44c10 7 24 11 37 11c38 0 66 -26 66 -67c0 -49 -47 -80 -104 -80z" />
    <glyph glyph-name="scommaaccent" unicode="&#x219;" horiz-adv-x="465" 
d="M291 -138c0 -54 -32 -105 -71 -134l-33 26c30 20 55 57 58 86c-1 -1 -8 -2 -11 -2c-24 0 -42 19 -42 44c0 26 20 47 46 47c28 0 53 -24 53 -67zM228 -12c-79 0 -146 24 -195 76l39 54c32 -37 93 -69 159 -69c74 0 114 35 114 83c0 117 -299 45 -299 224
c0 75 65 139 180 139c82 0 140 -31 179 -70l-35 -52c-29 35 -82 61 -144 61c-66 0 -107 -33 -107 -76c0 -106 299 -36 299 -224c0 -81 -65 -146 -190 -146z" />
    <glyph glyph-name="uni1E61" unicode="&#x1e61;" horiz-adv-x="465" 
d="M228 -12c-79 0 -146 24 -195 76l39 54c32 -37 93 -69 159 -69c74 0 114 35 114 83c0 117 -299 45 -299 224c0 75 65 139 180 139c82 0 140 -31 179 -70l-35 -52c-29 35 -82 61 -144 61c-66 0 -107 -33 -107 -76c0 -106 299 -36 299 -224c0 -81 -65 -146 -190 -146z
M232 555c-25 0 -47 21 -47 47s22 47 47 47c26 0 46 -21 46 -47s-20 -47 -46 -47z" />
    <glyph glyph-name="germandbls" unicode="&#xdf;" horiz-adv-x="597" 
d="M578 135c0 -78 -62 -147 -186 -147c-97 0 -144 35 -186 78l38 52c28 -37 81 -69 148 -69c76 0 113 41 113 84c0 116 -287 48 -287 223c0 109 146 122 146 186c0 45 -52 68 -99 68c-63 0 -115 -42 -115 -111v-499h-75v499c0 98 74 178 191 178c92 0 175 -48 175 -126
c0 -110 -150 -112 -150 -194c0 -105 287 -34 287 -222z" />
    <glyph glyph-name="longs" unicode="&#x17f;" horiz-adv-x="283" 
d="M171 0h-75v417h-80v66h80v37c0 99 54 157 140 157c38 0 72 -9 102 -37l-31 -53c-16 14 -35 23 -60 23c-49 0 -76 -34 -76 -90v-520z" />
    <glyph glyph-name="tbar" unicode="&#x167;" horiz-adv-x="294" 
d="M197 -12c-71 0 -107 41 -107 113v125h-80v48h80v143h-80v66h80v132h75v-132h98v-66h-98v-143h70v-48h-70v-109c0 -36 16 -62 49 -62c21 0 41 9 51 20l22 -56c-19 -18 -46 -31 -90 -31z" />
    <glyph glyph-name="tcaron" unicode="&#x165;" horiz-adv-x="313" 
d="M325 676c0 -54 -32 -105 -71 -134l-33 26c30 20 55 57 58 86c-1 -1 -8 -2 -11 -2c-24 0 -42 19 -42 44c0 26 20 47 46 47c28 0 53 -24 53 -67zM197 -12c-71 0 -107 41 -107 113v316h-80v66h80v132h75v-132h98v-66h-98v-300c0 -36 16 -62 49 -62c21 0 41 9 51 20l22 -56
c-19 -18 -46 -31 -90 -31z" />
    <glyph glyph-name="tcommaaccent" unicode="&#x163;" horiz-adv-x="294" 
d="M203 -138c0 -54 -32 -105 -71 -134l-33 26c30 20 55 57 58 86c-1 -1 -8 -2 -11 -2c-24 0 -42 19 -42 44c0 26 20 47 46 47c28 0 53 -24 53 -67zM197 -12c-71 0 -107 41 -107 113v316h-80v66h80v132h75v-132h98v-66h-98v-300c0 -36 16 -62 49 -62c21 0 41 9 51 20l22 -56
c-19 -18 -46 -31 -90 -31z" />
    <glyph glyph-name="uni021B" unicode="&#x21b;" horiz-adv-x="294" 
d="M203 -138c0 -54 -32 -105 -71 -134l-33 26c30 20 55 57 58 86c-1 -1 -8 -2 -11 -2c-24 0 -42 19 -42 44c0 26 20 47 46 47c28 0 53 -24 53 -67zM197 -12c-71 0 -107 41 -107 113v316h-80v66h80v132h75v-132h98v-66h-98v-300c0 -36 16 -62 49 -62c21 0 41 9 51 20l22 -56
c-19 -18 -46 -31 -90 -31z" />
    <glyph glyph-name="uni1E6B" unicode="&#x1e6b;" horiz-adv-x="294" 
d="M197 -12c-71 0 -107 41 -107 113v316h-80v66h80v132h75v-132h98v-66h-98v-300c0 -36 16 -62 49 -62c21 0 41 9 51 20l22 -56c-19 -18 -46 -31 -90 -31zM134 722c-25 0 -47 21 -47 47s22 47 47 47c26 0 46 -21 46 -47s-20 -47 -46 -47z" />
    <glyph glyph-name="uacute" unicode="&#xfa;" horiz-adv-x="551" 
d="M444 700l-169 -144h-57l148 144h78zM476 0h-75v68c-37 -42 -100 -80 -172 -80c-101 0 -154 49 -154 154v341h75v-318c0 -85 43 -110 108 -110c59 0 115 34 143 73v355h75v-483z" />
    <glyph glyph-name="ubreve" unicode="&#x16d;" horiz-adv-x="551" 
d="M476 0h-75v68c-37 -42 -100 -80 -172 -80c-101 0 -154 49 -154 154v341h75v-318c0 -85 43 -110 108 -110c59 0 115 34 143 73v355h75v-483zM452 626c-40 -54 -103 -88 -175 -88c-71 0 -135 34 -176 88l37 32c32 -44 80 -72 139 -72c58 0 107 27 138 72z" />
    <glyph glyph-name="ucircumflex" unicode="&#xfb;" horiz-adv-x="551" 
d="M408 556h-51l-83 106l-80 -106h-51l95 144h72zM476 0h-75v68c-37 -42 -100 -80 -172 -80c-101 0 -154 49 -154 154v341h75v-318c0 -85 43 -110 108 -110c59 0 115 34 143 73v355h75v-483z" />
    <glyph glyph-name="udieresis" unicode="&#xfc;" horiz-adv-x="551" 
d="M427 604c0 -26 -22 -47 -47 -47s-47 21 -47 47c0 25 22 46 47 46s47 -21 47 -46zM220 604c0 -26 -21 -47 -46 -47c-26 0 -47 21 -47 47c0 25 21 46 47 46c25 0 46 -21 46 -46zM476 0h-75v68c-37 -42 -100 -80 -172 -80c-101 0 -154 49 -154 154v341h75v-318
c0 -85 43 -110 108 -110c59 0 115 34 143 73v355h75v-483z" />
    <glyph glyph-name="ugrave" unicode="&#xf9;" horiz-adv-x="551" 
d="M476 0h-75v68c-37 -42 -100 -80 -172 -80c-101 0 -154 49 -154 154v341h75v-318c0 -85 43 -110 108 -110c59 0 115 34 143 73v355h75v-483zM332 556h-57l-169 144h78z" />
    <glyph glyph-name="uhungarumlaut" unicode="&#x171;" horiz-adv-x="551" 
d="M476 0h-75v68c-37 -42 -100 -80 -172 -80c-101 0 -154 49 -154 154v341h75v-318c0 -85 43 -110 108 -110c59 0 115 34 143 73v355h75v-483zM329 700l-115 -144h-48l94 144h69zM471 700l-115 -144h-48l94 144h69z" />
    <glyph glyph-name="umacron" unicode="&#x16b;" horiz-adv-x="551" 
d="M476 0h-75v68c-37 -42 -100 -80 -172 -80c-101 0 -154 49 -154 154v341h75v-318c0 -85 43 -110 108 -110c59 0 115 34 143 73v355h75v-483zM456 572h-363v48h363v-48z" />
    <glyph glyph-name="uogonek" unicode="&#x173;" horiz-adv-x="551" 
d="M476 0c-48 -24 -76 -55 -76 -97c0 -34 18 -50 44 -50c28 0 43 15 52 42l37 -21c-14 -32 -41 -60 -89 -60c-47 0 -89 26 -89 87c0 38 20 73 53 99h-7v68c-37 -42 -100 -80 -172 -80c-101 0 -154 49 -154 154v341h75v-318c0 -85 43 -110 108 -110c59 0 115 34 143 73v355
h75v-483z" />
    <glyph glyph-name="uring" unicode="&#x16f;" horiz-adv-x="551" 
d="M276 543c-54 0 -98 44 -98 98s44 99 98 99s98 -45 98 -99s-44 -98 -98 -98zM276 582c33 0 58 27 58 59c0 33 -25 59 -58 59c-32 0 -58 -26 -58 -59c0 -32 26 -59 58 -59zM476 0h-75v68c-37 -42 -100 -80 -172 -80c-101 0 -154 49 -154 154v341h75v-318
c0 -85 43 -110 108 -110c59 0 115 34 143 73v355h75v-483z" />
    <glyph glyph-name="utilde" unicode="&#x169;" horiz-adv-x="551" 
d="M476 0h-75v68c-37 -42 -100 -80 -172 -80c-101 0 -154 49 -154 154v341h75v-318c0 -85 43 -110 108 -110c59 0 115 34 143 73v355h75v-483zM335 554c-73 0 -75 92 -123 92c-27 0 -48 -26 -48 -86h-45c0 78 34 134 97 134c72 0 75 -92 123 -92c27 0 48 26 48 86h45
c0 -78 -34 -134 -97 -134z" />
    <glyph glyph-name="uni1EE5" unicode="&#x1ee5;" horiz-adv-x="551" 
d="M476 0h-75v68c-37 -42 -100 -80 -172 -80c-101 0 -154 49 -154 154v341h75v-318c0 -85 43 -110 108 -110c59 0 115 34 143 73v355h75v-483zM278 -184c-25 0 -47 21 -47 47s22 47 47 47c26 0 46 -21 46 -47s-20 -47 -46 -47z" />
    <glyph glyph-name="uhorn" unicode="&#x1b0;" horiz-adv-x="551" 
d="M476 0h-75v68c-37 -42 -100 -80 -172 -80c-101 0 -154 49 -154 154v341h75v-318c0 -85 43 -110 108 -110c59 0 115 34 143 73v355h75v-48c28 21 49 52 51 81c-1 0 -8 -1 -11 -1c-23 0 -40 17 -40 41c0 23 19 43 43 43c27 0 51 -23 51 -63c0 -57 -36 -113 -94 -144v-392z
" />
    <glyph glyph-name="uni1EE7" unicode="&#x1ee7;" horiz-adv-x="551" 
d="M476 0h-75v68c-37 -42 -100 -80 -172 -80c-101 0 -154 49 -154 154v341h75v-318c0 -85 43 -110 108 -110c59 0 115 34 143 73v355h75v-483zM236 586l-33 9c10 31 35 55 73 55s72 -21 72 -69c0 -22 -6 -36 -19 -54h-40c17 17 23 35 23 52c0 26 -14 39 -36 39
c-20 0 -33 -12 -40 -32z" />
    <glyph glyph-name="uni1EE9" unicode="&#x1ee9;" horiz-adv-x="551" 
d="M444 700l-169 -144h-57l148 144h78zM476 0h-75v68c-37 -42 -100 -80 -172 -80c-101 0 -154 49 -154 154v341h75v-318c0 -85 43 -110 108 -110c59 0 115 34 143 73v355h75v-48c28 21 49 52 51 81c-1 0 -8 -1 -11 -1c-23 0 -40 17 -40 41c0 23 19 43 43 43
c27 0 51 -23 51 -63c0 -57 -36 -113 -94 -144v-392z" />
    <glyph glyph-name="uni1EEB" unicode="&#x1eeb;" horiz-adv-x="551" 
d="M332 556h-57l-169 144h78zM476 0h-75v68c-37 -42 -100 -80 -172 -80c-101 0 -154 49 -154 154v341h75v-318c0 -85 43 -110 108 -110c59 0 115 34 143 73v355h75v-48c28 21 49 52 51 81c-1 0 -8 -1 -11 -1c-23 0 -40 17 -40 41c0 23 19 43 43 43c27 0 51 -23 51 -63
c0 -57 -36 -113 -94 -144v-392z" />
    <glyph glyph-name="uni1EED" unicode="&#x1eed;" horiz-adv-x="551" 
d="M236 586l-33 9c10 31 35 55 73 55s72 -21 72 -69c0 -22 -6 -36 -19 -54h-40c17 17 23 35 23 52c0 26 -14 39 -36 39c-20 0 -33 -12 -40 -32zM476 0h-75v68c-37 -42 -100 -80 -172 -80c-101 0 -154 49 -154 154v341h75v-318c0 -85 43 -110 108 -110c59 0 115 34 143 73
v355h75v-48c28 21 49 52 51 81c-1 0 -8 -1 -11 -1c-23 0 -40 17 -40 41c0 23 19 43 43 43c27 0 51 -23 51 -63c0 -57 -36 -113 -94 -144v-392z" />
    <glyph glyph-name="uni1EEF" unicode="&#x1eef;" horiz-adv-x="551" 
d="M476 0h-75v68c-37 -42 -100 -80 -172 -80c-101 0 -154 49 -154 154v341h75v-318c0 -85 43 -110 108 -110c59 0 115 34 143 73v355h75v-48c28 21 49 52 51 81c-1 0 -8 -1 -11 -1c-23 0 -40 17 -40 41c0 23 19 43 43 43c27 0 51 -23 51 -63c0 -57 -36 -113 -94 -144v-392z
M335 554c-73 0 -75 92 -123 92c-27 0 -48 -26 -48 -86h-45c0 78 34 134 97 134c72 0 75 -92 123 -92c27 0 48 26 48 86h45c0 -78 -34 -134 -97 -134z" />
    <glyph glyph-name="uni1EF1" unicode="&#x1ef1;" horiz-adv-x="551" 
d="M278 -184c-25 0 -47 21 -47 47s22 47 47 47c26 0 46 -21 46 -47s-20 -47 -46 -47zM476 0h-75v68c-37 -42 -100 -80 -172 -80c-101 0 -154 49 -154 154v341h75v-318c0 -85 43 -110 108 -110c59 0 115 34 143 73v355h75v-48c28 21 49 52 51 81c-1 0 -8 -1 -11 -1
c-23 0 -40 17 -40 41c0 23 19 43 43 43c27 0 51 -23 51 -63c0 -57 -36 -113 -94 -144v-392z" />
    <glyph glyph-name="wacute" unicode="&#x1e83;" horiz-adv-x="734" 
d="M536 700l-169 -144h-57l148 144h78zM568 0h-75l-126 388l-126 -388h-75l-154 483h78l118 -385l127 385h64l127 -385l118 385h78z" />
    <glyph glyph-name="wcircumflex" unicode="&#x175;" horiz-adv-x="734" 
d="M500 556h-51l-83 106l-80 -106h-51l95 144h72zM568 0h-75l-126 388l-126 -388h-75l-154 483h78l118 -385l127 385h64l127 -385l118 385h78z" />
    <glyph glyph-name="wdieresis" unicode="&#x1e85;" horiz-adv-x="734" 
d="M517 604c0 -26 -22 -47 -47 -47s-47 21 -47 47c0 25 22 46 47 46s47 -21 47 -46zM310 604c0 -26 -21 -47 -46 -47c-26 0 -47 21 -47 47c0 25 21 46 47 46c25 0 46 -21 46 -46zM568 0h-75l-126 388l-126 -388h-75l-154 483h78l118 -385l127 385h64l127 -385l118 385h78z
" />
    <glyph glyph-name="wgrave" unicode="&#x1e81;" horiz-adv-x="734" 
d="M568 0h-75l-126 388l-126 -388h-75l-154 483h78l118 -385l127 385h64l127 -385l118 385h78zM424 556h-57l-169 144h78z" />
    <glyph glyph-name="yacute" unicode="&#xfd;" horiz-adv-x="490" 
d="M48 -189l12 68c11 -5 29 -8 41 -8c33 0 55 11 72 51l32 73l-202 488h81l161 -396l160 396h82l-242 -581c-29 -70 -78 -97 -142 -98c-16 0 -41 3 -55 7zM414 700l-169 -144h-57l148 144h78z" />
    <glyph glyph-name="ycircumflex" unicode="&#x177;" horiz-adv-x="490" 
d="M48 -189l12 68c11 -5 29 -8 41 -8c33 0 55 11 72 51l32 73l-202 488h81l161 -396l160 396h82l-242 -581c-29 -70 -78 -97 -142 -98c-16 0 -41 3 -55 7zM378 556h-51l-83 106l-80 -106h-51l95 144h72z" />
    <glyph glyph-name="ydieresis" unicode="&#xff;" horiz-adv-x="490" 
d="M48 -189l12 68c11 -5 29 -8 41 -8c33 0 55 11 72 51l32 73l-202 488h81l161 -396l160 396h82l-242 -581c-29 -70 -78 -97 -142 -98c-16 0 -41 3 -55 7zM395 604c0 -26 -22 -47 -47 -47s-47 21 -47 47c0 25 22 46 47 46s47 -21 47 -46zM188 604c0 -26 -21 -47 -46 -47
c-26 0 -47 21 -47 47c0 25 21 46 47 46c25 0 46 -21 46 -46z" />
    <glyph glyph-name="ygrave" unicode="&#x1ef3;" horiz-adv-x="490" 
d="M48 -189l12 68c11 -5 29 -8 41 -8c33 0 55 11 72 51l32 73l-202 488h81l161 -396l160 396h82l-242 -581c-29 -70 -78 -97 -142 -98c-16 0 -41 3 -55 7zM302 556h-57l-169 144h78z" />
    <glyph glyph-name="yacute.alt1" horiz-adv-x="551" 
d="M444 700l-169 -144h-57l148 144h78zM255 -196c-81 0 -136 24 -185 72l38 56c36 -46 89 -66 147 -66c91 0 146 53 146 147v65c-37 -42 -100 -80 -172 -80c-101 0 -154 49 -154 154v331h75v-308c0 -86 43 -111 108 -111c59 0 115 34 143 73v346h75v-470
c0 -144 -102 -209 -221 -209z" />
    <glyph glyph-name="ycircumflex.alt1" horiz-adv-x="551" 
d="M409 556h-51l-83 106l-80 -106h-51l95 144h72zM255 -196c-81 0 -136 24 -185 72l38 56c36 -46 89 -66 147 -66c91 0 146 53 146 147v65c-37 -42 -100 -80 -172 -80c-101 0 -154 49 -154 154v331h75v-308c0 -86 43 -111 108 -111c59 0 115 34 143 73v346h75v-470
c0 -144 -102 -209 -221 -209z" />
    <glyph glyph-name="ydieresis.alt1" horiz-adv-x="551" 
d="M424 604c0 -26 -22 -47 -47 -47s-47 21 -47 47c0 25 22 46 47 46s47 -21 47 -46zM217 604c0 -26 -21 -47 -46 -47c-26 0 -47 21 -47 47c0 25 21 46 47 46c25 0 46 -21 46 -46zM255 -196c-81 0 -136 24 -185 72l38 56c36 -46 89 -66 147 -66c91 0 146 53 146 147v65
c-37 -42 -100 -80 -172 -80c-101 0 -154 49 -154 154v331h75v-308c0 -86 43 -111 108 -111c59 0 115 34 143 73v346h75v-470c0 -144 -102 -209 -221 -209z" />
    <glyph glyph-name="ygrave.alt1" horiz-adv-x="551" 
d="M255 -196c-81 0 -136 24 -185 72l38 56c36 -46 89 -66 147 -66c91 0 146 53 146 147v65c-37 -42 -100 -80 -172 -80c-101 0 -154 49 -154 154v331h75v-308c0 -86 43 -111 108 -111c59 0 115 34 143 73v346h75v-470c0 -144 -102 -209 -221 -209zM332 556h-57l-169 144h78z
" />
    <glyph glyph-name="zacute" unicode="&#x17a;" horiz-adv-x="472" 
d="M404 700l-169 -144h-57l148 144h78zM420 0h-368v58l266 359h-266v66h364v-57l-268 -361h272v-65z" />
    <glyph glyph-name="zcaron" unicode="&#x17e;" horiz-adv-x="472" 
d="M268 556h-72l-98 144h51l83 -106l80 106h51zM420 0h-368v58l266 359h-266v66h364v-57l-268 -361h272v-65z" />
    <glyph glyph-name="zdotaccent" unicode="&#x17c;" horiz-adv-x="472" 
d="M420 0h-368v58l266 359h-266v66h364v-57l-268 -361h272v-65zM235 555c-25 0 -47 21 -47 47s22 47 47 47c26 0 46 -21 46 -47s-20 -47 -46 -47z" />
    <glyph glyph-name="eth" unicode="&#xf0;" 
d="M122 497l-18 42l118 52c-24 16 -50 32 -75 48l41 62c39 -24 77 -49 112 -76l108 48l17 -41l-86 -38c108 -92 186 -206 186 -347c0 -149 -92 -259 -239 -259c-144 0 -239 106 -239 246s91 245 220 245c62 0 114 -26 158 -89c-37 66 -94 121 -160 170zM286 55
c103 0 160 84 160 179c0 94 -57 178 -160 178s-161 -84 -161 -178c0 -95 58 -179 161 -179z" />
    <glyph glyph-name="thorn" unicode="&#xfe;" 
d="M313 -12c-66 0 -124 31 -163 85v-257h-75v851h75v-256c35 49 95 84 163 84c127 0 215 -96 215 -253c0 -156 -88 -254 -215 -254zM294 55c97 0 155 80 155 187s-58 186 -155 186c-59 0 -118 -35 -144 -77v-218c26 -42 85 -78 144 -78z" />
    <glyph glyph-name="Aacute.smcp" unicode="&#xf7e1;" 
d="M455 750l-169 -144h-57l148 144h78zM239 550h94l232 -550h-87l-51 120h-282l-50 -120h-88zM403 189l-117 279l-117 -279h234z" />
    <glyph glyph-name="Abreve.smcp" unicode="&#xf66d;" 
d="M239 550h94l232 -550h-87l-51 120h-282l-50 -120h-88zM403 189l-117 279l-117 -279h234zM462 676c-40 -54 -103 -88 -175 -88c-71 0 -135 34 -176 88l37 32c32 -44 80 -72 139 -72c58 0 107 27 138 72z" />
    <glyph glyph-name="Acircumflex.smcp" unicode="&#xf7e2;" 
d="M420 606h-51l-83 106l-80 -106h-51l95 144h72zM239 550h94l232 -550h-87l-51 120h-282l-50 -120h-88zM403 189l-117 279l-117 -279h234z" />
    <glyph glyph-name="Adieresis.smcp" unicode="&#xf7e4;" 
d="M437 660c0 -26 -22 -47 -47 -47s-47 21 -47 47c0 25 22 46 47 46s47 -21 47 -46zM230 660c0 -26 -21 -47 -46 -47c-26 0 -47 21 -47 47c0 25 21 46 47 46c25 0 46 -21 46 -46zM239 550h94l232 -550h-87l-51 120h-282l-50 -120h-88zM403 189l-117 279l-117 -279h234z" />
    <glyph glyph-name="Agrave.smcp" unicode="&#xf7e0;" 
d="M239 550h94l232 -550h-87l-51 120h-282l-50 -120h-88zM403 189l-117 279l-117 -279h234zM343 606h-57l-169 144h78z" />
    <glyph glyph-name="Amacron.smcp" unicode="&#xf66e;" 
d="M468 622h-363v48h363v-48zM239 550h94l232 -550h-87l-51 120h-282l-50 -120h-88zM403 189l-117 279l-117 -279h234z" />
    <glyph glyph-name="Aogonek.smcp" unicode="&#xf66f;" 
d="M239 550h94l232 -550c-48 -24 -76 -55 -76 -97c0 -34 18 -50 44 -50c28 0 43 15 52 42l37 -21c-14 -32 -41 -60 -89 -60c-47 0 -89 26 -89 87c0 38 20 73 53 99h-19l-51 120h-282l-50 -120h-88zM403 189l-117 279l-117 -279h234z" />
    <glyph glyph-name="Aring.smcp" unicode="&#xf7e5;" 
d="M287 573c-54 0 -98 44 -98 98s44 99 98 99s98 -45 98 -99s-44 -98 -98 -98zM287 612c33 0 58 27 58 59c0 33 -25 59 -58 59c-32 0 -58 -26 -58 -59c0 -32 26 -59 58 -59zM239 550h94l232 -550h-87l-51 120h-282l-50 -120h-88zM403 189l-117 279l-117 -279h234z" />
    <glyph glyph-name="Atilde.smcp" unicode="&#xf7e3;" 
d="M239 550h94l232 -550h-87l-51 120h-282l-50 -120h-88zM403 189l-117 279l-117 -279h234zM346 604c-73 0 -75 92 -123 92c-27 0 -48 -26 -48 -86h-45c0 78 34 134 97 134c72 0 75 -92 123 -92c27 0 48 26 48 86h45c0 -78 -34 -134 -97 -134z" />
    <glyph glyph-name="uni1EA0.smcp" 
d="M239 550h94l232 -550h-87l-51 120h-282l-50 -120h-88zM403 189l-117 279l-117 -279h234zM287 -184c-25 0 -47 21 -47 47s22 47 47 47c26 0 46 -21 46 -47s-20 -47 -46 -47z" />
    <glyph glyph-name="uni1EA2.smcp" 
d="M239 550h94l232 -550h-87l-51 120h-282l-50 -120h-88zM403 189l-117 279l-117 -279h234zM247 639l-33 9c10 31 35 55 73 55s72 -21 72 -69c0 -22 -6 -36 -19 -54h-40c17 17 23 35 23 52c0 26 -14 39 -36 39c-20 0 -33 -12 -40 -32z" />
    <glyph glyph-name="uni1EA4.smcp" 
d="M420 606h-51l-83 106l-80 -106h-51l95 144h72zM606 820l-169 -144h-57l148 144h78zM239 550h94l232 -550h-87l-51 120h-282l-50 -120h-88zM403 189l-117 279l-117 -279h234z" />
    <glyph glyph-name="uni1EAC.smcp" 
d="M419 606h-51l-83 106l-80 -106h-51l95 144h72zM239 550h94l232 -550h-87l-51 120h-282l-50 -120h-88zM403 189l-117 279l-117 -279h234zM286 -184c-25 0 -47 21 -47 47s22 47 47 47c26 0 46 -21 46 -47s-20 -47 -46 -47z" />
    <glyph glyph-name="uni1EA6.smcp" 
d="M420 606h-51l-83 106l-80 -106h-51l95 144h72zM239 550h94l232 -550h-87l-51 120h-282l-50 -120h-88zM403 189l-117 279l-117 -279h234zM191 676h-57l-169 144h78z" />
    <glyph glyph-name="uni1EA8.smcp" 
d="M420 606h-51l-83 106l-80 -106h-51l95 144h72zM239 550h94l232 -550h-87l-51 120h-282l-50 -120h-88zM403 189l-117 279l-117 -279h234zM336 776l-33 9c10 31 35 55 73 55s72 -21 72 -69c0 -22 -6 -36 -19 -54h-40c17 17 23 35 23 52c0 26 -14 39 -36 39
c-20 0 -33 -12 -40 -32z" />
    <glyph glyph-name="uni1EAE.smcp" 
d="M458 819l-169 -144h-57l148 144h78zM239 550h94l232 -550h-87l-51 120h-282l-50 -120h-88zM403 189l-117 279l-117 -279h234zM462 664c-40 -54 -103 -88 -175 -88c-71 0 -135 34 -176 88l37 32c32 -44 80 -72 139 -72c58 0 107 27 138 72z" />
    <glyph glyph-name="uni1EAA.smcp" 
d="M420 573h-51l-83 106l-80 -106h-51l95 144h72zM239 550h94l232 -550h-87l-51 120h-282l-50 -120h-88zM403 189l-117 279l-117 -279h234zM346 732c-73 0 -75 92 -123 92c-27 0 -48 -26 -48 -86h-45c0 78 34 134 97 134c72 0 75 -92 123 -92c27 0 48 26 48 86h45
c0 -78 -34 -134 -97 -134z" />
    <glyph glyph-name="uni1EB0.smcp" 
d="M239 550h94l232 -550h-87l-51 120h-282l-50 -120h-88zM403 189l-117 279l-117 -279h234zM343 675h-57l-169 144h78zM463 664c-40 -54 -103 -88 -175 -88c-71 0 -135 34 -176 88l37 32c32 -44 80 -72 139 -72c58 0 107 27 138 72z" />
    <glyph glyph-name="uni1EB2.smcp" 
d="M239 550h94l232 -550h-87l-51 120h-282l-50 -120h-88zM403 189l-117 279l-117 -279h234zM248 732l-33 9c10 31 35 55 73 55s72 -21 72 -69c0 -22 -6 -36 -19 -54h-40c17 17 23 35 23 52c0 26 -14 39 -36 39c-20 0 -33 -12 -40 -32zM463 664c-40 -54 -103 -88 -175 -88
c-71 0 -135 34 -176 88l37 32c32 -44 80 -72 139 -72c58 0 107 27 138 72z" />
    <glyph glyph-name="uni1EB4.smcp" 
d="M463 664c-40 -54 -103 -88 -175 -88c-71 0 -135 34 -176 88l37 32c32 -44 80 -72 139 -72c58 0 107 27 138 72zM239 550h94l232 -550h-87l-51 120h-282l-50 -120h-88zM403 189l-117 279l-117 -279h234zM346 708c-73 0 -75 92 -123 92c-27 0 -48 -26 -48 -86h-45
c0 78 34 134 97 134c72 0 75 -92 123 -92c27 0 48 26 48 86h45c0 -78 -34 -134 -97 -134z" />
    <glyph glyph-name="uni1EB6.smcp" 
d="M239 550h94l232 -550h-87l-51 120h-282l-50 -120h-88zM403 189l-117 279l-117 -279h234zM286 -184c-25 0 -47 21 -47 47s22 47 47 47c26 0 46 -21 46 -47s-20 -47 -46 -47zM462 676c-40 -54 -103 -88 -175 -88c-71 0 -135 34 -176 88l37 32c32 -44 80 -72 139 -72
c58 0 107 27 138 72z" />
    <glyph glyph-name="AE.smcp" unicode="&#xf7e6;" horiz-adv-x="821" 
d="M770 0h-383v120h-216l-76 -120h-89l351 550h413v-69h-305v-165h298v-69h-298v-178h305v-69zM387 189v279l-178 -279h178z" />
    <glyph glyph-name="AEacute.smcp" unicode="&#xf670;" horiz-adv-x="821" 
d="M595 750l-169 -144h-57l148 144h78zM770 0h-383v120h-216l-76 -120h-89l351 550h413v-69h-305v-165h298v-69h-298v-178h305v-69zM387 189v279l-178 -279h178z" />
    <glyph glyph-name="uni1E02.smcp" horiz-adv-x="554" 
d="M340 0h-265v550h259c102 0 163 -58 163 -141c0 -66 -44 -111 -94 -125c60 -14 106 -72 106 -135c0 -89 -62 -149 -169 -149zM329 69c62 0 99 34 99 88c0 47 -34 90 -99 90h-176v-178h176zM324 316c61 0 93 36 93 82c0 50 -34 83 -93 83h-171v-165h171zM284 605
c-25 0 -47 21 -47 47s22 47 47 47c26 0 46 -21 46 -47s-20 -47 -46 -47z" />
    <glyph glyph-name="Cacute.smcp" unicode="&#xf671;" horiz-adv-x="582" 
d="M510 750l-169 -144h-57l148 144h78zM340 -12c-166 0 -293 118 -293 287c0 170 127 287 293 287c99 0 172 -47 219 -113l-63 -35c-33 48 -91 79 -156 79c-120 0 -213 -90 -213 -218c0 -126 93 -218 213 -218c65 0 125 32 156 79l64 -35c-49 -67 -121 -113 -220 -113z" />
    <glyph glyph-name="Ccaron.smcp" unicode="&#xf672;" horiz-adv-x="582" 
d="M380 606h-72l-98 144h51l83 -106l80 106h51zM340 -12c-166 0 -293 118 -293 287c0 170 127 287 293 287c99 0 172 -47 219 -113l-63 -35c-33 48 -91 79 -156 79c-120 0 -213 -90 -213 -218c0 -126 93 -218 213 -218c65 0 125 32 156 79l64 -35
c-49 -67 -121 -113 -220 -113z" />
    <glyph glyph-name="Ccedilla.smcp" unicode="&#xf7e7;" horiz-adv-x="582" 
d="M340 -191c-43 0 -81 14 -101 30l19 38c24 -20 53 -29 80 -29c32 0 61 15 61 42c0 21 -12 35 -37 35c-14 0 -29 -7 -38 -17l-33 19l23 62c-153 11 -267 126 -267 286c0 170 127 287 293 287c99 0 172 -47 219 -113l-63 -35c-33 48 -91 79 -156 79
c-120 0 -213 -90 -213 -218c0 -126 93 -218 213 -218c65 0 125 32 156 79l64 -35c-46 -63 -112 -107 -202 -112l-17 -44c10 7 24 11 37 11c38 0 66 -26 66 -67c0 -49 -47 -80 -104 -80z" />
    <glyph glyph-name="Ccircumflex.smcp" unicode="&#xf673;" horiz-adv-x="582" 
d="M475 606h-51l-83 106l-80 -106h-51l95 144h72zM340 -12c-166 0 -293 118 -293 287c0 170 127 287 293 287c99 0 172 -47 219 -113l-63 -35c-33 48 -91 79 -156 79c-120 0 -213 -90 -213 -218c0 -126 93 -218 213 -218c65 0 125 32 156 79l64 -35
c-49 -67 -121 -113 -220 -113z" />
    <glyph glyph-name="Cdotaccent.smcp" unicode="&#xf674;" horiz-adv-x="582" 
d="M340 -12c-166 0 -293 118 -293 287c0 170 127 287 293 287c99 0 172 -47 219 -113l-63 -35c-33 48 -91 79 -156 79c-120 0 -213 -90 -213 -218c0 -126 93 -218 213 -218c65 0 125 32 156 79l64 -35c-49 -67 -121 -113 -220 -113zM343 605c-25 0 -47 21 -47 47
s22 47 47 47c26 0 46 -21 46 -47s-20 -47 -46 -47z" />
    <glyph glyph-name="Dcaron.smcp" unicode="&#xf675;" horiz-adv-x="615" 
d="M334 606h-72l-98 144h51l83 -106l80 106h51zM262 0h-200v550h199c181 0 294 -120 294 -276s-113 -274 -293 -274zM261 69c138 0 213 91 213 205s-73 207 -212 207h-122v-412h121z" />
    <glyph glyph-name="Dcroat.smcp" unicode="&#xf676;" horiz-adv-x="626" 
d="M273 0h-200v251h-63v53h63v246h199c181 0 294 -120 294 -276s-113 -274 -293 -274zM285 251h-134v-182h121c138 0 213 91 213 205s-73 207 -212 207h-122v-177h134v-53z" />
    <glyph glyph-name="uni1E0A.smcp" horiz-adv-x="615" 
d="M275 0h-200v550h199c181 0 294 -120 294 -276s-113 -274 -293 -274zM274 69c138 0 213 91 213 205s-73 207 -212 207h-122v-412h121zM305 605c-25 0 -47 21 -47 47s22 47 47 47c26 0 46 -21 46 -47s-20 -47 -46 -47z" />
    <glyph glyph-name="Eacute.smcp" unicode="&#xf7e9;" horiz-adv-x="509" 
d="M435 750l-169 -144h-57l148 144h78zM457 0h-382v550h382v-69h-304v-165h299v-69h-299v-178h304v-69z" />
    <glyph glyph-name="Ebreve.smcp" unicode="&#xf677;" horiz-adv-x="509" 
d="M457 0h-382v550h382v-69h-304v-165h299v-69h-299v-178h304v-69zM441 676c-40 -54 -103 -88 -175 -88c-71 0 -135 34 -176 88l37 32c32 -44 80 -72 139 -72c58 0 107 27 138 72z" />
    <glyph glyph-name="Ecaron.smcp" unicode="&#xf678;" horiz-adv-x="509" 
d="M304 606h-72l-98 144h51l83 -106l80 106h51zM457 0h-382v550h382v-69h-304v-165h299v-69h-299v-178h304v-69z" />
    <glyph glyph-name="Ecircumflex.smcp" unicode="&#xf7ea;" horiz-adv-x="509" 
d="M401 606h-51l-83 106l-80 -106h-51l95 144h72zM457 0h-382v550h382v-69h-304v-165h299v-69h-299v-178h304v-69z" />
    <glyph glyph-name="Edieresis.smcp" unicode="&#xf7eb;" horiz-adv-x="509" 
d="M416 654c0 -26 -22 -47 -47 -47s-47 21 -47 47c0 25 22 46 47 46s47 -21 47 -46zM209 654c0 -26 -21 -47 -46 -47c-26 0 -47 21 -47 47c0 25 21 46 47 46c25 0 46 -21 46 -46zM457 0h-382v550h382v-69h-304v-165h299v-69h-299v-178h304v-69z" />
    <glyph glyph-name="Edotaccent.smcp" unicode="&#xf679;" horiz-adv-x="509" 
d="M457 0h-382v550h382v-69h-304v-165h299v-69h-299v-178h304v-69zM269 605c-25 0 -47 21 -47 47s22 47 47 47c26 0 46 -21 46 -47s-20 -47 -46 -47z" />
    <glyph glyph-name="Egrave.smcp" unicode="&#xf7e8;" horiz-adv-x="509" 
d="M457 0h-382v550h382v-69h-304v-165h299v-69h-299v-178h304v-69zM323 606h-57l-169 144h78z" />
    <glyph glyph-name="Emacron.smcp" unicode="&#xf67a;" horiz-adv-x="509" 
d="M457 0h-382v550h382v-69h-304v-165h299v-69h-299v-178h304v-69zM446 622h-363v48h363v-48z" />
    <glyph glyph-name="Eogonek.smcp" unicode="&#xf67c;" horiz-adv-x="509" 
d="M477 -105l37 -21c-14 -32 -41 -60 -89 -60c-47 0 -89 26 -89 87c0 38 20 73 53 99h-314v550h382v-69h-304v-165h299v-69h-299v-178h304v-69c-48 -24 -76 -55 -76 -97c0 -34 18 -50 44 -50c28 0 43 15 52 42z" />
    <glyph glyph-name="uni1EB8.smcp" horiz-adv-x="509" 
d="M457 0h-382v550h382v-69h-304v-165h299v-69h-299v-178h304v-69zM268 -184c-25 0 -47 21 -47 47s22 47 47 47c26 0 46 -21 46 -47s-20 -47 -46 -47z" />
    <glyph glyph-name="uni1EBA.smcp" horiz-adv-x="509" 
d="M457 0h-382v550h382v-69h-304v-165h299v-69h-299v-178h304v-69zM228 639l-33 9c10 31 35 55 73 55s72 -21 72 -69c0 -22 -6 -36 -19 -54h-40c17 17 23 35 23 52c0 26 -14 39 -36 39c-20 0 -33 -12 -40 -32z" />
    <glyph glyph-name="uni1EBC.smcp" horiz-adv-x="509" 
d="M457 0h-382v550h382v-69h-304v-165h299v-69h-299v-178h304v-69zM328 604c-73 0 -75 92 -123 92c-27 0 -48 -26 -48 -86h-45c0 78 34 134 97 134c72 0 75 -92 123 -92c27 0 48 26 48 86h45c0 -78 -34 -134 -97 -134z" />
    <glyph glyph-name="uni1EBE.smcp" horiz-adv-x="509" 
d="M399 606h-51l-83 106l-80 -106h-51l95 144h72zM585 820l-169 -144h-57l148 144h78zM457 0h-382v550h382v-69h-304v-165h299v-69h-299v-178h304v-69z" />
    <glyph glyph-name="uni1EC0.smcp" horiz-adv-x="509" 
d="M399 606h-51l-83 106l-80 -106h-51l95 144h72zM457 0h-382v550h382v-69h-304v-165h299v-69h-299v-178h304v-69zM170 676h-57l-169 144h78z" />
    <glyph glyph-name="uni1EC2.smcp" horiz-adv-x="509" 
d="M399 606h-51l-83 106l-80 -106h-51l95 144h72zM457 0h-382v550h382v-69h-304v-165h299v-69h-299v-178h304v-69zM318 776l-33 9c10 31 35 55 73 55s72 -21 72 -69c0 -22 -6 -36 -19 -54h-40c17 17 23 35 23 52c0 26 -14 39 -36 39c-20 0 -33 -12 -40 -32z" />
    <glyph glyph-name="uni1EC4.smcp" horiz-adv-x="509" 
d="M399 573h-51l-83 106l-80 -106h-51l95 144h72zM457 0h-382v550h382v-69h-304v-165h299v-69h-299v-178h304v-69zM325 732c-73 0 -75 92 -123 92c-27 0 -48 -26 -48 -86h-45c0 78 34 134 97 134c72 0 75 -92 123 -92c27 0 48 26 48 86h45c0 -78 -34 -134 -97 -134z" />
    <glyph glyph-name="uni1EC6.smcp" horiz-adv-x="509" 
d="M401 606h-51l-83 106l-80 -106h-51l95 144h72zM457 0h-382v550h382v-69h-304v-165h299v-69h-299v-178h304v-69zM268 -184c-25 0 -47 21 -47 47s22 47 47 47c26 0 46 -21 46 -47s-20 -47 -46 -47z" />
    <glyph glyph-name="uni1E1E.smcp" horiz-adv-x="491" 
d="M270 605c-25 0 -47 21 -47 47s22 47 47 47c26 0 46 -21 46 -47s-20 -47 -46 -47zM153 0h-78v550h382v-69h-304v-165h299v-69h-299v-247z" />
    <glyph glyph-name="Gbreve.smcp" unicode="&#xf67d;" horiz-adv-x="626" 
d="M341 -12c-165 0 -294 116 -294 287s129 287 294 287c97 0 170 -42 221 -101l-61 -41c-36 43 -94 72 -160 72c-121 0 -213 -90 -213 -217c0 -126 92 -219 213 -219c67 0 119 31 147 58v107h-170v66h248v-203c-54 -58 -133 -96 -225 -96zM517 676
c-40 -54 -103 -88 -175 -88c-71 0 -135 34 -176 88l37 32c32 -44 80 -72 139 -72c58 0 107 27 138 72z" />
    <glyph glyph-name="Gcircumflex.smcp" unicode="&#xf67e;" horiz-adv-x="626" 
d="M341 -12c-165 0 -294 116 -294 287s129 287 294 287c97 0 170 -42 221 -101l-61 -41c-36 43 -94 72 -160 72c-121 0 -213 -90 -213 -217c0 -126 92 -219 213 -219c67 0 119 31 147 58v107h-170v66h248v-203c-54 -58 -133 -96 -225 -96zM474 606h-51l-83 106l-80 -106h-51
l95 144h72z" />
    <glyph glyph-name="Gcommaaccent.smcp" unicode="&#xf67f;" horiz-adv-x="626" 
d="M341 -12c-165 0 -294 116 -294 287s129 287 294 287c97 0 170 -42 221 -101l-61 -41c-36 43 -94 72 -160 72c-121 0 -213 -90 -213 -217c0 -126 92 -219 213 -219c67 0 119 31 147 58v107h-170v66h248v-203c-54 -58 -133 -96 -225 -96zM393 -138c0 -54 -32 -105 -71 -134
l-33 26c30 20 55 57 58 86c-1 -1 -8 -2 -11 -2c-24 0 -42 19 -42 44c0 26 20 47 46 47c28 0 53 -24 53 -67z" />
    <glyph glyph-name="Gdotaccent.smcp" unicode="&#xf680;" horiz-adv-x="626" 
d="M341 -12c-165 0 -294 116 -294 287s129 287 294 287c97 0 170 -42 221 -101l-61 -41c-36 43 -94 72 -160 72c-121 0 -213 -90 -213 -217c0 -126 92 -219 213 -219c67 0 119 31 147 58v107h-170v66h248v-203c-54 -58 -133 -96 -225 -96zM343 605c-25 0 -47 21 -47 47
s22 47 47 47c26 0 46 -21 46 -47s-20 -47 -46 -47z" />
    <glyph glyph-name="Gbreve.smcp.alt1" horiz-adv-x="642" 
d="M338 -12c-162 0 -291 116 -291 287s129 287 294 287c97 0 170 -42 221 -101l-61 -41c-36 43 -94 73 -160 73c-121 0 -213 -91 -213 -218c0 -126 92 -219 213 -219c93 0 170 61 184 165h-207v66h290c0 -182 -107 -299 -270 -299zM517 676c-40 -54 -103 -88 -175 -88
c-71 0 -135 34 -176 88l37 32c32 -44 80 -72 139 -72c58 0 107 27 138 72z" />
    <glyph glyph-name="Gcommaaccent.smcp.alt1" horiz-adv-x="642" 
d="M393 -138c0 -54 -32 -105 -71 -134l-33 26c30 20 55 57 58 86c-1 -1 -8 -2 -11 -2c-24 0 -42 19 -42 44c0 26 20 47 46 47c28 0 53 -24 53 -67zM338 -12c-162 0 -291 116 -291 287s129 287 294 287c97 0 170 -42 221 -101l-61 -41c-36 43 -94 73 -160 73
c-121 0 -213 -91 -213 -218c0 -126 92 -219 213 -219c93 0 170 61 184 165h-207v66h290c0 -182 -107 -299 -270 -299z" />
    <glyph glyph-name="Gcircumflex.smcp.alt1" horiz-adv-x="642" 
d="M476 606h-51l-83 106l-80 -106h-51l95 144h72zM338 -12c-162 0 -291 116 -291 287s129 287 294 287c97 0 170 -42 221 -101l-61 -41c-36 43 -94 73 -160 73c-121 0 -213 -91 -213 -218c0 -126 92 -219 213 -219c93 0 170 61 184 165h-207v66h290
c0 -182 -107 -299 -270 -299z" />
    <glyph glyph-name="Gdotaccent.smcp.alt1" horiz-adv-x="642" 
d="M338 -12c-162 0 -291 116 -291 287s129 287 294 287c97 0 170 -42 221 -101l-61 -41c-36 43 -94 73 -160 73c-121 0 -213 -91 -213 -218c0 -126 92 -219 213 -219c93 0 170 61 184 165h-207v66h290c0 -182 -107 -299 -270 -299zM343 605c-25 0 -47 21 -47 47s22 47 47 47
c26 0 46 -21 46 -47s-20 -47 -46 -47z" />
    <glyph glyph-name="Hbar.smcp" unicode="&#xf682;" horiz-adv-x="655" 
d="M570 0h-78v248h-329v-248h-78v411h-75v48h75v91h78v-91h329v91h78v-91h74v-48h-74v-411zM163 317h329v94h-329v-94z" />
    <glyph glyph-name="Hcircumflex.smcp" unicode="&#xf681;" horiz-adv-x="635" 
d="M449 606h-51l-83 106l-80 -106h-51l95 144h72zM560 0h-78v248h-329v-248h-78v550h78v-233h329v233h78v-550z" />
    <glyph glyph-name="uni1E22.smcp" horiz-adv-x="635" 
d="M560 0h-78v248h-329v-248h-78v550h78v-233h329v233h78v-550zM318 605c-25 0 -47 21 -47 47s22 47 47 47c26 0 46 -21 46 -47s-20 -47 -46 -47z" />
    <glyph glyph-name="Iacute.smcp" unicode="&#xf7ed;" horiz-adv-x="229" 
d="M283 750l-169 -144h-57l148 144h78zM153 0h-78v550h78v-550z" />
    <glyph glyph-name="Ibreve.smcp" unicode="&#xf683;" horiz-adv-x="229" 
d="M153 0h-78v550h78v-550zM289 676c-40 -54 -103 -88 -175 -88c-71 0 -135 34 -176 88l37 32c32 -44 80 -72 139 -72c58 0 107 27 138 72z" />
    <glyph glyph-name="Igrave.smcp" unicode="&#xf7ec;" horiz-adv-x="229" 
d="M153 0h-78v550h78v-550zM171 606h-57l-169 144h78z" />
    <glyph glyph-name="Icircumflex.smcp" unicode="&#xf7ee;" horiz-adv-x="229" 
d="M248 606h-51l-83 106l-80 -106h-51l95 144h72zM153 0h-78v550h78v-550z" />
    <glyph glyph-name="Idieresis.smcp" unicode="&#xf7ef;" horiz-adv-x="229" 
d="M265 654c0 -26 -22 -47 -47 -47s-47 21 -47 47c0 25 22 46 47 46s47 -21 47 -46zM58 654c0 -26 -21 -47 -46 -47c-26 0 -47 21 -47 47c0 25 21 46 47 46c25 0 46 -21 46 -46zM153 0h-78v550h78v-550z" />
    <glyph glyph-name="Idotaccent.smcp" unicode="&#xf6ad;" horiz-adv-x="229" 
d="M153 0h-78v550h78v-550zM114 605c-25 0 -47 21 -47 47s22 47 47 47c26 0 46 -21 46 -47s-20 -47 -46 -47z" />
    <glyph glyph-name="Imacron.smcp" unicode="&#xf685;" horiz-adv-x="229" 
d="M297 622h-363v48h363v-48zM153 0h-78v550h78v-550z" />
    <glyph glyph-name="Iogonek.smcp" unicode="&#xf686;" horiz-adv-x="229" 
d="M153 0c-48 -24 -76 -55 -76 -97c0 -34 18 -50 44 -50c28 0 43 15 52 42l37 -21c-14 -32 -41 -60 -89 -60c-47 0 -89 26 -89 87c0 38 20 73 53 99h-10v550h78v-550z" />
    <glyph glyph-name="Itilde.smcp" unicode="&#xf687;" horiz-adv-x="229" 
d="M153 0h-78v550h78v-550zM175 604c-73 0 -75 92 -123 92c-27 0 -48 -26 -48 -86h-45c0 78 34 134 97 134c72 0 75 -92 123 -92c27 0 48 26 48 86h45c0 -78 -34 -134 -97 -134z" />
    <glyph glyph-name="uni1EC8.smcp" horiz-adv-x="229" 
d="M153 0h-78v550h78v-550zM76 639l-33 9c10 31 35 55 73 55s72 -21 72 -69c0 -22 -6 -36 -19 -54h-40c17 17 23 35 23 52c0 26 -14 39 -36 39c-20 0 -33 -12 -40 -32z" />
    <glyph glyph-name="uni1ECA.smcp" horiz-adv-x="229" 
d="M153 0h-78v550h78v-550zM116 -184c-25 0 -47 21 -47 47s22 47 47 47c26 0 46 -21 46 -47s-20 -47 -46 -47z" />
    <glyph glyph-name="IJ.smcp" unicode="&#xf684;" horiz-adv-x="650" 
d="M386 -12c-60 0 -111 22 -149 68l38 57c24 -31 59 -56 107 -56c70 0 115 46 115 113v380h78v-386c0 -120 -81 -176 -189 -176zM153 0h-78v550h78v-550z" />
    <glyph glyph-name="Jcircumflex.smcp" unicode="&#xf688;" horiz-adv-x="422" 
d="M439 606h-51l-83 106l-80 -106h-51l95 144h72zM157 -12c-60 0 -111 22 -149 68l38 57c24 -31 59 -56 107 -56c70 0 115 46 115 113v380h78v-386c0 -120 -81 -176 -189 -176z" />
    <glyph glyph-name="Kcommaaccent.smcp" unicode="&#xf689;" horiz-adv-x="534" 
d="M323 -138c0 -54 -32 -105 -71 -134l-33 26c30 20 55 57 58 86c-1 -1 -8 -2 -11 -2c-24 0 -42 19 -42 44c0 26 20 47 46 47c28 0 53 -24 53 -67zM520 0h-97l-216 243l-54 -58v-185h-78v550h78v-275l249 275h97l-242 -261z" />
    <glyph glyph-name="Lacute.smcp" unicode="&#xf68a;" horiz-adv-x="458" 
d="M420 0h-345v550h78v-481h267v-69zM417 750l-169 -144h-57l148 144h78z" />
    <glyph glyph-name="Lcaron.smcp" unicode="&#xf68b;" horiz-adv-x="458" 
d="M333 493c0 -54 -32 -105 -71 -134l-33 26c30 20 55 57 58 86c-1 -1 -8 -2 -11 -2c-24 0 -42 19 -42 44c0 26 20 47 46 47c28 0 53 -24 53 -67zM420 0h-345v550h78v-481h267v-69z" />
    <glyph glyph-name="Lcommaaccent.smcp" unicode="&#xf68c;" horiz-adv-x="458" 
d="M299 -138c0 -54 -32 -105 -71 -134l-33 26c30 20 55 57 58 86c-1 -1 -8 -2 -11 -2c-24 0 -42 19 -42 44c0 26 20 47 46 47c28 0 53 -24 53 -67zM420 0h-345v550h78v-481h267v-69z" />
    <glyph glyph-name="Ldot.smcp" unicode="&#xf68d;" horiz-adv-x="472" 
d="M420 0h-345v550h78v-481h267v-69zM410 293c0 -29 -25 -54 -55 -54s-55 25 -55 54c0 30 25 55 55 55s55 -25 55 -55z" />
    <glyph glyph-name="Lslash.smcp" unicode="&#xf6f9;" horiz-adv-x="481" 
d="M10 171v72l88 51v256h78v-211l95 55v-72l-95 -55v-198h267v-69h-345v222z" />
    <glyph glyph-name="Nacute.smcp" unicode="&#xf68e;" horiz-adv-x="632" 
d="M485 750l-169 -144h-57l148 144h78zM557 0h-79l-325 428v-428h-78v550h82l321 -420v420h79v-550z" />
    <glyph glyph-name="Ncaron.smcp" unicode="&#xf68f;" horiz-adv-x="632" 
d="M353 606h-72l-98 144h51l83 -106l80 106h51zM557 0h-79l-325 428v-428h-78v550h82l321 -420v420h79v-550z" />
    <glyph glyph-name="Ncommaaccent.smcp" unicode="&#xf690;" horiz-adv-x="632" 
d="M366 -138c0 -54 -32 -105 -71 -134l-33 26c30 20 55 57 58 86c-1 -1 -8 -2 -11 -2c-24 0 -42 19 -42 44c0 26 20 47 46 47c28 0 53 -24 53 -67zM557 0h-79l-325 428v-428h-78v550h82l321 -420v420h79v-550z" />
    <glyph glyph-name="Ntilde.smcp" unicode="&#xf7f1;" horiz-adv-x="632" 
d="M557 0h-79l-325 428v-428h-78v550h82l321 -420v420h79v-550zM375 604c-73 0 -75 92 -123 92c-27 0 -48 -26 -48 -86h-45c0 78 34 134 97 134c72 0 75 -92 123 -92c27 0 48 26 48 86h45c0 -78 -34 -134 -97 -134z" />
    <glyph glyph-name="Eng.smcp" unicode="&#xf67b;" horiz-adv-x="632" 
d="M368 -196c-60 0 -111 22 -149 68l37 57c24 -31 59 -56 107 -56c71 0 115 46 115 113v14l-325 428v-428h-78v550h82l321 -420v420h79v-570c0 -120 -82 -176 -189 -176z" />
    <glyph glyph-name="Oacute.smcp" unicode="&#xf7f3;" horiz-adv-x="662" 
d="M331 -12c-172 0 -284 125 -284 287s112 287 284 287c170 0 284 -125 284 -287s-114 -287 -284 -287zM331 57c123 0 204 94 204 218c0 125 -81 218 -204 218c-125 0 -204 -93 -204 -218c0 -124 79 -218 204 -218zM500 750l-169 -144h-57l148 144h78z" />
    <glyph glyph-name="Obreve.smcp" unicode="&#xf691;" horiz-adv-x="662" 
d="M331 -12c-172 0 -284 125 -284 287s112 287 284 287c170 0 284 -125 284 -287s-114 -287 -284 -287zM331 57c123 0 204 94 204 218c0 125 -81 218 -204 218c-125 0 -204 -93 -204 -218c0 -124 79 -218 204 -218zM508 676c-40 -54 -103 -88 -175 -88
c-71 0 -135 34 -176 88l37 32c32 -44 80 -72 139 -72c58 0 107 27 138 72z" />
    <glyph glyph-name="Ocircumflex.smcp" unicode="&#xf7f4;" horiz-adv-x="662" 
d="M331 -12c-172 0 -284 125 -284 287s112 287 284 287c170 0 284 -125 284 -287s-114 -287 -284 -287zM331 57c123 0 204 94 204 218c0 125 -81 218 -204 218c-125 0 -204 -93 -204 -218c0 -124 79 -218 204 -218zM465 606h-51l-83 106l-80 -106h-51l95 144h72z" />
    <glyph glyph-name="Odieresis.smcp" unicode="&#xf7f6;" horiz-adv-x="662" 
d="M331 -12c-172 0 -284 125 -284 287s112 287 284 287c170 0 284 -125 284 -287s-114 -287 -284 -287zM331 57c123 0 204 94 204 218c0 125 -81 218 -204 218c-125 0 -204 -93 -204 -218c0 -124 79 -218 204 -218zM482 654c0 -26 -22 -47 -47 -47s-47 21 -47 47
c0 25 22 46 47 46s47 -21 47 -46zM275 654c0 -26 -21 -47 -46 -47c-26 0 -47 21 -47 47c0 25 21 46 47 46c25 0 46 -21 46 -46z" />
    <glyph glyph-name="Ograve.smcp" unicode="&#xf7f2;" horiz-adv-x="662" 
d="M331 -12c-172 0 -284 125 -284 287s112 287 284 287c170 0 284 -125 284 -287s-114 -287 -284 -287zM331 57c123 0 204 94 204 218c0 125 -81 218 -204 218c-125 0 -204 -93 -204 -218c0 -124 79 -218 204 -218zM388 606h-57l-169 144h78z" />
    <glyph glyph-name="Ohungarumlaut.smcp" unicode="&#xf692;" horiz-adv-x="662" 
d="M331 -12c-172 0 -284 125 -284 287s112 287 284 287c170 0 284 -125 284 -287s-114 -287 -284 -287zM331 57c123 0 204 94 204 218c0 125 -81 218 -204 218c-125 0 -204 -93 -204 -218c0 -124 79 -218 204 -218zM387 750l-115 -144h-48l94 144h69zM529 750l-115 -144h-48
l94 144h69z" />
    <glyph glyph-name="Omacron.smcp" unicode="&#xf693;" horiz-adv-x="662" 
d="M331 -12c-172 0 -284 125 -284 287s112 287 284 287c170 0 284 -125 284 -287s-114 -287 -284 -287zM331 57c123 0 204 94 204 218c0 125 -81 218 -204 218c-125 0 -204 -93 -204 -218c0 -124 79 -218 204 -218zM513 622h-363v48h363v-48z" />
    <glyph glyph-name="Otilde.smcp" unicode="&#xf7f5;" horiz-adv-x="662" 
d="M331 -12c-172 0 -284 125 -284 287s112 287 284 287c170 0 284 -125 284 -287s-114 -287 -284 -287zM331 57c123 0 204 94 204 218c0 125 -81 218 -204 218c-125 0 -204 -93 -204 -218c0 -124 79 -218 204 -218zM392 604c-73 0 -75 92 -123 92c-27 0 -48 -26 -48 -86h-45
c0 78 34 134 97 134c72 0 75 -92 123 -92c27 0 48 26 48 86h45c0 -78 -34 -134 -97 -134z" />
    <glyph glyph-name="Oslash.smcp" unicode="&#xf7f8;" horiz-adv-x="662" 
d="M331 -12c-58 0 -109 14 -151 39l-20 -27h-67l43 59c-57 52 -89 128 -89 216c0 162 112 287 284 287c56 0 106 -14 148 -38l19 26h67l-43 -58c59 -52 93 -129 93 -217c0 -162 -114 -287 -284 -287zM331 57c123 0 204 94 204 218c0 63 -21 118 -57 157l-255 -347
c30 -18 66 -28 108 -28zM127 275c0 -62 19 -116 54 -155l255 346c-30 17 -66 27 -105 27c-125 0 -204 -93 -204 -218z" />
    <glyph glyph-name="Oslashacute.smcp" unicode="&#xf694;" horiz-adv-x="662" 
d="M331 -12c-58 0 -109 14 -151 39l-20 -27h-67l43 59c-57 52 -89 128 -89 216c0 162 112 287 284 287c56 0 106 -14 148 -38l19 26h67l-43 -58c59 -52 93 -129 93 -217c0 -162 -114 -287 -284 -287zM331 57c123 0 204 94 204 218c0 63 -21 118 -57 157l-255 -347
c30 -18 66 -28 108 -28zM127 275c0 -62 19 -116 54 -155l255 346c-30 17 -66 27 -105 27c-125 0 -204 -93 -204 -218zM500 750l-169 -144h-57l148 144h78z" />
    <glyph glyph-name="uni1ECC.smcp" horiz-adv-x="662" 
d="M331 -12c-172 0 -284 125 -284 287s112 287 284 287c170 0 284 -125 284 -287s-114 -287 -284 -287zM331 57c123 0 204 94 204 218c0 125 -81 218 -204 218c-125 0 -204 -93 -204 -218c0 -124 79 -218 204 -218zM332 -184c-25 0 -47 21 -47 47s22 47 47 47
c26 0 46 -21 46 -47s-20 -47 -46 -47z" />
    <glyph glyph-name="uni1ECE.smcp" horiz-adv-x="662" 
d="M331 -12c-172 0 -284 125 -284 287s112 287 284 287c170 0 284 -125 284 -287s-114 -287 -284 -287zM331 57c123 0 204 94 204 218c0 125 -81 218 -204 218c-125 0 -204 -93 -204 -218c0 -124 79 -218 204 -218zM292 644l-33 9c10 31 35 55 73 55s72 -21 72 -69
c0 -22 -6 -36 -19 -54h-40c17 17 23 35 23 52c0 26 -14 39 -36 39c-20 0 -33 -12 -40 -32z" />
    <glyph glyph-name="uni1ED0.smcp" horiz-adv-x="662" 
d="M331 -12c-172 0 -284 125 -284 287s112 287 284 287c170 0 284 -125 284 -287s-114 -287 -284 -287zM331 57c123 0 204 94 204 218c0 125 -81 218 -204 218c-125 0 -204 -93 -204 -218c0 -124 79 -218 204 -218zM464 606h-51l-83 106l-80 -106h-51l95 144h72zM651 820
l-169 -144h-57l148 144h78z" />
    <glyph glyph-name="uni1ED2.smcp" horiz-adv-x="662" 
d="M331 -12c-172 0 -284 125 -284 287s112 287 284 287c170 0 284 -125 284 -287s-114 -287 -284 -287zM331 57c123 0 204 94 204 218c0 125 -81 218 -204 218c-125 0 -204 -93 -204 -218c0 -124 79 -218 204 -218zM464 606h-51l-83 106l-80 -106h-51l95 144h72zM235 676
h-57l-169 144h78z" />
    <glyph glyph-name="uni1ED4.smcp" horiz-adv-x="662" 
d="M331 -12c-172 0 -284 125 -284 287s112 287 284 287c170 0 284 -125 284 -287s-114 -287 -284 -287zM331 57c123 0 204 94 204 218c0 125 -81 218 -204 218c-125 0 -204 -93 -204 -218c0 -124 79 -218 204 -218zM464 606h-51l-83 106l-80 -106h-51l95 144h72zM381 776
l-33 9c10 31 35 55 73 55s72 -21 72 -69c0 -22 -6 -36 -19 -54h-40c17 17 23 35 23 52c0 26 -14 39 -36 39c-20 0 -33 -12 -40 -32z" />
    <glyph glyph-name="uni1ED6.smcp" horiz-adv-x="662" 
d="M331 -12c-172 0 -284 125 -284 287s112 287 284 287c170 0 284 -125 284 -287s-114 -287 -284 -287zM331 57c123 0 204 94 204 218c0 125 -81 218 -204 218c-125 0 -204 -93 -204 -218c0 -124 79 -218 204 -218zM465 573h-51l-83 106l-80 -106h-51l95 144h72zM392 732
c-73 0 -75 92 -123 92c-27 0 -48 -26 -48 -86h-45c0 78 34 134 97 134c72 0 75 -92 123 -92c27 0 48 26 48 86h45c0 -78 -34 -134 -97 -134z" />
    <glyph glyph-name="uni1ED8.smcp" horiz-adv-x="662" 
d="M331 -12c-172 0 -284 125 -284 287s112 287 284 287c170 0 284 -125 284 -287s-114 -287 -284 -287zM331 57c123 0 204 94 204 218c0 125 -81 218 -204 218c-125 0 -204 -93 -204 -218c0 -124 79 -218 204 -218zM465 606h-51l-83 106l-80 -106h-51l95 144h72zM334 -184
c-25 0 -47 21 -47 47s22 47 47 47c26 0 46 -21 46 -47s-20 -47 -46 -47z" />
    <glyph glyph-name="Ohorn.smcp" horiz-adv-x="662" 
d="M331 -12c-172 0 -284 125 -284 287s112 287 284 287c97 0 175 -41 225 -106c22 19 37 47 40 71c-1 -1 -7 -2 -11 -2c-22 0 -39 18 -39 41c0 24 19 44 43 44c26 0 50 -23 50 -63c0 -49 -27 -95 -62 -123c24 -43 38 -94 38 -149c0 -162 -114 -287 -284 -287zM331 57
c123 0 204 94 204 218c0 125 -81 218 -204 218c-125 0 -204 -93 -204 -218c0 -124 79 -218 204 -218z" />
    <glyph glyph-name="uni1EDA.smcp" horiz-adv-x="662" 
d="M331 -12c-172 0 -284 125 -284 287s112 287 284 287c97 0 175 -41 225 -106c22 19 37 47 40 71c-1 -1 -7 -2 -11 -2c-22 0 -39 18 -39 41c0 24 19 44 43 44c26 0 50 -23 50 -63c0 -49 -27 -95 -62 -123c24 -43 38 -94 38 -149c0 -162 -114 -287 -284 -287zM331 57
c123 0 204 94 204 218c0 125 -81 218 -204 218c-125 0 -204 -93 -204 -218c0 -124 79 -218 204 -218zM500 750l-169 -144h-57l148 144h78z" />
    <glyph glyph-name="uni1EDC.smcp" horiz-adv-x="662" 
d="M331 -12c-172 0 -284 125 -284 287s112 287 284 287c97 0 175 -41 225 -106c22 19 37 47 40 71c-1 -1 -7 -2 -11 -2c-22 0 -39 18 -39 41c0 24 19 44 43 44c26 0 50 -23 50 -63c0 -49 -27 -95 -62 -123c24 -43 38 -94 38 -149c0 -162 -114 -287 -284 -287zM331 57
c123 0 204 94 204 218c0 125 -81 218 -204 218c-125 0 -204 -93 -204 -218c0 -124 79 -218 204 -218zM388 606h-57l-169 144h78z" />
    <glyph glyph-name="uni1EDE.smcp" horiz-adv-x="662" 
d="M331 -12c-172 0 -284 125 -284 287s112 287 284 287c97 0 175 -41 225 -106c22 19 37 47 40 71c-1 -1 -7 -2 -11 -2c-22 0 -39 18 -39 41c0 24 19 44 43 44c26 0 50 -23 50 -63c0 -49 -27 -95 -62 -123c24 -43 38 -94 38 -149c0 -162 -114 -287 -284 -287zM331 57
c123 0 204 94 204 218c0 125 -81 218 -204 218c-125 0 -204 -93 -204 -218c0 -124 79 -218 204 -218zM292 644l-33 9c10 31 35 55 73 55s72 -21 72 -69c0 -22 -6 -36 -19 -54h-40c17 17 23 35 23 52c0 26 -14 39 -36 39c-20 0 -33 -12 -40 -32z" />
    <glyph glyph-name="uni1EE0.smcp" horiz-adv-x="662" 
d="M331 -12c-172 0 -284 125 -284 287s112 287 284 287c97 0 175 -41 225 -106c22 19 37 47 40 71c-1 -1 -7 -2 -11 -2c-22 0 -39 18 -39 41c0 24 19 44 43 44c26 0 50 -23 50 -63c0 -49 -27 -95 -62 -123c24 -43 38 -94 38 -149c0 -162 -114 -287 -284 -287zM331 57
c123 0 204 94 204 218c0 125 -81 218 -204 218c-125 0 -204 -93 -204 -218c0 -124 79 -218 204 -218zM392 604c-73 0 -75 92 -123 92c-27 0 -48 -26 -48 -86h-45c0 78 34 134 97 134c72 0 75 -92 123 -92c27 0 48 26 48 86h45c0 -78 -34 -134 -97 -134z" />
    <glyph glyph-name="uni1EE2.smcp" horiz-adv-x="662" 
d="M331 -12c-172 0 -284 125 -284 287s112 287 284 287c97 0 175 -41 225 -106c22 19 37 47 40 71c-1 -1 -7 -2 -11 -2c-22 0 -39 18 -39 41c0 24 19 44 43 44c26 0 50 -23 50 -63c0 -49 -27 -95 -62 -123c24 -43 38 -94 38 -149c0 -162 -114 -287 -284 -287zM331 57
c123 0 204 94 204 218c0 125 -81 218 -204 218c-125 0 -204 -93 -204 -218c0 -124 79 -218 204 -218zM332 -184c-25 0 -47 21 -47 47s22 47 47 47c26 0 46 -21 46 -47s-20 -47 -46 -47z" />
    <glyph glyph-name="OE.smcp" unicode="&#xf6fa;" horiz-adv-x="953" 
d="M901 0h-382v99c-43 -75 -114 -111 -199 -111c-165 0 -273 124 -273 287c0 162 108 287 273 287c85 0 156 -36 199 -111v99h382v-69h-304v-165h298v-69h-298v-178h304v-69zM519 194v164c-32 95 -108 135 -187 135c-126 0 -205 -93 -205 -218c0 -124 79 -218 205 -218
c82 0 155 41 187 137z" />
    <glyph glyph-name="uni1E56.smcp" horiz-adv-x="522" 
d="M153 0h-78v550h236c119 0 181 -78 181 -168c0 -91 -60 -169 -181 -169h-158v-213zM304 282c72 0 107 42 107 100c0 57 -37 99 -107 99h-151v-199h151zM280 605c-25 0 -47 21 -47 47s22 47 47 47c26 0 46 -21 46 -47s-20 -47 -46 -47z" />
    <glyph glyph-name="Racute.smcp" unicode="&#xf695;" horiz-adv-x="545" 
d="M448 750l-169 -144h-57l148 144h78zM500 0h-92l-144 213h-111v-213h-78v550h236c116 0 181 -74 181 -168c0 -95 -62 -156 -148 -163zM304 282c72 0 108 42 108 100s-39 99 -108 99h-151v-199h151z" />
    <glyph glyph-name="Rcaron.smcp" unicode="&#xf696;" horiz-adv-x="545" 
d="M302 606h-72l-98 144h51l83 -106l80 106h51zM500 0h-92l-144 213h-111v-213h-78v550h236c116 0 181 -74 181 -168c0 -95 -62 -156 -148 -163zM304 282c72 0 108 42 108 100s-39 99 -108 99h-151v-199h151z" />
    <glyph glyph-name="Rcommaaccent.smcp" unicode="&#xf697;" horiz-adv-x="545" 
d="M322 -138c0 -54 -32 -105 -71 -134l-33 26c30 20 55 57 58 86c-1 -1 -8 -2 -11 -2c-24 0 -42 19 -42 44c0 26 20 47 46 47c28 0 53 -24 53 -67zM500 0h-92l-144 213h-111v-213h-78v550h236c116 0 181 -74 181 -168c0 -95 -62 -156 -148 -163zM304 282
c72 0 108 42 108 100s-39 99 -108 99h-151v-199h151z" />
    <glyph glyph-name="Sacute.smcp" unicode="&#xf698;" horiz-adv-x="504" 
d="M419 750l-169 -144h-57l148 144h78zM252 -12c-98 0 -175 36 -220 86l42 59c37 -40 102 -78 179 -78c97 0 135 46 135 95c0 139 -338 56 -338 255c0 92 86 157 199 157c89 0 158 -30 206 -79l-41 -55c-42 45 -105 66 -166 66c-68 0 -118 -36 -118 -87
c0 -119 338 -46 338 -254c0 -93 -69 -165 -216 -165z" />
    <glyph glyph-name="Scaron.smcp" unicode="&#xf6fd;" horiz-adv-x="504" 
d="M291 606h-72l-98 144h51l83 -106l80 106h51zM252 -12c-98 0 -175 36 -220 86l42 59c37 -40 102 -78 179 -78c97 0 135 46 135 95c0 139 -338 56 -338 255c0 92 86 157 199 157c89 0 158 -30 206 -79l-41 -55c-42 45 -105 66 -166 66c-68 0 -118 -36 -118 -87
c0 -119 338 -46 338 -254c0 -93 -69 -165 -216 -165z" />
    <glyph glyph-name="Scircumflex.smcp" unicode="&#xf69a;" horiz-adv-x="504" 
d="M386 606h-51l-83 106l-80 -106h-51l95 144h72zM252 -12c-98 0 -175 36 -220 86l42 59c37 -40 102 -78 179 -78c97 0 135 46 135 95c0 139 -338 56 -338 255c0 92 86 157 199 157c89 0 158 -30 206 -79l-41 -55c-42 45 -105 66 -166 66c-68 0 -118 -36 -118 -87
c0 -119 338 -46 338 -254c0 -93 -69 -165 -216 -165z" />
    <glyph glyph-name="Scedilla.smcp" unicode="&#xf699;" horiz-adv-x="504" 
d="M249 -191c-43 0 -81 14 -101 30l19 38c24 -20 53 -29 80 -29c32 0 61 15 61 42c0 21 -12 35 -37 35c-14 0 -29 -7 -38 -17l-33 19l23 62c-85 7 -151 40 -191 85l42 59c37 -40 102 -78 179 -78c97 0 135 46 135 95c0 139 -338 56 -338 255c0 92 86 157 199 157
c89 0 158 -30 206 -79l-41 -55c-42 45 -105 66 -166 66c-68 0 -118 -36 -118 -87c0 -119 338 -46 338 -254c0 -90 -65 -160 -201 -165l-17 -43c10 7 24 11 37 11c38 0 66 -26 66 -67c0 -49 -47 -80 -104 -80z" />
    <glyph glyph-name="Scommaaccent.smcp" unicode="&#xf69b;" horiz-adv-x="504" 
d="M308 -138c0 -54 -32 -105 -71 -134l-33 26c30 20 55 57 58 86c-1 -1 -8 -2 -11 -2c-24 0 -42 19 -42 44c0 26 20 47 46 47c28 0 53 -24 53 -67zM252 -12c-98 0 -175 36 -220 86l42 59c37 -40 102 -78 179 -78c97 0 135 46 135 95c0 139 -338 56 -338 255
c0 92 86 157 199 157c89 0 158 -30 206 -79l-41 -55c-42 45 -105 66 -166 66c-68 0 -118 -36 -118 -87c0 -119 338 -46 338 -254c0 -93 -69 -165 -216 -165z" />
    <glyph glyph-name="uni1E60.smcp" horiz-adv-x="504" 
d="M252 -12c-98 0 -175 36 -220 86l42 59c37 -40 102 -78 179 -78c97 0 135 46 135 95c0 139 -338 56 -338 255c0 92 86 157 199 157c89 0 158 -30 206 -79l-41 -55c-42 45 -105 66 -166 66c-68 0 -118 -36 -118 -87c0 -119 338 -46 338 -254c0 -93 -69 -165 -216 -165z
M258 605c-25 0 -47 21 -47 47s22 47 47 47c26 0 46 -21 46 -47s-20 -47 -46 -47z" />
    <glyph glyph-name="Tbar.smcp" unicode="&#xf69c;" horiz-adv-x="472" 
d="M274 0h-78v241h-116v48h116v192h-170v69h419v-69h-171v-192h118v-48h-118v-241z" />
    <glyph glyph-name="Tcaron.smcp" unicode="&#xf69d;" horiz-adv-x="472" 
d="M274 606h-72l-98 144h51l83 -106l80 106h51zM274 0h-78v481h-170v69h419v-69h-171v-481z" />
    <glyph glyph-name="Tcommaaccent.smcp" unicode="&#xf69e;" horiz-adv-x="472" 
d="M288 -138c0 -54 -32 -105 -71 -134l-33 26c30 20 55 57 58 86c-1 -1 -8 -2 -11 -2c-24 0 -42 19 -42 44c0 26 20 47 46 47c28 0 53 -24 53 -67zM274 0h-78v481h-170v69h419v-69h-171v-481z" />
    <glyph glyph-name="uni021A.smcp" horiz-adv-x="472" 
d="M288 -138c0 -54 -32 -105 -71 -134l-33 26c30 20 55 57 58 86c-1 -1 -8 -2 -11 -2c-24 0 -42 19 -42 44c0 26 20 47 46 47c28 0 53 -24 53 -67zM274 0h-78v481h-170v69h419v-69h-171v-481z" />
    <glyph glyph-name="uni1E6A.smcp" horiz-adv-x="472" 
d="M274 0h-78v481h-170v69h419v-69h-171v-481zM237 605c-25 0 -47 21 -47 47s22 47 47 47c26 0 46 -21 46 -47s-20 -47 -46 -47z" />
    <glyph glyph-name="Uacute.smcp" unicode="&#xf7fa;" horiz-adv-x="623" 
d="M480 750l-169 -144h-57l148 144h78zM311 -12c-157 0 -236 89 -236 224v338h79v-333c0 -98 55 -160 157 -160s158 62 158 160v333h79v-338c0 -136 -80 -224 -237 -224z" />
    <glyph glyph-name="Ubreve.smcp" unicode="&#xf69f;" horiz-adv-x="623" 
d="M311 -12c-157 0 -236 89 -236 224v338h79v-333c0 -98 55 -160 157 -160s158 62 158 160v333h79v-338c0 -136 -80 -224 -237 -224zM486 676c-40 -54 -103 -88 -175 -88c-71 0 -135 34 -176 88l37 32c32 -44 80 -72 139 -72c58 0 107 27 138 72z" />
    <glyph glyph-name="Ucircumflex.smcp" unicode="&#xf7fb;" horiz-adv-x="623" 
d="M444 606h-51l-83 106l-80 -106h-51l95 144h72zM311 -12c-157 0 -236 89 -236 224v338h79v-333c0 -98 55 -160 157 -160s158 62 158 160v333h79v-338c0 -136 -80 -224 -237 -224z" />
    <glyph glyph-name="Udieresis.smcp" unicode="&#xf7fc;" horiz-adv-x="623" 
d="M462 654c0 -26 -22 -47 -47 -47s-47 21 -47 47c0 25 22 46 47 46s47 -21 47 -46zM255 654c0 -26 -21 -47 -46 -47c-26 0 -47 21 -47 47c0 25 21 46 47 46c25 0 46 -21 46 -46zM311 -12c-157 0 -236 89 -236 224v338h79v-333c0 -98 55 -160 157 -160s158 62 158 160v333
h79v-338c0 -136 -80 -224 -237 -224z" />
    <glyph glyph-name="Ugrave.smcp" unicode="&#xf7f9;" horiz-adv-x="623" 
d="M311 -12c-157 0 -236 89 -236 224v338h79v-333c0 -98 55 -160 157 -160s158 62 158 160v333h79v-338c0 -136 -80 -224 -237 -224zM368 606h-57l-169 144h78z" />
    <glyph glyph-name="Uhungarumlaut.smcp" unicode="&#xf6a0;" horiz-adv-x="623" 
d="M311 -12c-157 0 -236 89 -236 224v338h79v-333c0 -98 55 -160 157 -160s158 62 158 160v333h79v-338c0 -136 -80 -224 -237 -224zM365 750l-115 -144h-48l94 144h69zM507 750l-115 -144h-48l94 144h69z" />
    <glyph glyph-name="Umacron.smcp" unicode="&#xf6a1;" horiz-adv-x="623" 
d="M311 -12c-157 0 -236 89 -236 224v338h79v-333c0 -98 55 -160 157 -160s158 62 158 160v333h79v-338c0 -136 -80 -224 -237 -224zM494 622h-363v48h363v-48z" />
    <glyph glyph-name="Uogonek.smcp" unicode="&#xf6a2;" horiz-adv-x="623" 
d="M311 -12c-157 0 -236 89 -236 224v338h79v-333c0 -98 55 -160 157 -160s158 62 158 160v333h79v-338c0 -107 -49 -184 -146 -212c-48 -24 -76 -55 -76 -97c0 -34 18 -50 44 -50c28 0 43 15 52 42l37 -21c-14 -32 -41 -60 -89 -60c-47 0 -89 26 -89 87c0 33 15 63 39 87
h-9z" />
    <glyph glyph-name="Uring.smcp" unicode="&#xf6a3;" horiz-adv-x="623" 
d="M311 -12c-157 0 -236 89 -236 224v338h79v-333c0 -98 55 -160 157 -160s158 62 158 160v333h79v-338c0 -136 -80 -224 -237 -224zM313 573c-54 0 -98 44 -98 98s44 99 98 99s98 -45 98 -99s-44 -98 -98 -98zM313 612c33 0 58 27 58 59c0 33 -25 59 -58 59
c-32 0 -58 -26 -58 -59c0 -32 26 -59 58 -59z" />
    <glyph glyph-name="Utilde.smcp" unicode="&#xf6a4;" horiz-adv-x="623" 
d="M311 -12c-157 0 -236 89 -236 224v338h79v-333c0 -98 55 -160 157 -160s158 62 158 160v333h79v-338c0 -136 -80 -224 -237 -224zM371 604c-73 0 -75 92 -123 92c-27 0 -48 -26 -48 -86h-45c0 78 34 134 97 134c72 0 75 -92 123 -92c27 0 48 26 48 86h45
c0 -78 -34 -134 -97 -134z" />
    <glyph glyph-name="uni1EE4.smcp" horiz-adv-x="623" 
d="M311 -12c-157 0 -236 89 -236 224v338h79v-333c0 -98 55 -160 157 -160s158 62 158 160v333h79v-338c0 -136 -80 -224 -237 -224zM312 -184c-25 0 -47 21 -47 47s22 47 47 47c26 0 46 -21 46 -47s-20 -47 -46 -47z" />
    <glyph glyph-name="Uhorn.smcp" horiz-adv-x="623" 
d="M311 -12c-157 0 -236 89 -236 224v338h79v-333c0 -98 55 -160 157 -160s158 62 158 160v333h79v-48c35 20 64 56 66 90c0 0 -7 -1 -10 -1c-23 0 -40 18 -40 41c0 24 19 44 43 44c27 0 50 -23 50 -63c0 -62 -42 -122 -109 -152v-249c0 -136 -80 -224 -237 -224z" />
    <glyph glyph-name="uni1EE6.smcp" horiz-adv-x="623" 
d="M311 -12c-157 0 -236 89 -236 224v338h79v-333c0 -98 55 -160 157 -160s158 62 158 160v333h79v-338c0 -136 -80 -224 -237 -224zM271 639l-33 9c10 31 35 55 73 55s72 -21 72 -69c0 -22 -6 -36 -19 -54h-40c17 17 23 35 23 52c0 26 -14 39 -36 39c-20 0 -33 -12 -40 -32
z" />
    <glyph glyph-name="uni1EE8.smcp" horiz-adv-x="623" 
d="M480 750l-169 -144h-57l148 144h78zM311 -12c-157 0 -236 89 -236 224v338h79v-333c0 -98 55 -160 157 -160s158 62 158 160v333h79v-48c35 20 64 56 66 90c0 0 -7 -1 -10 -1c-23 0 -40 18 -40 41c0 24 19 44 43 44c27 0 50 -23 50 -63c0 -62 -42 -122 -109 -152v-249
c0 -136 -80 -224 -237 -224z" />
    <glyph glyph-name="uni1EEA.smcp" horiz-adv-x="623" 
d="M368 606h-57l-169 144h78zM311 -12c-157 0 -236 89 -236 224v338h79v-333c0 -98 55 -160 157 -160s158 62 158 160v333h79v-48c35 20 64 56 66 90c0 0 -7 -1 -10 -1c-23 0 -40 18 -40 41c0 24 19 44 43 44c27 0 50 -23 50 -63c0 -62 -42 -122 -109 -152v-249
c0 -136 -80 -224 -237 -224z" />
    <glyph glyph-name="uni1EEC.smcp" horiz-adv-x="623" 
d="M271 639l-33 9c10 31 35 55 73 55s72 -21 72 -69c0 -22 -6 -36 -19 -54h-40c17 17 23 35 23 52c0 26 -14 39 -36 39c-20 0 -33 -12 -40 -32zM311 -12c-157 0 -236 89 -236 224v338h79v-333c0 -98 55 -160 157 -160s158 62 158 160v333h79v-48c35 20 64 56 66 90
c0 0 -7 -1 -10 -1c-23 0 -40 18 -40 41c0 24 19 44 43 44c27 0 50 -23 50 -63c0 -62 -42 -122 -109 -152v-249c0 -136 -80 -224 -237 -224z" />
    <glyph glyph-name="uni1EEE.smcp" horiz-adv-x="623" 
d="M311 -12c-157 0 -236 89 -236 224v338h79v-333c0 -98 55 -160 157 -160s158 62 158 160v333h79v-48c35 20 64 56 66 90c0 0 -7 -1 -10 -1c-23 0 -40 18 -40 41c0 24 19 44 43 44c27 0 50 -23 50 -63c0 -62 -42 -122 -109 -152v-249c0 -136 -80 -224 -237 -224zM371 604
c-73 0 -75 92 -123 92c-27 0 -48 -26 -48 -86h-45c0 78 34 134 97 134c72 0 75 -92 123 -92c27 0 48 26 48 86h45c0 -78 -34 -134 -97 -134z" />
    <glyph glyph-name="uni1EF0.smcp" horiz-adv-x="623" 
d="M311 -184c-25 0 -47 21 -47 47s22 47 47 47c26 0 46 -21 46 -47s-20 -47 -46 -47zM311 -12c-157 0 -236 89 -236 224v338h79v-333c0 -98 55 -160 157 -160s158 62 158 160v333h79v-48c35 20 64 56 66 90c0 0 -7 -1 -10 -1c-23 0 -40 18 -40 41c0 24 19 44 43 44
c27 0 50 -23 50 -63c0 -62 -42 -122 -109 -152v-249c0 -136 -80 -224 -237 -224z" />
    <glyph glyph-name="Wacute.smcp" horiz-adv-x="764" 
d="M588 0h-82l-125 431l-124 -431h-82l-165 550h87l123 -443l129 443h66l128 -444l124 444h86zM550 750l-169 -144h-57l148 144h78z" />
    <glyph glyph-name="Wcircumflex.smcp" unicode="&#xf6a6;" horiz-adv-x="764" 
d="M514 606h-51l-83 106l-80 -106h-51l95 144h72zM588 0h-82l-125 431l-124 -431h-82l-165 550h87l123 -443l129 443h66l128 -444l124 444h86z" />
    <glyph glyph-name="Wdieresis.smcp" horiz-adv-x="764" 
d="M588 0h-82l-125 431l-124 -431h-82l-165 550h87l123 -443l129 443h66l128 -444l124 444h86zM532 654c0 -26 -22 -47 -47 -47s-47 21 -47 47c0 25 22 46 47 46s47 -21 47 -46zM325 654c0 -26 -21 -47 -46 -47c-26 0 -47 21 -47 47c0 25 21 46 47 46c25 0 46 -21 46 -46z
" />
    <glyph glyph-name="Wgrave.smcp" horiz-adv-x="764" 
d="M588 0h-82l-125 431l-124 -431h-82l-165 550h87l123 -443l129 443h66l128 -444l124 444h86zM438 606h-57l-169 144h78z" />
    <glyph glyph-name="Yacute.smcp" unicode="&#xf7fd;" horiz-adv-x="547" 
d="M444 750l-169 -144h-57l148 144h78zM314 0h-78v233l-229 317h91l177 -250l174 250h91l-226 -317v-233z" />
    <glyph glyph-name="Ycircumflex.smcp" unicode="&#xf6a9;" horiz-adv-x="547" 
d="M408 606h-51l-83 106l-80 -106h-51l95 144h72zM314 0h-78v233l-229 317h91l177 -250l174 250h91l-226 -317v-233z" />
    <glyph glyph-name="Ydieresis.smcp" unicode="&#xf7ff;" horiz-adv-x="547" 
d="M426 654c0 -26 -22 -47 -47 -47s-47 21 -47 47c0 25 22 46 47 46s47 -21 47 -46zM219 654c0 -26 -21 -47 -46 -47c-26 0 -47 21 -47 47c0 25 21 46 47 46c25 0 46 -21 46 -46zM314 0h-78v233l-229 317h91l177 -250l174 250h91l-226 -317v-233z" />
    <glyph glyph-name="Ygrave.smcp" horiz-adv-x="547" 
d="M314 0h-78v233l-229 317h91l177 -250l174 250h91l-226 -317v-233zM332 606h-57l-169 144h78z" />
    <glyph glyph-name="Zacute.smcp" unicode="&#xf6ab;" horiz-adv-x="516" 
d="M427 750l-169 -144h-57l148 144h78zM477 0h-438v59l326 422h-326v69h431v-59l-325 -422h332v-69z" />
    <glyph glyph-name="Zcaron.smcp" unicode="&#xf6ff;" horiz-adv-x="516" 
d="M294 606h-72l-98 144h51l83 -106l80 106h51zM477 0h-438v59l326 422h-326v69h431v-59l-325 -422h332v-69z" />
    <glyph glyph-name="Zdotaccent.smcp" unicode="&#xf6ac;" horiz-adv-x="516" 
d="M477 0h-438v59l326 422h-326v69h431v-59l-325 -422h332v-69zM260 605c-25 0 -47 21 -47 47s22 47 47 47c26 0 46 -21 46 -47s-20 -47 -46 -47z" />
    <glyph glyph-name="Eth.smcp" unicode="&#xf7f0;" horiz-adv-x="626" 
d="M273 0h-200v251h-63v53h63v246h199c181 0 294 -120 294 -276s-113 -274 -293 -274zM285 251h-134v-182h121c138 0 213 91 213 205s-73 207 -212 207h-122v-177h134v-53z" />
    <glyph glyph-name="Thorn.smcp" unicode="&#xf7fe;" horiz-adv-x="522" 
d="M153 0h-78v550h78v-92h158c119 0 181 -79 181 -169s-60 -168 -181 -168h-158v-121zM304 190c72 0 107 42 107 99s-35 100 -107 100h-151v-199h151z" />
    <glyph glyph-name="acute" unicode="&#xb4;" horiz-adv-x="226" 
d="M226 700l-169 -144h-57l148 144h78z" />
    <glyph glyph-name="dieresis" unicode="&#xa8;" horiz-adv-x="272" 
d="M286 604c0 -26 -22 -47 -47 -47s-47 21 -47 47c0 25 22 46 47 46s47 -21 47 -46zM79 604c0 -26 -21 -47 -46 -47c-26 0 -47 21 -47 47c0 25 21 46 47 46c25 0 46 -21 46 -46z" />
    <glyph glyph-name="grave" unicode="`" horiz-adv-x="226" 
d="M226 556h-57l-169 144h78z" />
    <glyph glyph-name="uni02CB" unicode="&#x2cb;" horiz-adv-x="226" 
d="M226 556h-57l-169 144h78z" />
    <glyph glyph-name="circumflex" unicode="&#x2c6;" horiz-adv-x="265" 
d="M265 556h-51l-83 106l-80 -106h-51l95 144h72z" />
    <glyph glyph-name="tilde" unicode="&#x2dc;" horiz-adv-x="313" 
d="M216 554c-73 0 -75 92 -123 92c-27 0 -48 -26 -48 -86h-45c0 78 34 134 97 134c72 0 75 -92 123 -92c27 0 48 26 48 86h45c0 -78 -34 -134 -97 -134z" />
    <glyph glyph-name="macron" unicode="&#xaf;" horiz-adv-x="363" 
d="M363 572h-363v48h363v-48z" />
    <glyph glyph-name="uni203E" unicode="&#x203e;" horiz-adv-x="363" 
d="M363 572h-363v48h363v-48z" />
    <glyph glyph-name="breve" unicode="&#x2d8;" horiz-adv-x="351" 
d="M351 626c-40 -54 -103 -88 -175 -88c-71 0 -135 34 -176 88l37 32c32 -44 80 -72 139 -72c58 0 107 27 138 72z" />
    <glyph glyph-name="dotaccent" unicode="&#x2d9;" horiz-adv-x="111" 
d="M56 555c-25 0 -47 21 -47 47s22 47 47 47c26 0 46 -21 46 -47s-20 -47 -46 -47z" />
    <glyph glyph-name="ring" unicode="&#x2da;" horiz-adv-x="196" 
d="M98 543c-54 0 -98 44 -98 98s44 99 98 99s98 -45 98 -99s-44 -98 -98 -98zM98 582c33 0 58 27 58 59c0 33 -25 59 -58 59c-32 0 -58 -26 -58 -59c0 -32 26 -59 58 -59z" />
    <glyph glyph-name="cedilla" unicode="&#xb8;" horiz-adv-x="205" 
d="M101 -191c-43 0 -81 14 -101 30l19 38c24 -20 53 -29 80 -29c32 0 61 15 61 42c0 21 -12 35 -37 35c-14 0 -29 -7 -38 -17l-33 19l31 84h45l-26 -66c10 7 24 11 37 11c38 0 66 -26 66 -67c0 -49 -47 -80 -104 -80z" />
    <glyph glyph-name="hungarumlaut" unicode="&#x2dd;" horiz-adv-x="305" 
d="M163 700l-115 -144h-48l94 144h69zM305 700l-115 -144h-48l94 144h69z" />
    <glyph glyph-name="ogonek" unicode="&#x2db;" horiz-adv-x="178" 
d="M141 -105l37 -21c-14 -32 -41 -60 -89 -60c-47 0 -89 26 -89 87c0 50 36 95 88 122l33 -23c-48 -24 -76 -55 -76 -97c0 -34 18 -50 44 -50c28 0 43 15 52 42z" />
    <glyph glyph-name="caron" unicode="&#x2c7;" horiz-adv-x="265" 
d="M170 556h-72l-98 144h51l83 -106l80 106h51z" />
    <glyph glyph-name="commaaccent" unicode="&#xf6c3;" horiz-adv-x="230" 
d="M167 -138c0 -54 -32 -105 -71 -134l-33 26c30 20 55 57 58 86c-1 -1 -8 -2 -11 -2c-24 0 -42 19 -42 44c0 26 20 47 46 47c28 0 53 -24 53 -67z" />
    <glyph glyph-name="uni02C9" unicode="&#x2c9;" horiz-adv-x="363" 
d="M363 591h-363v48h363v-48z" />
    <glyph glyph-name="hookabovecomb" unicode="&#x309;" horiz-adv-x="178" 
d="M48 726l-33 9c10 31 35 55 73 55s72 -21 72 -69c0 -22 -6 -36 -19 -54h-40c17 17 23 35 23 52c0 26 -14 39 -36 39c-20 0 -33 -12 -40 -32z" />
    <glyph glyph-name="Alpha" unicode="&#x391;" horiz-adv-x="658" 
d="M649 0h-95l-59 148h-332l-59 -148h-95l268 667h103zM470 222l-141 359l-142 -359h283z" />
    <glyph glyph-name="Beta" unicode="&#x392;" horiz-adv-x="629" 
d="M382 0h-304v667h297c116 0 187 -70 187 -170c0 -84 -56 -140 -117 -153c71 -11 130 -84 130 -164c0 -107 -71 -180 -193 -180zM361 378c75 0 115 46 115 107c0 60 -40 108 -115 108h-200v-215h200zM365 74c78 0 124 44 124 115c0 61 -42 115 -124 115h-204v-230h204z" />
    <glyph glyph-name="Gamma" unicode="&#x393;" horiz-adv-x="550" 
d="M161 0h-83v667h437v-74h-354v-593z" />
    <glyph glyph-name="uni0394" unicode="&#x394;" horiz-adv-x="658" 
d="M649 0h-640l268 667h103zM530 74l-201 507l-201 -507h402z" />
    <glyph glyph-name="Delta" unicode="&#x2206;" horiz-adv-x="658" 
d="M649 0h-640l268 667h103zM530 74l-201 507l-201 -507h402z" />
    <glyph glyph-name="Epsilon" unicode="&#x395;" horiz-adv-x="569" 
d="M515 0h-437v667h437v-74h-354v-215h347v-74h-347v-230h354v-74z" />
    <glyph glyph-name="Zeta" unicode="&#x396;" horiz-adv-x="585" 
d="M536 0h-488v69l375 524h-375v74h481v-69l-375 -524h382v-74z" />
    <glyph glyph-name="Eta" unicode="&#x397;" horiz-adv-x="712" 
d="M634 0h-83v306h-390v-306h-83v667h83v-287h390v287h83v-667z" />
    <glyph glyph-name="Theta" unicode="&#x398;" horiz-adv-x="765" 
d="M569 304h-373v74h373v-74zM382 -12c-198 0 -331 148 -331 345s133 345 331 345c197 0 331 -148 331 -345s-134 -345 -331 -345zM382 62c149 0 245 116 245 271c0 156 -96 271 -245 271c-150 0 -245 -115 -245 -271c0 -155 95 -271 245 -271z" />
    <glyph glyph-name="Iota" unicode="&#x399;" horiz-adv-x="239" 
d="M161 0h-83v667h83v-667z" />
    <glyph glyph-name="Kappa" unicode="&#x39a;" horiz-adv-x="601" 
d="M584 0h-103l-253 300l-67 -76v-224h-83v667h83v-345l295 345h104l-278 -317z" />
    <glyph glyph-name="Lambda" unicode="&#x39b;" horiz-adv-x="658" 
d="M649 0h-95l-225 581l-225 -581h-95l268 667h103z" />
    <glyph glyph-name="Mu" unicode="&#x39c;" horiz-adv-x="809" 
d="M731 0h-83v549l-227 -549h-34l-226 549v-549h-83v667h119l207 -502l208 502h119v-667z" />
    <glyph glyph-name="Nu" unicode="&#x39d;" horiz-adv-x="708" 
d="M630 0h-80l-389 532v-532h-83v667h85l384 -521v521h83v-667z" />
    <glyph glyph-name="Xi" unicode="&#x39e;" horiz-adv-x="615" 
d="M560 593h-505v74h505v-74zM560 0h-506v74h506v-74zM554 304h-492v74h492v-74z" />
    <glyph glyph-name="Omicron" unicode="&#x39f;" horiz-adv-x="765" 
d="M382 -12c-198 0 -331 148 -331 345s133 345 331 345c197 0 331 -148 331 -345s-134 -345 -331 -345zM382 62c149 0 245 116 245 271c0 156 -96 271 -245 271c-150 0 -245 -115 -245 -271c0 -155 95 -271 245 -271z" />
    <glyph glyph-name="Pi" unicode="&#x3a0;" horiz-adv-x="712" 
d="M634 0h-83v593h-390v-593h-83v667h556v-667z" />
    <glyph glyph-name="Rho" unicode="&#x3a1;" horiz-adv-x="587" 
d="M161 0h-83v667h268c134 0 209 -92 209 -201s-77 -201 -209 -201h-185v-265zM336 339c79 0 133 52 133 127s-54 127 -133 127h-175v-254h175z" />
    <glyph glyph-name="Sigma" unicode="&#x3a3;" horiz-adv-x="575" 
d="M157 593l229 -250l-232 -269h367v-74h-467v74l231 268l-230 251v74h466v-74h-364z" />
    <glyph glyph-name="Tau" unicode="&#x3a4;" horiz-adv-x="570" 
d="M326 0h-83v593h-211v74h506v-74h-212v-593z" />
    <glyph glyph-name="Upsilon" unicode="&#x3a5;" horiz-adv-x="626" 
d="M355 0h-83v282l-263 385h97l207 -310l207 310h97l-262 -385v-282z" />
    <glyph glyph-name="Phi" unicode="&#x3a6;" horiz-adv-x="806" 
d="M444 0h-83v65c-193 13 -310 117 -310 268c0 149 117 254 310 267v67h83v-67c192 -13 311 -118 311 -267c0 -151 -119 -255 -311 -268v-65zM669 333c0 106 -84 181 -225 193v-386c141 12 225 87 225 193zM137 333c0 -106 82 -181 224 -193v386
c-142 -12 -224 -87 -224 -193z" />
    <glyph glyph-name="Chi" unicode="&#x3a7;" horiz-adv-x="652" 
d="M639 0h-100l-213 284l-213 -284h-101l260 342l-245 325h101l198 -267l197 267h101l-244 -324z" />
    <glyph glyph-name="Psi" unicode="&#x3a8;" horiz-adv-x="796" 
d="M440 0h-83v125c-186 13 -279 117 -279 270v272h83v-270c0 -114 68 -185 196 -198v468h83v-467c127 12 194 84 194 197v270h84v-271c0 -155 -93 -257 -278 -271v-125z" />
    <glyph glyph-name="uni03A9" unicode="&#x3a9;" horiz-adv-x="765" 
d="M69 74h135c-88 53 -153 143 -153 274c0 192 134 330 331 330c198 0 331 -138 331 -330c0 -131 -64 -221 -151 -274h134v-74h-240v74c87 22 171 113 171 260s-86 269 -245 269s-245 -122 -245 -269s85 -238 172 -260v-74h-240v74z" />
    <glyph glyph-name="Omega" unicode="&#x2126;" horiz-adv-x="765" 
d="M69 74h135c-88 53 -153 143 -153 274c0 192 134 330 331 330c198 0 331 -138 331 -330c0 -131 -64 -221 -151 -274h134v-74h-240v74c87 22 171 113 171 260s-86 269 -245 269s-245 -122 -245 -269s85 -238 172 -260v-74h-240v74z" />
    </font>
</defs>
</svg>
